<?xml version="1.0" encoding="UTF-8"?>
<svg width="44px" height="39px" viewBox="0 0 44 39" version="1.1" xmlns="http://www.w3.org/2000/svg" xmlns:xlink="http://www.w3.org/1999/xlink">
    <!-- Generator: Sketch 52.5 (67469) - http://www.bohemiancoding.com/sketch -->
    <title>sw-30</title>
    <desc>Created with Sketch.</desc>
    <g id="Page-1" stroke="none" stroke-width="1" fill="none" fill-rule="evenodd">
        <g id="Weather-Icons-by-Daniel-VIerich" transform="translate(-915.000000, -379.000000)" fill="#FFFFFF">
            <g id="sw-30" transform="translate(915.000000, 379.000000)">
                <path d="M21.606,23.839 C22,23.152 21.768,22.277 21.082,21.883 C20.396,21.489 19.521,21.723 19.127,22.406 L13.914,31.172 L11.76,34.904 C11.217,35.848 10.684,36.109 9.84,36.109 C8.676,36.109 7.734,35.169 7.734,34.006 C7.734,32.95 8.516,32.084 9.529,31.934 L9.527,31.924 C10.271,31.828 10.731,30.974 10.547,30.217 C10.359,29.443 9.58,28.969 8.805,29.156 L8.805,29.158 C6.562,29.638 4.881,31.627 4.881,34.015 C4.881,36.757 7.104,38.979 9.846,38.979 C11.324,38.979 12.637,38.393 13.547,37.336 C14.598,38.935 16.725,39.461 18.408,38.495 C19.928,37.621 20.58,35.82 20.065,34.215 L20.066,34.213 C19.902,33.653 19.315,33.33 18.752,33.494 C18.203,33.654 17.826,34.259 18.037,34.769 L18.029,34.772 C18.307,35.473 18.039,36.287 17.367,36.673 C16.629,37.098 15.682,36.844 15.256,36.102 C14.988,35.634 14.932,35.242 15.187,34.695 C17.588,30.572 21.606,23.839 21.606,23.839" id="Fill-147"></path>
                <path d="M23.768,28.791 L23.768,28.791 C23.355,29.515 23.391,29.969 23.723,30.525 C24.174,31.291 25.16,31.545 25.926,31.091 C26.619,30.68 26.887,29.83 26.592,29.103 L26.598,29.101 C26.371,28.572 26.754,27.939 27.326,27.766 C27.908,27.588 28.523,27.916 28.701,28.498 L28.699,28.498 C29.258,30.16 28.602,32.046 27.031,32.973 C25.225,34.042 22.895,33.443 21.83,31.637 C21.129,30.456 21.086,29.094 21.748,27.922 C22.316,26.916 25.072,22.25 25.072,22.25 C25.369,21.724 26.039,21.536 26.566,21.832 C27.092,22.13 27.275,22.799 26.981,23.324 L23.768,28.791" id="Fill-148"></path>
                <path d="M32.883,14.367 C34.334,13.779 35.785,13.826 36.201,13.826 C38.281,13.826 40.797,15.647 40.797,18.637 C40.797,21.176 38.738,23.233 36.201,23.233 L31.014,23.233 C30.236,23.233 29.607,23.865 29.607,24.643 C29.607,25.418 30.236,26.047 31.014,26.047 L36.195,26.047 C40.367,26.047 43.75,22.666 43.75,18.492 C43.75,18.492 43.787,10.947 35.846,10.947 C34.129,3.877 27.516,3.52 25.658,4.018 C23.648,2.014 20.297,0.544 16.912,0.544 C10.195,0.544 4.691,5.736 4.195,12.327 C1.992,13.596 0.506,15.973 0.506,18.697 C0.506,22.757 3.797,26.047 7.856,26.047 L13.104,26.047 C13.742,26.047 14.34,25.359 14.34,24.64 C14.34,23.863 13.709,23.233 12.932,23.233 L8.492,23.233 C5.746,23.233 3.723,21.246 3.723,18.677 C3.723,16.578 5.053,14.736 7.137,14.108 C7.387,4.188 16.102,3.681 17.07,3.681 C19.949,3.681 22.807,5.094 24.644,7.184 C28.359,5.963 33.453,8.827 32.883,14.367" id="Fill-149"></path>
            </g>
        </g>
    </g>
</svg>