<?xml version="1.0" encoding="UTF-8"?>
<svg width="41px" height="42px" viewBox="0 0 41 42" version="1.1" xmlns="http://www.w3.org/2000/svg" xmlns:xlink="http://www.w3.org/1999/xlink">
    <!-- Generator: Sketch 52.5 (67469) - http://www.bohemiancoding.com/sketch -->
    <title>sw-01</title>
    <desc>Created with Sketch.</desc>
    <g id="Page-1" stroke="none" stroke-width="1" fill="none" fill-rule="evenodd">
        <g id="Weather-Icons-by-Daniel-VIerich" transform="translate(-64.000000, -209.000000)" fill="#FFFFFF">
            <g id="sw-01" transform="translate(64.000000, 209.000000)">
                <path d="M23.206,2.52 C23.206,1.532 22.405,0.73 21.417,0.73 C20.428,0.73 19.626,1.532 19.625,2.52 L19.626,6.495 C19.626,7.484 20.428,8.286 21.417,8.286 C22.405,8.286 23.206,7.484 23.206,6.495 L23.206,2.52" id="Fill-343"></path>
                <path d="M9.244,6.807 C8.544,6.108 7.411,6.108 6.712,6.807 C6.013,7.506 6.013,8.64 6.712,9.338 L9.523,12.149 C10.223,12.849 11.356,12.849 12.055,12.149 C12.754,11.45 12.754,10.317 12.055,9.619 L9.244,6.807" id="Fill-344"></path>
                <path d="M2.402,19.106 C1.414,19.106 0.612,19.908 0.612,20.896 C0.612,21.885 1.415,22.686 2.401,22.686 L6.378,22.686 C7.366,22.686 8.168,21.885 8.168,20.896 C8.168,19.908 7.366,19.106 6.378,19.106 L2.402,19.106" id="Fill-345"></path>
                <path d="M6.689,33.673 C5.99,34.373 5.99,35.506 6.689,36.206 C7.389,36.904 8.521,36.904 9.221,36.206 L12.032,33.394 C12.731,32.694 12.731,31.561 12.032,30.862 C11.334,30.164 10.199,30.164 9.501,30.863 L6.689,33.673" id="Fill-346"></path>
                <path d="M19.594,39.91 C19.593,40.899 20.395,41.701 21.383,41.701 C22.372,41.7 23.174,40.899 23.174,39.911 L23.174,35.935 C23.174,34.946 22.372,34.145 21.383,34.145 C20.395,34.145 19.594,34.947 19.594,35.934 L19.594,39.91" id="Fill-347"></path>
                <path d="M33.557,36.228 C34.255,36.928 35.388,36.928 36.087,36.229 C36.786,35.529 36.786,34.396 36.087,33.697 L33.276,30.886 C32.576,30.187 31.444,30.187 30.745,30.886 C30.045,31.585 30.046,32.718 30.745,33.417 L33.557,36.228" id="Fill-348"></path>
                <path d="M39.188,23.324 C40.177,23.324 40.978,22.523 40.978,21.534 C40.978,20.545 40.177,19.744 39.189,19.743 L35.212,19.744 C34.225,19.743 33.423,20.545 33.423,21.534 C33.423,22.523 34.225,23.324 35.212,23.323 L39.188,23.324" id="Fill-349"></path>
                <path d="M36.11,9.361 C36.81,8.663 36.81,7.529 36.11,6.83 C35.411,6.131 34.279,6.131 33.579,6.83 L30.768,9.642 C30.069,10.341 30.069,11.473 30.769,12.173 C31.467,12.872 32.601,12.872 33.299,12.172 L36.11,9.361" id="Fill-350"></path>
                <path d="M21.417,10.43 C15.271,10.43 10.29,15.411 10.29,21.557 C10.29,27.701 15.271,32.683 21.417,32.683 C27.562,32.683 32.542,27.701 32.542,21.557 C32.542,15.411 27.562,10.43 21.417,10.43 L21.417,10.43 Z M21.417,29.131 C17.232,29.131 13.841,25.74 13.841,21.557 C13.841,17.373 17.232,13.981 21.417,13.981 C25.6,13.981 28.992,17.373 28.992,21.557 C28.992,25.74 25.6,29.131 21.417,29.131 L21.417,29.131 Z" id="Fill-351"></path>
            </g>
        </g>
    </g>
</svg>