<?xml version="1.0" encoding="UTF-8"?>
<svg width="28px" height="29px" viewBox="0 0 28 29" version="1.1" xmlns="http://www.w3.org/2000/svg" xmlns:xlink="http://www.w3.org/1999/xlink">
    <!-- Generator: Sketch 52.5 (67469) - http://www.bohemiancoding.com/sketch -->
    <title>sw-02</title>
    <desc>Created with Sketch.</desc>
    <g id="Page-1" stroke="none" stroke-width="1" fill="none" fill-rule="evenodd">
        <g id="Weather-Icons-by-Daniel-VIerich" transform="translate(-165.000000, -215.000000)" fill="#FFFFFF">
            <g id="sw-02" transform="translate(165.000000, 215.000000)">
                <path d="M0.967,12.763 C0.195,20.7 5.933,27.785 13.867,28.595 C18.78,29.097 23.336,27.04 26.34,23.572 C29.125,20.375 26.01,20.392 24.87,20.274 C13.129,18.732 11.211,7.055 13.043,2.326 C13.626,0.052 12.422,0.042 11.467,0.317 C11.467,0.317 1.866,2.928 0.967,12.763 L0.967,12.763 Z M14.207,25.263 C8.113,24.641 3.678,19.195 4.299,13.102 C4.654,9.649 6.585,6.63 9.279,4.861 C7.952,12.684 13.891,21.823 22.384,22.716 C20.223,24.364 17.125,25.56 14.207,25.263 L14.207,25.263 Z" id="Fill-342"></path>
            </g>
        </g>
    </g>
</svg>