<?xml version="1.0" encoding="UTF-8"?>
<svg width="53px" height="28px" viewBox="0 0 53 28" version="1.1" xmlns="http://www.w3.org/2000/svg" xmlns:xlink="http://www.w3.org/1999/xlink">
    <!-- Generator: Sketch 52.5 (67469) - http://www.bohemiancoding.com/sketch -->
    <title>sw-06</title>
    <desc>Created with Sketch.</desc>
    <g id="Page-1" stroke="none" stroke-width="1" fill="none" fill-rule="evenodd">
        <g id="Weather-Icons-by-Daniel-VIerich" transform="translate(-533.000000, -213.000000)" fill="#FFFFFF">
            <g id="sw-06" transform="translate(533.000000, 213.000000)">
                <path d="M46.141,8.523 C44.854,3.223 39.894,2.955 38.504,3.328 C36.996,1.826 34.484,0.725 31.945,0.725 C28.789,0.725 25.988,2.256 24.246,4.616 C22.217,3.023 19.32,1.922 16.393,1.922 C9.69,1.922 4.197,7.104 3.703,13.681 C1.504,14.947 0.022,17.319 0.022,20.039 C0.022,24.09 3.305,27.374 7.355,27.374 L35.637,27.374 C39.799,27.374 43.172,24.003 43.178,19.843 L46.402,19.843 C49.529,19.843 52.066,17.307 52.066,14.18 C52.066,14.18 52.094,8.523 46.141,8.523 L46.141,8.523 Z M35.643,24.565 L7.99,24.565 C5.252,24.565 3.23,22.583 3.23,20.018 C3.23,17.924 4.56,16.086 6.641,15.458 C6.887,5.558 15.584,5.052 16.551,5.052 C19.424,5.052 22.275,6.461 24.109,8.547 C27.818,7.329 32.9,10.189 32.332,15.717 C33.779,15.131 35.228,15.176 35.643,15.176 C37.719,15.176 40.231,16.995 40.231,19.977 C40.231,22.512 38.176,24.565 35.643,24.565 L35.643,24.565 Z M46.406,17.733 L42.854,17.733 C42.238,15.505 40.457,12.304 35.289,12.304 C33.928,6.692 29.473,5.318 26.775,5.241 C28.807,3.229 31.606,3.076 32.064,3.076 C34.223,3.076 36.363,4.134 37.742,5.701 C40.527,4.786 44.346,6.934 43.918,11.087 C45.006,10.646 46.096,10.681 46.406,10.681 C47.965,10.681 49.852,12.047 49.852,14.287 C49.852,16.191 48.309,17.733 46.406,17.733 L46.406,17.733 Z" id="Fill-333"></path>
            </g>
        </g>
    </g>
</svg>