<?xml version="1.0" encoding="UTF-8"?>
<svg width="49px" height="26px" viewBox="0 0 49 26" version="1.1" xmlns="http://www.w3.org/2000/svg" xmlns:xlink="http://www.w3.org/1999/xlink">
    <!-- Generator: Sketch 52.5 (67469) - http://www.bohemiancoding.com/sketch -->
    <title>sw-10</title>
    <desc>Created with Sketch.</desc>
    <g id="Page-1" stroke="none" stroke-width="1" fill="none" fill-rule="evenodd">
        <g id="Weather-Icons-by-Daniel-VIerich" transform="translate(-911.000000, -218.000000)" fill="#FFFFFF">
            <g id="sw-10" transform="translate(911.000000, 218.000000)">
                <path d="M9.707,18.57 C10.791,18.57 11.674,17.69 11.674,16.604 C11.674,15.517 10.791,14.637 9.707,14.637 L2.43,14.637 C1.342,14.637 0.461,15.517 0.461,16.604 C0.461,17.69 1.342,18.57 2.43,18.569 L9.707,18.57" id="Fill-310"></path>
                <path d="M24.316,18.57 C25.4,18.57 26.281,17.69 26.281,16.604 C26.279,15.517 25.4,14.637 24.316,14.637 L17.037,14.637 C15.949,14.637 15.068,15.517 15.068,16.604 C15.068,17.69 15.949,18.57 17.037,18.569 L24.316,18.57" id="Fill-311"></path>
                <path d="M38.922,18.57 C40.01,18.57 40.891,17.69 40.891,16.604 C40.891,15.517 40.01,14.637 38.922,14.637 L31.643,14.637 C30.557,14.637 29.678,15.517 29.678,16.604 C29.678,17.69 30.557,18.57 31.643,18.569 L38.922,18.57" id="Fill-312"></path>
                <path d="M9.707,4.657 C10.791,4.657 11.674,3.777 11.674,2.691 C11.674,1.605 10.791,0.724 9.707,0.724 L2.43,0.724 C1.342,0.724 0.461,1.605 0.461,2.691 C0.461,3.777 1.342,4.657 2.43,4.656 L9.707,4.657" id="Fill-313"></path>
                <path d="M24.316,4.657 C25.4,4.657 26.281,3.777 26.281,2.691 C26.279,1.605 25.4,0.724 24.316,0.724 L17.037,0.724 C15.949,0.724 15.068,1.605 15.068,2.691 C15.068,3.777 15.949,4.657 17.037,4.656 L24.316,4.657" id="Fill-314"></path>
                <path d="M38.922,4.657 C40.01,4.657 40.891,3.777 40.891,2.691 C40.891,1.605 40.01,0.724 38.922,0.724 L31.643,0.724 C30.557,0.724 29.678,1.605 29.678,2.691 C29.678,3.777 30.557,4.657 31.643,4.656 L38.922,4.657" id="Fill-315"></path>
                <path d="M16.986,25.526 C18.07,25.526 18.951,24.646 18.951,23.56 C18.951,22.474 18.07,21.593 16.986,21.593 L9.707,21.593 C8.619,21.593 7.74,22.474 7.74,23.56 C7.74,24.646 8.619,25.526 9.707,25.525 L16.986,25.526" id="Fill-316"></path>
                <path d="M31.594,25.526 C32.68,25.526 33.56,24.646 33.56,23.56 C33.559,22.474 32.678,21.593 31.594,21.593 L24.316,21.593 C23.227,21.593 22.35,22.474 22.35,23.56 C22.35,24.646 23.227,25.526 24.316,25.525 L31.594,25.526" id="Fill-317"></path>
                <path d="M46.201,25.526 C47.287,25.526 48.168,24.646 48.168,23.56 C48.168,22.474 47.287,21.593 46.201,21.593 L38.922,21.593 C37.836,21.593 36.957,22.474 36.957,23.56 C36.957,24.646 37.836,25.526 38.922,25.525 L46.201,25.526" id="Fill-318"></path>
                <path d="M16.986,11.613 C18.07,11.613 18.951,10.733 18.951,9.647 C18.951,8.561 18.07,7.681 16.986,7.681 L9.707,7.681 C8.619,7.681 7.74,8.561 7.74,9.647 C7.74,10.733 8.619,11.613 9.707,11.612 L16.986,11.613" id="Fill-319"></path>
                <path d="M31.594,11.613 C32.68,11.613 33.56,10.733 33.56,9.647 C33.559,8.561 32.678,7.681 31.594,7.681 L24.316,7.681 C23.227,7.681 22.35,8.561 22.35,9.647 C22.35,10.733 23.227,11.613 24.316,11.612 L31.594,11.613" id="Fill-320"></path>
                <path d="M46.201,11.613 C47.287,11.613 48.168,10.733 48.168,9.647 C48.168,8.561 47.287,7.681 46.201,7.681 L38.922,7.681 C37.836,7.681 36.957,8.561 36.957,9.647 C36.957,10.733 37.836,11.613 38.922,11.612 L46.201,11.613" id="Fill-321"></path>
            </g>
        </g>
    </g>
</svg>