<?xml version="1.0" encoding="UTF-8"?>
<svg width="44px" height="38px" viewBox="0 0 44 38" version="1.1" xmlns="http://www.w3.org/2000/svg" xmlns:xlink="http://www.w3.org/1999/xlink">
    <!-- Generator: Sketch 52.5 (67469) - http://www.bohemiancoding.com/sketch -->
    <title>sw-09</title>
    <desc>Created with Sketch.</desc>
    <g id="Page-1" stroke="none" stroke-width="1" fill="none" fill-rule="evenodd">
        <g id="Weather-Icons-by-Daniel-VIerich" transform="translate(-816.000000, -214.000000)" fill="#FFFFFF">
            <g id="sw-09" transform="translate(816.000000, 214.000000)">
                <path d="M33.002,32.223 C33.828,32.223 34.498,31.553 34.498,30.727 C34.498,29.9 33.828,29.231 33.002,29.231 L5.227,29.231 C4.398,29.231 3.731,29.9 3.731,30.727 C3.731,31.553 4.398,32.223 5.227,32.223 L33.002,32.223" id="Fill-322"></path>
                <path d="M38.543,37.433 C39.369,37.433 40.039,36.763 40.039,35.936 C40.037,35.109 39.369,34.439 38.543,34.439 L10.766,34.439 C9.94,34.439 9.268,35.109 9.268,35.936 C9.268,36.763 9.94,37.433 10.766,37.432 L38.543,37.433" id="Fill-323"></path>
                <path d="M35.83,26.275 C40.008,26.275 43.391,22.891 43.391,18.715 C43.391,18.715 43.43,11.163 35.482,11.163 C33.764,4.087 27.144,3.729 25.287,4.227 C23.273,2.224 19.92,0.751 16.531,0.751 C9.81,0.751 4.301,5.949 3.805,12.544 C1.6,13.815 0.115,16.193 0.115,18.92 C0.115,22.983 3.406,26.275 7.469,26.275 L35.83,26.275 L35.83,26.275 Z M8.106,23.46 C5.357,23.46 3.332,21.472 3.332,18.899 C3.332,16.798 4.666,14.956 6.75,14.327 C7,4.398 15.721,3.891 16.69,3.891 C19.572,3.891 22.43,5.304 24.271,7.396 C27.988,6.174 33.086,9.042 32.516,14.586 C33.967,13.998 35.422,14.044 35.836,14.044 C37.92,14.044 40.438,15.868 40.438,18.858 C40.438,21.4 38.377,23.46 35.836,23.46 L8.106,23.46 L8.106,23.46 Z" id="Fill-324"></path>
            </g>
        </g>
    </g>
</svg>