<?xml version="1.0" encoding="UTF-8"?>
<svg width="44px" height="39px" viewBox="0 0 44 39" version="1.1" xmlns="http://www.w3.org/2000/svg" xmlns:xlink="http://www.w3.org/1999/xlink">
    <!-- Generator: Sketch 52.5 (67469) - http://www.bohemiancoding.com/sketch -->
    <title>sw-28</title>
    <desc>Created with Sketch.</desc>
    <g id="Page-1" stroke="none" stroke-width="1" fill="none" fill-rule="evenodd">
        <g id="Weather-Icons-by-Daniel-VIerich" transform="translate(-722.000000, -379.000000)" fill="#FFFFFF">
            <g id="sw-28" transform="translate(722.000000, 379.000000)">
                <path d="M26.391,33.873 C26.391,34.697 25.721,35.365 24.896,35.365 C24.072,35.365 23.402,34.697 23.402,33.873 C23.402,33.047 24.072,32.379 24.896,32.379 C25.721,32.379 26.391,33.047 26.391,33.873" id="Fill-159"></path>
                <path d="M20.766,36.94 C20.766,37.765 20.098,38.434 19.271,38.434 C18.449,38.434 17.779,37.765 17.779,36.94 C17.779,36.115 18.449,35.447 19.271,35.447 C20.098,35.447 20.766,36.115 20.766,36.94" id="Fill-160"></path>
                <path d="M19.762,22.5 C19.762,22.229 19.543,22.01 19.271,22.01 C19.002,22.01 18.781,22.229 18.781,22.5 L18.781,33.424 C18.781,33.693 19.002,33.913 19.271,33.913 C19.543,33.913 19.762,33.693 19.762,33.424 L19.762,22.5" id="Fill-161"></path>
                <path d="M25.387,22.5 C25.387,22.229 25.168,22.01 24.896,22.01 C24.625,22.01 24.406,22.229 24.406,22.5 L24.406,30.356 C24.406,30.626 24.625,30.845 24.896,30.845 C25.168,30.845 25.387,30.626 25.387,30.356 L25.387,22.5" id="Fill-162"></path>
                <path d="M32.738,14.367 C34.19,13.779 35.641,13.826 36.057,13.826 C38.139,13.826 40.652,15.647 40.652,18.636 C40.652,21.176 38.594,23.233 36.057,23.233 L29.996,23.233 C29.219,23.233 28.59,23.865 28.59,24.643 C28.59,25.418 29.219,26.047 29.996,26.047 L36.051,26.047 C40.223,26.047 43.606,22.666 43.606,18.492 C43.606,18.492 43.644,10.946 35.701,10.946 C33.986,3.877 27.371,3.52 25.516,4.018 C23.502,2.014 20.152,0.544 16.768,0.544 C10.051,0.544 4.547,5.736 4.053,12.327 C1.846,13.596 0.361,15.973 0.361,18.697 C0.361,22.757 3.652,26.047 7.713,26.047 L14.352,26.047 C14.988,26.047 15.586,25.357 15.586,24.64 C15.586,23.862 14.955,23.233 14.178,23.233 L8.348,23.233 C5.602,23.233 3.576,21.246 3.576,18.677 C3.576,16.578 4.91,14.736 6.994,14.108 C7.242,4.188 15.955,3.681 16.926,3.681 C19.805,3.681 22.662,5.093 24.498,7.183 C28.215,5.963 33.309,8.827 32.738,14.367" id="Fill-163"></path>
            </g>
        </g>
    </g>
</svg>