<?xml version="1.0" encoding="UTF-8"?>
<svg width="44px" height="39px" viewBox="0 0 44 39" version="1.1" xmlns="http://www.w3.org/2000/svg" xmlns:xlink="http://www.w3.org/1999/xlink">
    <!-- Generator: Sketch 52.5 (67469) - http://www.bohemiancoding.com/sketch -->
    <title>sw-29</title>
    <desc>Created with Sketch.</desc>
    <g id="Page-1" stroke="none" stroke-width="1" fill="none" fill-rule="evenodd">
        <g id="Weather-Icons-by-Daniel-VIerich" transform="translate(-816.000000, -379.000000)" fill="#FFFFFF">
            <g id="sw-29" transform="translate(816.000000, 379.000000)">
                <path d="M26.139,36.94 C26.139,37.766 25.473,38.434 24.646,38.434 C23.822,38.434 23.154,37.766 23.154,36.94 C23.154,36.115 23.822,35.447 24.646,35.447 C25.473,35.447 26.139,36.115 26.139,36.94" id="Fill-150"></path>
                <path d="M20.516,33.873 C20.516,34.697 19.848,35.365 19.023,35.365 C18.199,35.365 17.529,34.697 17.529,33.873 C17.529,33.048 18.199,32.38 19.023,32.38 C19.848,32.38 20.516,33.048 20.516,33.873" id="Fill-151"></path>
                <path d="M31.764,33.873 C31.764,34.697 31.094,35.365 30.271,35.365 C29.445,35.365 28.779,34.697 28.779,33.873 C28.779,33.048 29.445,32.38 30.271,32.38 C31.094,32.38 31.764,33.048 31.764,33.873" id="Fill-152"></path>
                <path d="M19.514,22.5 C19.514,22.229 19.293,22.011 19.023,22.011 C18.754,22.011 18.533,22.229 18.533,22.5 L18.533,30.356 C18.533,30.626 18.754,30.846 19.023,30.846 C19.293,30.846 19.514,30.626 19.514,30.356 L19.514,22.5" id="Fill-153"></path>
                <path d="M14.893,36.94 C14.893,37.766 14.225,38.434 13.398,38.434 C12.576,38.434 11.906,37.766 11.906,36.94 C11.906,36.115 12.576,35.447 13.398,35.447 C14.225,35.447 14.893,36.115 14.893,36.94" id="Fill-154"></path>
                <path d="M13.889,22.5 C13.889,22.229 13.672,22.011 13.398,22.011 C13.129,22.011 12.908,22.229 12.908,22.5 L12.908,33.424 C12.908,33.693 13.129,33.913 13.398,33.913 C13.672,33.913 13.889,33.693 13.889,33.424 L13.889,22.5" id="Fill-155"></path>
                <path d="M25.137,22.5 C25.137,22.229 24.918,22.011 24.646,22.011 C24.377,22.011 24.156,22.229 24.156,22.5 L24.156,33.424 C24.156,33.693 24.377,33.913 24.646,33.913 C24.918,33.913 25.137,33.693 25.137,33.424 L25.137,22.5" id="Fill-156"></path>
                <path d="M30.76,22.5 C30.76,22.229 30.541,22.011 30.271,22.011 C30,22.011 29.781,22.229 29.781,22.5 L29.781,30.356 C29.781,30.626 30,30.846 30.271,30.846 C30.541,30.846 30.76,30.626 30.76,30.356 L30.76,22.5" id="Fill-157"></path>
                <path d="M32.49,14.367 C33.941,13.779 35.393,13.826 35.809,13.826 C37.889,13.826 40.404,15.647 40.404,18.637 C40.404,21.176 38.346,23.233 35.809,23.233 L35.348,23.233 C34.57,23.233 33.941,23.865 33.941,24.643 C33.941,25.418 34.57,26.047 35.348,26.047 L35.803,26.047 C39.975,26.047 43.357,22.666 43.357,18.492 C43.357,18.492 43.396,10.947 35.453,10.947 C33.736,3.877 27.121,3.52 25.266,4.018 C23.254,2.014 19.906,0.544 16.518,0.544 C9.801,0.544 4.297,5.736 3.801,12.327 C1.598,13.596 0.115,15.973 0.115,18.697 C0.115,22.757 3.404,26.047 7.461,26.047 L8.482,26.047 C9.121,26.047 9.719,25.359 9.719,24.64 C9.719,23.863 9.09,23.233 8.31,23.233 L8.1,23.233 C5.354,23.233 3.328,21.246 3.328,18.677 C3.328,16.578 4.662,14.736 6.744,14.108 C6.992,4.188 15.709,3.681 16.678,3.681 C19.557,3.681 22.414,5.094 24.25,7.183 C27.967,5.963 33.061,8.827 32.49,14.367" id="Fill-158"></path>
            </g>
        </g>
    </g>
</svg>