<?xml version="1.0" encoding="UTF-8"?>
<svg width="44px" height="38px" viewBox="0 0 44 38" version="1.1" xmlns="http://www.w3.org/2000/svg" xmlns:xlink="http://www.w3.org/1999/xlink">
    <!-- Generator: Sketch 52.5 (67469) - http://www.bohemiancoding.com/sketch -->
    <title>sw-08</title>
    <desc>Created with Sketch.</desc>
    <g id="Page-1" stroke="none" stroke-width="1" fill="none" fill-rule="evenodd">
        <g id="Weather-Icons-by-Daniel-VIerich" transform="translate(-722.000000, -214.000000)" fill="#FFFFFF">
            <g id="sw-08" transform="translate(722.000000, 214.000000)">
                <path d="M10.988,32.145 C11.81,32.145 12.481,31.476 12.481,30.651 C12.481,29.827 11.81,29.159 10.988,29.159 L5.463,29.159 C4.639,29.159 3.969,29.827 3.969,30.651 C3.969,31.476 4.639,32.145 5.463,32.144 L10.988,32.145" id="Fill-325"></path>
                <path d="M22.078,32.145 C22.902,32.145 23.57,31.476 23.57,30.651 C23.57,29.827 22.902,29.159 22.078,29.159 L16.553,29.159 C15.729,29.159 15.059,29.827 15.059,30.651 C15.059,31.476 15.729,32.145 16.553,32.144 L22.078,32.145" id="Fill-326"></path>
                <path d="M33.168,32.145 C33.992,32.145 34.66,31.476 34.66,30.651 C34.66,29.827 33.992,29.159 33.168,29.159 L27.643,29.159 C26.818,29.159 26.15,29.827 26.15,30.651 C26.15,31.476 26.818,32.145 27.643,32.144 L33.168,32.145" id="Fill-327"></path>
                <path d="M16.514,37.34 C17.338,37.34 18.006,36.672 18.006,35.848 C18.006,35.023 17.338,34.355 16.514,34.355 L10.988,34.355 C10.162,34.355 9.494,35.023 9.494,35.848 C9.494,36.672 10.162,37.34 10.988,37.339 L16.514,37.34" id="Fill-328"></path>
                <path d="M27.606,37.34 C28.428,37.34 29.098,36.672 29.098,35.848 C29.096,35.023 28.428,34.355 27.606,34.355 L22.078,34.355 C21.252,34.355 20.586,35.023 20.586,35.848 C20.586,36.672 21.252,37.34 22.078,37.339 L27.606,37.34" id="Fill-329"></path>
                <path d="M38.693,37.34 C39.518,37.34 40.187,36.672 40.187,35.848 C40.187,35.023 39.518,34.355 38.693,34.355 L33.168,34.355 C32.344,34.355 31.676,35.023 31.676,35.848 C31.676,36.672 32.344,37.34 33.168,37.339 L38.693,37.34" id="Fill-330"></path>
                <path d="M35.99,26.211 C40.154,26.211 43.531,22.835 43.531,18.67 C43.531,18.67 43.568,11.137 35.641,11.137 C33.926,4.079 27.324,3.721 25.473,4.219 C23.463,2.219 20.119,0.751 16.736,0.751 C10.033,0.751 4.539,5.935 4.045,12.515 C1.844,13.781 0.361,16.154 0.361,18.874 C0.361,22.928 3.646,26.211 7.699,26.211 L35.99,26.211 L35.99,26.211 Z M8.332,23.402 C5.592,23.402 3.57,21.419 3.57,18.854 C3.57,16.758 4.902,14.92 6.982,14.292 C7.229,4.389 15.93,3.883 16.896,3.883 C19.769,3.883 22.621,5.292 24.457,7.379 C28.166,6.16 33.252,9.021 32.684,14.552 C34.131,13.965 35.58,14.01 35.996,14.01 C38.072,14.01 40.584,15.83 40.584,18.813 C40.584,21.348 38.527,23.402 35.996,23.402 L8.332,23.402 L8.332,23.402 Z" id="Fill-331"></path>
            </g>
        </g>
    </g>
</svg>