<?xml version="1.0" encoding="UTF-8"?>
<svg width="44px" height="44px" viewBox="0 0 44 44" version="1.1" xmlns="http://www.w3.org/2000/svg" xmlns:xlink="http://www.w3.org/1999/xlink">
    <!-- Generator: Sketch 52.5 (67469) - http://www.bohemiancoding.com/sketch -->
    <title>sw-23</title>
    <desc>Created with Sketch.</desc>
    <g id="Page-1" stroke="none" stroke-width="1" fill="none" fill-rule="evenodd">
        <g id="Weather-Icons-by-Daniel-VIerich" transform="translate(-247.000000, -379.000000)" fill="#FFFFFF">
            <g id="sw-23" transform="translate(247.000000, 379.000000)">
                <path d="M33.028,14.367 C34.479,13.779 35.93,13.826 36.345,13.826 C38.427,13.826 40.942,15.647 40.942,18.636 C40.942,21.176 38.883,23.233 36.345,23.233 L36.144,23.233 C35.368,23.233 34.737,23.864 34.737,24.643 C34.737,25.418 35.368,26.047 36.144,26.047 L36.339,26.047 C40.512,26.047 43.895,22.666 43.895,18.492 C43.895,18.492 43.933,10.946 35.992,10.946 C34.275,3.877 27.66,3.519 25.804,4.018 C23.791,2.014 20.443,0.544 17.054,0.544 C10.339,0.544 4.835,5.736 4.34,12.327 C2.137,13.596 0.651,15.973 0.651,18.697 C0.651,22.757 3.942,26.047 7.999,26.047 L8.993,26.047 C9.629,26.047 10.228,25.357 10.228,24.64 C10.228,23.862 9.598,23.233 8.82,23.233 L8.636,23.233 C5.891,23.233 3.867,21.246 3.867,18.676 C3.867,16.578 5.2,14.736 7.283,14.108 C7.531,4.186 16.246,3.68 17.214,3.68 C20.093,3.68 22.95,5.093 24.788,7.183 C28.504,5.962 33.597,8.827 33.028,14.367" id="Fill-182"></path>
                <path d="M17.45,23.918 C17.862,23.205 17.618,22.291 16.903,21.879 C16.19,21.467 15.276,21.711 14.864,22.425 L8.676,32.714 C8.264,33.428 8.509,34.341 9.222,34.754 C9.937,35.166 10.849,34.921 11.26,34.207 L17.45,23.918" id="Fill-183"></path>
                <path d="M24.484,23.918 C24.896,23.205 24.65,22.291 23.935,21.879 C23.222,21.467 22.308,21.711 21.896,22.425 L11.216,40.85 C10.805,41.565 11.048,42.477 11.763,42.889 C12.479,43.301 13.39,43.057 13.802,42.344 L24.484,23.918" id="Fill-184"></path>
                <path d="M31.516,23.918 C31.93,23.205 31.683,22.291 30.969,21.879 C30.255,21.467 29.343,21.711 28.929,22.425 L22.743,33.073 C22.331,33.787 22.575,34.701 23.288,35.113 C24.002,35.525 24.915,35.281 25.329,34.566 L31.516,23.918" id="Fill-185"></path>
            </g>
        </g>
    </g>
</svg>