<?xml version="1.0" encoding="UTF-8"?>
<svg width="45px" height="35px" viewBox="0 0 45 35" version="1.1" xmlns="http://www.w3.org/2000/svg" xmlns:xlink="http://www.w3.org/1999/xlink">
    <!-- Generator: Sketch 52.5 (67469) - http://www.bohemiancoding.com/sketch -->
    <title>sw-24</title>
    <desc>Created with Sketch.</desc>
    <g id="Page-1" stroke="none" stroke-width="1" fill="none" fill-rule="evenodd">
        <g id="Weather-Icons-by-Daniel-VIerich" transform="translate(-342.000000, -379.000000)" fill="#FFFFFF">
            <g id="sw-24" transform="translate(342.000000, 379.000000)">
                <path d="M33.184,14.367 C34.635,13.779 36.087,13.826 36.502,13.826 C38.582,13.826 41.099,15.647 41.099,18.636 C41.099,21.176 39.04,23.233 36.502,23.233 L33.723,23.233 C32.945,23.233 32.315,23.865 32.315,24.643 C32.315,25.418 32.945,26.047 33.723,26.047 L36.497,26.047 C40.669,26.047 44.051,22.666 44.051,18.492 C44.051,18.492 44.089,10.946 36.149,10.946 C34.43,3.877 27.815,3.519 25.96,4.018 C23.948,2.014 20.599,0.544 17.212,0.544 C10.495,0.544 4.993,5.736 4.497,12.327 C2.293,13.596 0.808,15.973 0.808,18.697 C0.808,22.757 4.099,26.047 8.157,26.047 L10.912,26.047 C11.547,26.047 12.145,25.357 12.145,24.64 C12.145,23.862 11.514,23.233 10.739,23.233 L8.792,23.233 C6.047,23.233 4.024,21.246 4.024,18.677 C4.024,16.578 5.356,14.736 7.439,14.107 C7.687,4.188 16.403,3.681 17.372,3.681 C20.25,3.681 23.106,5.093 24.944,7.183 C28.661,5.963 33.754,8.827 33.184,14.367" id="Fill-178"></path>
                <path d="M20.335,25.172 L19.389,24.625 L20.335,24.078 C20.662,23.891 20.774,23.472 20.585,23.147 C20.397,22.818 19.979,22.709 19.653,22.895 L18.706,23.442 L18.706,22.35 C18.706,21.973 18.4,21.668 18.023,21.668 C17.647,21.668 17.341,21.973 17.341,22.35 L17.341,23.442 L16.395,22.895 C16.069,22.707 15.651,22.819 15.463,23.147 C15.274,23.472 15.385,23.891 15.711,24.078 L16.659,24.625 L15.711,25.17 C15.385,25.359 15.274,25.776 15.463,26.103 C15.651,26.43 16.069,26.541 16.395,26.354 L17.341,25.807 L17.341,26.9 C17.341,27.277 17.647,27.582 18.023,27.582 C18.4,27.582 18.706,27.277 18.706,26.9 L18.706,25.807 L19.653,26.354 C19.979,26.541 20.397,26.43 20.585,26.103 C20.774,25.777 20.662,25.36 20.335,25.172" id="Fill-179"></path>
                <path d="M28.81,25.172 L27.863,24.625 L28.81,24.078 C29.136,23.891 29.248,23.472 29.06,23.147 C28.871,22.818 28.454,22.709 28.127,22.895 L27.181,23.442 L27.181,22.35 C27.181,21.973 26.876,21.668 26.499,21.668 C26.122,21.668 25.817,21.973 25.817,22.35 L25.817,23.442 L24.87,22.895 C24.542,22.707 24.126,22.819 23.937,23.147 C23.749,23.472 23.861,23.891 24.187,24.078 L25.134,24.625 L24.187,25.17 C23.861,25.359 23.749,25.776 23.937,26.103 C24.126,26.43 24.542,26.541 24.869,26.354 L25.817,25.807 L25.817,26.9 C25.817,27.277 26.122,27.582 26.499,27.582 C26.876,27.582 27.181,27.277 27.181,26.9 L27.181,25.807 L28.127,26.354 C28.454,26.541 28.871,26.43 29.06,26.103 C29.248,25.777 29.136,25.36 28.81,25.172" id="Fill-180"></path>
                <path d="M24.756,32.541 L23.81,31.994 L24.756,31.447 C25.083,31.259 25.195,30.842 25.006,30.514 C24.819,30.188 24.401,30.077 24.074,30.266 L23.127,30.811 L23.127,29.718 C23.127,29.341 22.822,29.036 22.446,29.036 C22.068,29.036 21.763,29.341 21.763,29.718 L21.763,30.813 L20.817,30.266 C20.49,30.076 20.072,30.189 19.884,30.514 C19.696,30.842 19.807,31.259 20.133,31.447 L21.081,31.992 L20.133,32.54 C19.807,32.728 19.696,33.145 19.884,33.472 C20.072,33.799 20.49,33.91 20.815,33.722 L21.763,33.176 L21.763,34.269 C21.763,34.647 22.068,34.951 22.446,34.951 C22.822,34.951 23.127,34.647 23.127,34.269 L23.127,33.176 L24.074,33.722 C24.401,33.91 24.819,33.799 25.006,33.472 C25.195,33.147 25.083,32.728 24.756,32.541" id="Fill-181"></path>
            </g>
        </g>
    </g>
</svg>