<?xml version="1.0" encoding="UTF-8"?>
<svg width="45px" height="27px" viewBox="0 0 45 27" version="1.1" xmlns="http://www.w3.org/2000/svg" xmlns:xlink="http://www.w3.org/1999/xlink">
    <!-- Generator: Sketch 52.5 (67469) - http://www.bohemiancoding.com/sketch -->
    <title>sw-04</title>
    <desc>Created with Sketch.</desc>
    <g id="Page-1" stroke="none" stroke-width="1" fill="none" fill-rule="evenodd">
        <g id="Weather-Icons-by-Daniel-VIerich" transform="translate(-342.000000, -214.000000)" fill="#FFFFFF">
            <g id="sw-04" transform="translate(342.000000, 214.000000)">
                <path d="M36.58,26.374 C40.762,26.374 44.151,22.983 44.151,18.802 C44.151,18.802 44.19,11.238 36.23,11.238 C34.509,4.151 27.879,3.792 26.02,4.292 C24.002,2.285 20.645,0.811 17.25,0.811 C10.519,0.811 5.001,6.016 4.505,12.621 C2.297,13.894 0.808,16.276 0.808,19.006 C0.808,23.076 4.106,26.374 8.174,26.374 L36.58,26.374 L36.58,26.374 Z M8.812,23.553 C6.06,23.553 4.031,21.563 4.031,18.986 C4.031,16.882 5.367,15.037 7.455,14.407 C7.703,4.463 16.44,3.955 17.411,3.955 C20.295,3.955 23.159,5.37 25,7.465 C28.726,6.242 33.831,9.114 33.26,14.667 C34.713,14.077 36.169,14.123 36.585,14.123 C38.671,14.123 41.192,15.95 41.192,18.945 C41.192,21.491 39.127,23.553 36.585,23.553 L8.812,23.553 L8.812,23.553 Z" id="Fill-335"></path>
            </g>
        </g>
    </g>
</svg>