<?xml version="1.0" encoding="UTF-8"?>
<svg width="43px" height="40px" viewBox="0 0 43 40" version="1.1" xmlns="http://www.w3.org/2000/svg" xmlns:xlink="http://www.w3.org/1999/xlink">
    <!-- Generator: Sketch 52.5 (67469) - http://www.bohemiancoding.com/sketch -->
    <title>histcopy</title>
    <desc>Created with Sketch.</desc>
    <g id="Page-1" stroke="none" stroke-width="1" fill="none" fill-rule="evenodd">
        <path d="M36.3356118,29.5896342 C39.1855724,29.5896342 41.512,29.0693525 41.512,28.4277495 C41.512,27.7869242 39.1855724,27.2674202 36.3356118,27.2674202 L17.1798553,27.2674202 C14.3229605,27.2674202 12,27.7869242 12,28.4277495 C12,29.0693525 14.3229605,29.5896342 17.1798553,29.5888565 L36.3356118,29.5896342" id="Fill-325" fill="#FFFFFF"></path>
        <path d="M37.1551741,39.3910394 C40.1127085,39.3910394 42.511,38.6099523 42.511,37.6464556 C42.511,36.6817896 40.1127085,35.9007026 37.1551741,35.9007026 L17.3486561,35.9007026 C14.3947066,35.9007026 12,36.6817896 12,37.6464556 C12,38.6099523 14.3947066,39.3910394 17.3486561,39.3898701 L37.1551741,39.3910394" id="Fill-330" fill="#FFFFFF"></path>
        <path d="M35.4886933,26.8937174 C39.6362954,26.8937174 42.9999968,23.3276062 42.9999968,18.9280645 C42.9999968,18.9280645 43.0368511,10.9708621 35.1410676,10.9708621 C33.4328213,3.51540815 26.8568199,3.13724826 25.0131091,3.66329191 C23.0110245,1.55066682 19.6801931,0 16.3105154,0 C9.63391173,0 4.16154707,5.47592423 3.66949243,12.4264608 C1.47715996,13.7637525 0,16.2703821 0,19.1435522 C0,23.4258433 3.27206369,26.8937174 7.30910301,26.8937174 L35.4886933,26.8937174 Z M8.76019884,24.5551333 C6.02123521,24.5551333 4,22.4168726 4,19.6510437 C4,17.3909355 5.33149619,15.4090277 7.41070946,14.7318579 C7.65761604,4.05349389 16.355325,3.50787618 17.3209596,3.50787618 C20.192873,3.50787618 23.0437942,5.02719506 24.8790998,7.27759854 C28.5866969,5.96315588 33.6707732,9.04816036 33.1029881,15.0122148 C34.5494408,14.3792551 35.9978927,14.4277785 36.4137353,14.4277785 C38.4889501,14.4277785 41,16.3902769 41,19.6068335 C41,22.3403136 38.943778,24.5551333 36.4137353,24.5551333 L8.76019884,24.5551333 Z" id="Fill-331" fill="#FFFFFF" fill-rule="nonzero"></path>
        <path d="M24.5062492,34.4903368 C27.2699168,34.4903368 29.511,33.7092497 29.511,32.745753 C29.511,31.7810871 27.2699168,31 24.5062492,31 L5.99805099,31 C3.23773329,31 1,31.7810871 1,32.745753 C1,33.7092497 3.23773329,34.4903368 5.99805099,34.4891675 L24.5062492,34.4903368" id="Fill-330" fill="#FFFFFF"></path>
    </g>
</svg>