<?xml version="1.0" encoding="UTF-8"?>
<svg width="52px" height="35px" viewBox="0 0 52 35" version="1.1" xmlns="http://www.w3.org/2000/svg" xmlns:xlink="http://www.w3.org/1999/xlink">
    <!-- Generator: Sketch 52.5 (67469) - http://www.bohemiancoding.com/sketch -->
    <title>sw-07</title>
    <desc>Created with Sketch.</desc>
    <g id="Page-1" stroke="none" stroke-width="1" fill="none" fill-rule="evenodd">
        <g id="Weather-Icons-by-Daniel-VIerich" transform="translate(-627.000000, -206.000000)" fill="#FFFFFF">
            <g id="sw-07" transform="translate(627.000000, 206.000000)">
                <path d="M36.676,34.374 C40.877,34.374 44.283,30.968 44.283,26.765 C44.283,26.765 44.287,25.786 43.926,24.531 C46.723,24.002 49.217,22.511 51.039,20.406 C53.408,17.686 50.707,17.745 49.789,17.601 C44.363,16.934 37.033,11.281 39.729,2.335 C40.312,0.413 39.199,0.393 38.389,0.626 C38.389,0.626 29.926,2.503 29.396,12.234 C27.975,11.94 26.721,12.009 26.065,12.186 C24.037,10.169 20.664,8.688 17.254,8.688 C10.488,8.688 4.945,13.918 4.447,20.555 C2.227,21.833 0.732,24.227 0.732,26.971 C0.732,31.06 4.045,34.374 8.133,34.374 L36.676,34.374 L36.676,34.374 Z M8.773,31.54 C6.008,31.54 3.969,29.539 3.969,26.951 C3.969,24.836 5.312,22.982 7.41,22.349 C7.66,12.357 16.437,11.847 17.412,11.847 C20.312,11.847 23.19,13.269 25.041,15.374 C28.783,14.145 33.912,17.031 33.34,22.61 C34.801,22.018 36.262,22.064 36.68,22.064 C38.777,22.064 41.309,23.899 41.309,26.91 C41.309,29.467 39.236,31.54 36.68,31.54 L8.773,31.54 L8.773,31.54 Z M42.56,21.813 C41.414,20.366 39.502,19.165 36.324,19.165 C35.602,16.191 34.02,14.397 32.285,13.352 C31.85,8.335 34.975,5.441 36.527,4.49 C35.283,10.938 40.451,18.917 47.676,19.677 C46.287,20.735 44.445,21.574 42.56,21.813 L42.56,21.813 Z" id="Fill-332"></path>
            </g>
        </g>
    </g>
</svg>