<?xml version="1.0" encoding="UTF-8"?>
<svg width="56px" height="35px" viewBox="0 0 56 35" version="1.1" xmlns="http://www.w3.org/2000/svg" xmlns:xlink="http://www.w3.org/1999/xlink">
    <!-- Generator: Sketch 52.5 (67469) - http://www.bohemiancoding.com/sketch -->
    <title>sw-03</title>
    <desc>Created with Sketch.</desc>
    <g id="Page-1" stroke="none" stroke-width="1" fill="none" fill-rule="evenodd">
        <g id="Weather-Icons-by-Daniel-VIerich" transform="translate(-247.000000, -206.000000)" fill="#FFFFFF">
            <g id="sw-03" transform="translate(247.000000, 206.000000)">
                <path d="M37.902,7.189 C38.734,7.189 39.405,6.516 39.405,5.686 L39.405,2.35 C39.405,1.521 38.734,0.848 37.902,0.848 C37.074,0.848 36.401,1.521 36.4,2.35 L36.401,5.686 C36.401,6.516 37.074,7.189 37.902,7.189" id="Fill-336"></path>
                <path d="M27.924,10.431 C28.509,11.017 29.461,11.017 30.048,10.431 C30.634,9.844 30.634,8.893 30.048,8.307 L27.689,5.948 C27.103,5.36 26.151,5.36 25.565,5.947 C24.978,6.534 24.978,7.485 25.565,8.071 L27.924,10.431" id="Fill-337"></path>
                <path d="M47.854,26.152 C47.268,25.566 46.317,25.566 45.73,26.152 C45.144,26.738 45.144,27.689 45.73,28.276 L48.089,30.635 C48.675,31.222 49.627,31.222 50.212,30.635 C50.799,30.048 50.799,29.097 50.212,28.511 L47.854,26.152" id="Fill-338"></path>
                <path d="M53.831,16.802 L50.494,16.802 C49.664,16.802 48.991,17.476 48.991,18.305 C48.991,19.135 49.664,19.807 50.494,19.807 L53.831,19.807 C54.659,19.807 55.332,19.135 55.332,18.305 C55.332,17.476 54.659,16.802 53.831,16.802" id="Fill-339"></path>
                <path d="M47.874,10.45 L50.232,8.092 C50.82,7.504 50.82,6.553 50.232,5.967 C49.647,5.38 48.695,5.38 48.108,5.967 L45.751,8.326 C45.164,8.912 45.164,9.863 45.751,10.451 C46.336,11.036 47.288,11.036 47.874,10.45" id="Fill-340"></path>
                <path d="M47.24,18.324 C47.24,13.168 43.059,8.987 37.902,8.987 C34.876,8.987 32.187,10.431 30.481,12.665 C28.573,11.987 26.74,12.037 25.895,12.265 C23.875,10.254 20.513,8.778 17.115,8.778 C10.375,8.778 4.85,13.99 4.354,20.604 C2.142,21.877 0.651,24.263 0.651,26.998 C0.651,31.072 3.953,34.374 8.028,34.374 L36.467,34.374 C40.655,34.374 44.048,30.979 44.048,26.792 C44.048,26.792 44.051,26.256 43.905,25.47 C45.943,23.757 47.24,21.192 47.24,18.324 L47.24,18.324 Z M36.474,31.549 L8.667,31.549 C5.911,31.549 3.877,29.556 3.877,26.977 C3.877,24.87 5.216,23.023 7.307,22.391 C7.555,12.435 16.302,11.927 17.274,11.927 C20.163,11.927 23.031,13.344 24.874,15.441 C28.603,14.216 33.715,17.092 33.145,22.651 C34.599,22.061 36.056,22.107 36.474,22.107 C38.561,22.107 41.086,23.935 41.086,26.935 C41.086,29.484 39.02,31.549 36.474,31.549 L36.474,31.549 Z M36.118,19.219 C35.544,16.851 34.42,15.235 33.112,14.149 C34.277,12.813 35.991,11.967 37.902,11.967 C41.414,11.967 44.258,14.814 44.258,18.324 C44.258,19.893 43.688,21.33 42.745,22.44 C40.51,18.905 36.118,19.219 36.118,19.219 L36.118,19.219 Z" id="Fill-341"></path>
            </g>
        </g>
    </g>
</svg>