<?xml version="1.0" encoding="UTF-8"?>
<svg width="44px" height="35px" viewBox="0 0 44 35" version="1.1" xmlns="http://www.w3.org/2000/svg" xmlns:xlink="http://www.w3.org/1999/xlink">
    <!-- Generator: Sketch 52.5 (67469) - http://www.bohemiancoding.com/sketch -->
    <title>sw-21</title>
    <desc>Created with Sketch.</desc>
    <g id="Page-1" stroke="none" stroke-width="1" fill="none" fill-rule="evenodd">
        <g id="Weather-Icons-by-Daniel-VIerich" transform="translate(-60.000000, -379.000000)" fill="#FFFFFF">
            <g id="sw-21" transform="translate(60.000000, 379.000000)">
                <path d="M32.376,14.367 C33.827,13.779 35.279,13.826 35.694,13.826 C37.775,13.826 40.291,15.647 40.291,18.636 C40.291,21.176 38.231,23.233 35.694,23.233 L35.488,23.233 C34.711,23.233 34.081,23.864 34.081,24.643 C34.081,25.418 34.711,26.047 35.488,26.047 L35.688,26.047 C39.861,26.047 43.243,22.666 43.243,18.492 C43.243,18.492 43.281,10.946 35.34,10.946 C33.623,3.877 27.008,3.519 25.152,4.018 C23.14,2.014 19.79,0.544 16.404,0.544 C9.687,0.544 4.185,5.736 3.689,12.327 C1.485,13.596 0,15.973 0,18.697 C0,22.758 3.29,26.047 7.349,26.047 L8.347,26.047 C8.984,26.047 9.581,25.359 9.581,24.64 C9.581,23.863 8.952,23.233 8.175,23.233 L7.984,23.233 C5.24,23.233 3.214,21.246 3.214,18.677 C3.214,16.578 4.548,14.736 6.631,14.108 C6.88,4.186 15.594,3.68 16.563,3.68 C19.441,3.68 22.299,5.093 24.136,7.183 C27.852,5.962 32.947,8.827 32.376,14.367" id="Fill-194"></path>
                <path d="M16.154,23.918 C16.567,23.203 16.321,22.29 15.608,21.878 C14.894,21.466 13.98,21.711 13.568,22.424 L11.91,25.297 C11.498,26.01 11.742,26.924 12.456,27.336 C13.171,27.749 14.083,27.504 14.497,26.79 L16.154,23.918" id="Fill-195"></path>
                <path d="M23.893,23.918 C24.305,23.203 24.06,22.29 23.346,21.878 C22.631,21.466 21.719,21.711 21.307,22.424 L19.648,25.297 C19.236,26.01 19.48,26.924 20.195,27.336 C20.91,27.749 21.822,27.504 22.234,26.79 L23.893,23.918" id="Fill-196"></path>
                <path d="M17.042,31.387 C17.455,30.673 17.21,29.76 16.496,29.348 C15.782,28.935 14.869,29.181 14.456,29.894 L12.799,32.766 C12.386,33.48 12.631,34.395 13.345,34.806 C14.06,35.218 14.973,34.973 15.385,34.26 L17.042,31.387" id="Fill-197"></path>
                <path d="M31.631,23.918 C32.043,23.203 31.799,22.29 31.084,21.878 C30.371,21.466 29.456,21.711 29.044,22.424 L27.386,25.297 C26.974,26.01 27.219,26.924 27.933,27.336 C28.647,27.749 29.56,27.504 29.972,26.79 L31.631,23.918" id="Fill-198"></path>
                <path d="M24.781,31.387 C25.193,30.673 24.949,29.76 24.234,29.348 C23.519,28.935 22.607,29.181 22.194,29.894 L20.536,32.766 C20.124,33.48 20.369,34.395 21.083,34.806 C21.797,35.218 22.711,34.973 23.122,34.26 L24.781,31.387" id="Fill-199"></path>
            </g>
        </g>
    </g>
</svg>