<?xml version="1.0" encoding="UTF-8"?>
<svg width="50px" height="35px" viewBox="0 0 50 35" version="1.1" xmlns="http://www.w3.org/2000/svg" xmlns:xlink="http://www.w3.org/1999/xlink">
    <!-- Generator: Sketch 52.5 (67469) - http://www.bohemiancoding.com/sketch -->
    <title>Untitled 2</title>
    <desc>Created with Sketch.</desc>
    <g id="Page-1" stroke="none" stroke-width="1" fill="none" fill-rule="evenodd">
        <g id="Group" transform="translate(4.000000, 4.000000)" fill="#FFFFFF" fill-rule="nonzero">
            <path d="M30.1328426,6.7581898 C28.9244906,5.74366768 26.9116389,5 24.8771523,5 C22.348267,5 20.1038412,6.0341101 18.7079863,7.62816616 C17.0821598,6.55217832 14.7608098,5.80851064 12.4154209,5.80851064 C7.04434414,5.80851064 2.64283369,9.3086795 2.24699423,13.7510976 C0.484947717,14.6062141 -0.810900023,16.8430177 0.598651372,18.5715905 C2.6610168,21.1007277 10.6492627,22.3055668 14.2786891,19.7362158 C18.1920395,17.2337163 20.1487147,16.1341429 20.1487147,16.4374955 C20.1487147,20.4747843 22.7109869,22.6622858 27.8355314,23 C31.1705189,23 33.8732852,20.7230665 33.8780929,17.913205 L36.4614662,17.913205 C38.967114,17.913205 40.9999981,16.2002702 40.9999981,14.0881459 C40.9999981,14.0881459 41.0224343,10.2671395 36.2523284,10.2671395 C35.2210624,6.68726781 31.2466419,6.50624789 30.1328426,6.7581898 Z" id="Fill-333-path"></path>
            <path d="M24.5785267,1.36748096 C23.7533106,0.578408195 22.3786802,0 20.9892747,0 C19.2622311,0 17.7294525,0.804307854 16.7761857,2.04412924 C15.6658652,1.2072498 14.080553,0.628841608 12.478824,0.628841608 C8.81077161,0.628841608 5.80486203,3.35119517 5.53453264,6.80640925 C4.33118381,7.47149987 3.44621462,9.21123599 4.40883508,10.5556815 C5.81727977,12.5227882 11.2726672,13.4598853 13.7512999,11.4615012 C16.4238318,9.51511267 17.7600978,8.65988889 17.7600978,8.89582984 C17.7600978,12.0359433 19.5099423,13.7373334 23.0096312,14 C25.2871837,14 27.1329752,12.2290517 27.1362586,10.0436039 L28.9005135,10.0436039 C30.6116876,10.0436039 31.9999987,8.71132125 31.9999987,7.06855792 C31.9999987,7.06855792 32.015321,4.09666404 28.7576877,4.09666404 C28.0534085,1.31231941 25.3391701,1.17152614 24.5785267,1.36748096 Z" id="Fill-333-path-Copy-3"></path>
            <path d="M25.4040972,14 L3.73070998,14 C1.58476798,14 0,12.5779737 0,10.7376621 C0,9.23527904 1.04240426,7.91656844 2.67341423,7.46599703 C2.86621983,0.363040025 9.68260317,0 10.4405016,0 C12.6922516,0 14.9267587,1.0109158 16.3641793,2.50755906 C19.2711548,1.63368011 23.2542364,3.68564547 22.8090592,7.65182186 C23.9431637,7.23138421 25.0788357,7.26367037 25.4040972,7.26367037 C27.0311883,7.26367037 29,8.56874904 29,10.7082458 C29,12.5270333 27.3893679,14 25.4040972,14 Z" id="Fill-333-path"></path>
            <path d="M19.4616113,25.3100842 L16.6997761,25.2942173 C16.2108567,23.7484825 14.8117525,21.5237004 10.7934068,21.5006148 C9.71010088,17.6079906 6.24000613,16.6365376 4.14184934,16.5711598 C5.71283042,15.1868427 7.8884917,15.093387 8.2446067,15.0954329 C9.92332349,15.1050772 11.5919931,15.8473459 12.6712256,16.9387189 C14.8325974,16.3174838 17.8116319,17.8221232 17.4973947,20.6963374 C18.3413923,20.3957866 19.1890712,20.4248946 19.4301098,20.4262794 C20.6423004,20.4332435 22.1156272,21.3876849 22.1256334,22.9389785 C22.1341386,24.2575781 20.9412769,25.3185849 19.4616113,25.3100842 Z" id="Fill-333-path" transform="translate(13.133764, 20.202768) rotate(177.000000) translate(-13.133764, -20.202768) "></path>
            <path d="M30.6780638,23.4029322 L28.1899966,23.3137094 C27.7025423,21.5835314 26.3746004,19.0752532 22.7545747,18.9454381 C21.6602679,14.5921655 18.5051634,13.4228077 16.6133629,13.2957761 C17.9861772,11.7983504 19.9429477,11.7509072 20.2637627,11.7624118 C21.776076,11.8166437 23.3016564,12.6846523 24.3069651,13.9252799 C26.2347884,13.2910376 28.9638365,15.0401026 28.768355,18.2255674 C29.5193881,17.9134962 30.2837789,17.9678125 30.5009244,17.9755994 C31.5929561,18.0147599 32.9490544,19.1134552 33.005321,20.8373952 C33.0531477,22.3027443 32.011057,23.4507337 30.6780638,23.4029322 Z" id="Fill-333-path-Copy" transform="translate(24.810133, 17.582824) rotate(108.000000) translate(-24.810133, -17.582824) "></path>
            <path d="M25.7113732,23.2710953 L23.223306,23.1818725 C22.7358517,21.4516945 21.4079098,18.9434163 17.7878841,18.8136012 C16.6935773,14.4603286 13.5384728,13.2909708 11.6466723,13.1639392 C13.0194865,11.6665134 14.9762571,11.6190703 15.297072,11.6305748 C16.8093854,11.6848068 18.3349657,12.5528154 19.3402745,13.793443 C21.2680978,13.1592007 23.9971459,14.9082657 23.8016644,18.0937305 C24.5526975,17.7816593 25.3170883,17.8359756 25.5342338,17.8437625 C26.6262655,17.882923 27.9823638,18.9816182 28.0386304,20.7055583 C28.086457,22.1709074 27.0443664,23.3188968 25.7113732,23.2710953 Z" id="Fill-333-path-Copy-2" transform="translate(19.843443, 17.450987) rotate(108.000000) translate(-19.843443, -17.450987) "></path>
        </g>
    </g>
</svg>