<?xml version="1.0" encoding="UTF-8"?>
<svg width="45px" height="35px" viewBox="0 0 45 35" version="1.1" xmlns="http://www.w3.org/2000/svg" xmlns:xlink="http://www.w3.org/1999/xlink">
    <!-- Generator: Sketch 52.5 (67469) - http://www.bohemiancoding.com/sketch -->
    <title>sw-25</title>
    <desc>Created with Sketch.</desc>
    <g id="Page-1" stroke="none" stroke-width="1" fill="none" fill-rule="evenodd">
        <g id="Weather-Icons-by-Daniel-VIerich" transform="translate(-437.000000, -379.000000)" fill="#FFFFFF">
            <g id="sw-25" transform="translate(437.000000, 379.000000)">
                <path d="M24.845,25.172 L23.899,24.626 L24.845,24.08 C25.173,23.891 25.285,23.474 25.096,23.147 C24.907,22.82 24.489,22.709 24.164,22.897 L23.216,23.443 L23.216,22.352 C23.216,21.974 22.913,21.668 22.535,21.668 C22.157,21.668 21.852,21.974 21.852,22.352 L21.852,23.443 L20.905,22.897 C20.578,22.709 20.163,22.82 19.972,23.147 C19.785,23.474 19.896,23.891 20.223,24.08 L21.168,24.626 L20.223,25.172 C19.896,25.36 19.785,25.777 19.972,26.105 C20.163,26.432 20.578,26.543 20.905,26.354 L21.852,25.807 L21.852,26.9 C21.852,27.279 22.157,27.584 22.535,27.584 C22.913,27.584 23.216,27.279 23.216,26.9 L23.216,25.807 L24.164,26.354 C24.489,26.543 24.907,26.432 25.096,26.105 C25.285,25.779 25.173,25.361 24.845,25.172" id="Fill-172"></path>
                <path d="M32.264,25.172 L31.316,24.626 L32.264,24.08 C32.59,23.891 32.703,23.474 32.513,23.147 C32.326,22.82 31.908,22.709 31.58,22.897 L30.633,23.443 L30.633,22.352 C30.633,21.974 30.33,21.668 29.952,21.668 C29.575,21.668 29.268,21.974 29.268,22.352 L29.268,23.443 L28.323,22.897 C27.998,22.709 27.58,22.82 27.39,23.147 C27.203,23.474 27.315,23.891 27.64,24.08 L28.585,24.626 L27.64,25.172 C27.315,25.36 27.203,25.777 27.39,26.105 C27.579,26.432 27.998,26.543 28.323,26.354 L29.268,25.807 L29.268,26.9 C29.268,27.279 29.575,27.584 29.952,27.584 C30.33,27.584 30.633,27.279 30.633,26.9 L30.633,25.807 L31.58,26.354 C31.908,26.543 32.326,26.432 32.513,26.105 C32.703,25.779 32.59,25.361 32.264,25.172" id="Fill-173"></path>
                <path d="M17.428,25.172 L16.482,24.626 L17.428,24.08 C17.753,23.891 17.868,23.474 17.678,23.147 C17.49,22.82 17.074,22.709 16.746,22.897 L15.799,23.443 L15.799,22.352 C15.799,21.974 15.495,21.668 15.116,21.668 C14.739,21.668 14.435,21.974 14.435,22.352 L14.435,23.443 L13.488,22.897 C13.161,22.709 12.744,22.82 12.555,23.147 C12.367,23.474 12.479,23.891 12.804,24.08 L13.751,24.626 L12.804,25.172 C12.479,25.36 12.367,25.777 12.555,26.105 C12.744,26.432 13.161,26.543 13.488,26.354 L14.435,25.807 L14.435,26.9 C14.435,27.279 14.739,27.584 15.116,27.584 C15.495,27.584 15.799,27.279 15.799,26.9 L15.799,25.807 L16.746,26.354 C17.074,26.543 17.49,26.432 17.678,26.105 C17.868,25.779 17.753,25.361 17.428,25.172" id="Fill-174"></path>
                <path d="M21.001,31.838 L20.052,31.29 L21.001,30.744 C21.327,30.555 21.439,30.138 21.25,29.81 C21.061,29.484 20.642,29.373 20.317,29.562 L19.372,30.109 L19.372,29.016 C19.372,28.639 19.065,28.333 18.687,28.333 C18.312,28.333 18.006,28.639 18.006,29.016 L18.006,30.109 L17.06,29.562 C16.734,29.373 16.314,29.485 16.126,29.81 C15.938,30.138 16.051,30.555 16.376,30.744 L17.322,31.29 L16.376,31.837 C16.051,32.025 15.938,32.442 16.126,32.77 C16.314,33.096 16.734,33.207 17.06,33.02 L18.006,32.472 L18.006,33.565 C18.006,33.943 18.312,34.248 18.687,34.248 C19.065,34.248 19.372,33.943 19.372,33.565 L19.372,32.473 L20.317,33.02 C20.642,33.207 21.061,33.096 21.25,32.77 C21.439,32.443 21.327,32.025 21.001,31.838" id="Fill-175"></path>
                <path d="M28.097,31.838 L27.15,31.29 L28.097,30.744 C28.424,30.555 28.537,30.138 28.347,29.81 C28.16,29.484 27.742,29.373 27.415,29.562 L26.469,30.109 L26.469,29.016 C26.469,28.639 26.163,28.333 25.787,28.333 C25.408,28.333 25.103,28.639 25.103,29.016 L25.103,30.109 L24.156,29.562 C23.831,29.373 23.414,29.485 23.223,29.81 C23.036,30.138 23.147,30.555 23.473,30.744 L24.419,31.29 L23.473,31.837 C23.147,32.025 23.036,32.442 23.223,32.77 C23.414,33.096 23.831,33.207 24.156,33.02 L25.103,32.472 L25.103,33.565 C25.103,33.943 25.408,34.248 25.787,34.248 C26.163,34.248 26.469,33.943 26.469,33.565 L26.469,32.473 L27.415,33.02 C27.742,33.207 28.16,33.096 28.347,32.77 C28.537,32.443 28.424,32.025 28.097,31.838" id="Fill-176"></path>
                <path d="M33.169,14.367 C34.62,13.779 36.073,13.826 36.487,13.826 C38.568,13.826 41.082,15.647 41.082,18.636 C41.082,21.176 39.025,23.233 36.487,23.233 L36.272,23.233 C35.496,23.233 34.865,23.865 34.865,24.643 C34.865,25.418 35.496,26.047 36.272,26.047 L36.481,26.047 C40.654,26.047 44.037,22.666 44.037,18.493 C44.037,18.493 44.074,10.946 36.132,10.946 C34.415,3.877 27.801,3.519 25.945,4.018 C23.934,2.016 20.583,0.544 17.197,0.544 C10.48,0.544 4.978,5.737 4.481,12.327 C2.277,13.596 0.793,15.973 0.793,18.697 C0.793,22.758 4.082,26.047 8.143,26.047 L9.168,26.047 C9.805,26.047 10.404,25.359 10.404,24.64 C10.404,23.863 9.772,23.233 8.998,23.233 L8.778,23.233 C6.033,23.233 4.006,21.247 4.006,18.677 C4.006,16.578 5.34,14.736 7.424,14.108 C7.672,4.188 16.386,3.681 17.355,3.681 C20.234,3.681 23.091,5.093 24.928,7.183 C28.644,5.963 33.74,8.827 33.169,14.367" id="Fill-177"></path>
            </g>
        </g>
    </g>
</svg>