<?xml version="1.0" encoding="UTF-8"?>
<svg width="56px" height="43px" viewBox="0 0 56 43" version="1.1" xmlns="http://www.w3.org/2000/svg" xmlns:xlink="http://www.w3.org/1999/xlink">
    <!-- Generator: Sketch 52.5 (67469) - http://www.bohemiancoding.com/sketch -->
    <title>sw-15</title>
    <desc>Created with Sketch.</desc>
    <g id="Page-1" stroke="none" stroke-width="1" fill="none" fill-rule="evenodd">
        <g id="Weather-Icons-by-Daniel-VIerich" transform="translate(-437.000000, -290.000000)" fill="#FFFFFF">
            <g id="sw-15" transform="translate(437.000000, 290.000000)">
                <path d="M39.41,2.018 C39.41,1.193 38.741,0.527 37.918,0.527 C37.094,0.527 36.428,1.193 36.427,2.018 L36.428,5.329 C36.428,6.153 37.094,6.82 37.918,6.82 C38.741,6.82 39.41,6.153 39.41,5.329 L39.41,2.018" id="Fill-251"></path>
                <path d="M27.778,5.588 C27.196,5.006 26.251,5.006 25.669,5.588 C25.087,6.171 25.087,7.115 25.669,7.697 L28.011,10.039 C28.594,10.621 29.54,10.621 30.122,10.039 C30.702,9.455 30.702,8.513 30.12,7.93 L27.778,5.588" id="Fill-252"></path>
                <path d="M48.03,30.096 C48.612,30.679 49.556,30.679 50.138,30.097 C50.72,29.514 50.72,28.569 50.138,27.988 L47.796,25.647 C47.215,25.065 46.271,25.065 45.689,25.647 C45.106,26.228 45.106,27.172 45.689,27.754 L48.03,30.096" id="Fill-253"></path>
                <path d="M53.729,19.347 C54.551,19.347 55.219,18.68 55.219,17.856 C55.219,17.032 54.551,16.365 53.729,16.365 L50.418,16.365 C49.595,16.365 48.926,17.032 48.926,17.856 C48.926,18.68 49.595,19.347 50.418,19.347 L53.729,19.347" id="Fill-254"></path>
                <path d="M50.159,7.717 C50.742,7.135 50.742,6.19 50.159,5.608 C49.576,5.025 48.632,5.025 48.05,5.608 L45.708,7.95 C45.125,8.532 45.125,9.477 45.708,10.059 C46.29,10.641 47.234,10.641 47.815,10.059 L50.159,7.717" id="Fill-255"></path>
                <path d="M47.185,17.875 C47.185,12.756 43.037,8.606 37.918,8.606 C34.892,8.606 32.206,10.057 30.515,12.299 C28.614,11.622 26.789,11.672 25.945,11.898 C23.933,9.896 20.582,8.425 17.198,8.425 C10.48,8.425 4.977,13.617 4.482,20.208 C2.277,21.477 0.793,23.854 0.793,26.578 C0.793,30.639 4.082,33.93 8.142,33.93 L9.168,33.93 C9.867,33.93 10.404,33.239 10.404,32.521 C10.404,31.744 9.772,31.115 8.997,31.115 L8.778,31.115 C6.033,31.115 4.006,29.128 4.006,26.559 C4.006,24.459 5.34,22.618 7.424,21.989 C7.672,12.068 16.386,11.563 17.355,11.563 C20.234,11.563 23.091,12.975 24.928,15.065 C28.644,13.844 33.739,16.709 33.169,22.248 C34.62,21.661 36.071,21.707 36.487,21.707 C38.568,21.707 41.082,23.529 41.082,26.518 C41.082,29.057 39.025,31.115 36.487,31.115 L36.272,31.115 C35.496,31.115 34.864,31.746 34.864,32.523 C34.864,33.3 35.496,33.93 36.272,33.93 L36.481,33.93 C40.653,33.93 44.036,30.547 44.036,26.374 C44.036,26.374 44.039,25.803 43.877,24.973 C45.9,23.273 47.185,20.725 47.185,17.875 L47.185,17.875 Z M42.705,21.986 C41.625,20.326 39.669,18.828 36.131,18.828 C35.558,16.464 34.436,14.85 33.127,13.768 C34.284,12.419 36,11.565 37.918,11.565 C41.403,11.565 44.228,14.39 44.228,17.875 C44.228,19.445 43.654,20.882 42.705,21.986 L42.705,21.986 Z" id="Fill-256"></path>
                <path d="M24.845,33.053 L23.899,32.507 L24.845,31.961 C25.173,31.772 25.285,31.354 25.096,31.028 C24.907,30.701 24.489,30.59 24.164,30.778 L23.216,31.325 L23.216,30.232 C23.216,29.855 22.913,29.549 22.535,29.549 C22.157,29.549 21.851,29.855 21.851,30.232 L21.851,31.325 L20.905,30.778 C20.578,30.59 20.163,30.702 19.972,31.028 C19.785,31.354 19.896,31.772 20.222,31.961 L21.168,32.507 L20.222,33.053 C19.896,33.242 19.785,33.659 19.972,33.986 C20.163,34.312 20.578,34.424 20.905,34.236 L21.851,33.69 L21.851,34.782 C21.851,35.16 22.157,35.465 22.535,35.465 C22.913,35.465 23.216,35.16 23.216,34.782 L23.216,33.69 L24.164,34.236 C24.489,34.424 24.907,34.312 25.096,33.986 C25.285,33.659 25.173,33.242 24.845,33.053" id="Fill-257"></path>
                <path d="M32.264,33.053 L31.316,32.507 L32.264,31.961 C32.59,31.772 32.703,31.354 32.512,31.028 C32.326,30.701 31.908,30.59 31.58,30.778 L30.633,31.325 L30.633,30.232 C30.633,29.855 30.329,29.549 29.952,29.549 C29.575,29.549 29.268,29.855 29.268,30.232 L29.268,31.325 L28.323,30.778 C27.998,30.59 27.58,30.702 27.39,31.028 C27.202,31.354 27.315,31.772 27.639,31.961 L28.585,32.507 L27.639,33.053 C27.315,33.242 27.202,33.659 27.39,33.986 C27.578,34.312 27.998,34.424 28.323,34.236 L29.268,33.69 L29.268,34.782 C29.268,35.16 29.575,35.465 29.952,35.465 C30.329,35.465 30.633,35.16 30.633,34.782 L30.633,33.69 L31.58,34.236 C31.908,34.424 32.326,34.312 32.512,33.986 C32.703,33.659 32.59,33.242 32.264,33.053" id="Fill-258"></path>
                <path d="M17.428,33.053 L16.481,32.507 L17.428,31.961 C17.753,31.772 17.868,31.354 17.677,31.028 C17.49,30.701 17.072,30.59 16.746,30.778 L15.799,31.325 L15.799,30.232 C15.799,29.855 15.495,29.549 15.116,29.549 C14.739,29.549 14.435,29.855 14.435,30.232 L14.435,31.325 L13.488,30.778 C13.161,30.59 12.744,30.702 12.555,31.028 C12.367,31.354 12.479,31.772 12.804,31.961 L13.751,32.507 L12.804,33.053 C12.479,33.242 12.367,33.659 12.555,33.986 C12.744,34.312 13.161,34.424 13.488,34.236 L14.435,33.69 L14.435,34.782 C14.435,35.16 14.739,35.465 15.116,35.465 C15.495,35.465 15.799,35.16 15.799,34.782 L15.799,33.69 L16.746,34.236 C17.072,34.424 17.49,34.312 17.677,33.986 C17.868,33.659 17.753,33.242 17.428,33.053" id="Fill-259"></path>
                <path d="M21,39.719 L20.052,39.172 L21,38.626 C21.327,38.438 21.438,38.02 21.25,37.692 C21.061,37.366 20.642,37.256 20.317,37.443 L19.372,37.99 L19.372,36.897 C19.372,36.52 19.065,36.215 18.687,36.215 C18.312,36.215 18.006,36.52 18.006,36.897 L18.006,37.99 L17.059,37.443 C16.734,37.254 16.314,37.367 16.126,37.692 C15.938,38.02 16.051,38.438 16.376,38.626 L17.322,39.172 L16.376,39.719 C16.051,39.906 15.938,40.324 16.126,40.65 C16.314,40.978 16.734,41.09 17.059,40.9 L18.006,40.354 L18.006,41.447 C18.006,41.824 18.312,42.129 18.687,42.129 C19.065,42.129 19.372,41.824 19.372,41.447 L19.372,40.354 L20.317,40.9 C20.642,41.09 21.061,40.978 21.25,40.65 C21.438,40.324 21.327,39.906 21,39.719" id="Fill-260"></path>
                <path d="M28.097,39.719 L27.149,39.172 L28.097,38.626 C28.424,38.438 28.537,38.02 28.347,37.692 C28.159,37.366 27.741,37.256 27.415,37.443 L26.469,37.99 L26.469,36.897 C26.469,36.52 26.163,36.215 25.787,36.215 C25.407,36.215 25.103,36.52 25.103,36.897 L25.103,37.99 L24.156,37.443 C23.831,37.254 23.413,37.367 23.223,37.692 C23.036,38.02 23.147,38.438 23.473,38.626 L24.418,39.172 L23.473,39.719 C23.147,39.906 23.036,40.324 23.223,40.65 C23.413,40.978 23.831,41.09 24.156,40.9 L25.103,40.354 L25.103,41.447 C25.103,41.824 25.407,42.129 25.787,42.129 C26.163,42.129 26.469,41.824 26.469,41.447 L26.469,40.354 L27.415,40.9 C27.741,41.09 28.159,40.978 28.347,40.65 C28.537,40.324 28.424,39.906 28.097,39.719" id="Fill-261"></path>
            </g>
        </g>
    </g>
</svg>