<?xml version="1.0" encoding="UTF-8"?>
<svg width="56px" height="43px" viewBox="0 0 56 43" version="1.1" xmlns="http://www.w3.org/2000/svg" xmlns:xlink="http://www.w3.org/1999/xlink">
    <!-- Generator: Sketch 52.5 (67469) - http://www.bohemiancoding.com/sketch -->
    <title>sw-14</title>
    <desc>Created with Sketch.</desc>
    <g id="Page-1" stroke="none" stroke-width="1" fill="none" fill-rule="evenodd">
        <g id="Weather-Icons-by-Daniel-VIerich" transform="translate(-342.000000, -290.000000)" fill="#FFFFFF">
            <g id="sw-14" transform="translate(342.000000, 290.000000)">
                <path d="M39.423,2.017 C39.423,1.193 38.758,0.527 37.933,0.527 C37.111,0.527 36.443,1.193 36.442,2.017 L36.443,5.328 C36.443,6.153 37.111,6.82 37.933,6.82 C38.758,6.82 39.423,6.153 39.423,5.328 L39.423,2.017" id="Fill-262"></path>
                <path d="M27.795,5.588 C27.212,5.006 26.267,5.006 25.685,5.588 C25.104,6.17 25.104,7.115 25.685,7.697 L28.027,10.038 C28.609,10.621 29.554,10.621 30.135,10.038 C30.717,9.455 30.717,8.513 30.135,7.93 L27.795,5.588" id="Fill-263"></path>
                <path d="M48.046,30.096 C48.627,30.679 49.573,30.679 50.155,30.097 C50.736,29.514 50.736,28.569 50.155,27.988 L47.813,25.647 C47.23,25.064 46.288,25.064 45.705,25.647 C45.123,26.228 45.123,27.172 45.705,27.754 L48.046,30.096" id="Fill-264"></path>
                <path d="M53.744,19.347 C54.569,19.347 55.238,18.68 55.238,17.856 C55.238,17.032 54.569,16.365 53.745,16.365 L50.433,16.365 C49.61,16.365 48.941,17.032 48.941,17.856 C48.941,18.68 49.61,19.347 50.433,19.346 L53.744,19.347" id="Fill-265"></path>
                <path d="M50.172,7.717 C50.756,7.135 50.756,6.19 50.172,5.607 C49.591,5.025 48.648,5.025 48.065,5.607 L45.724,7.95 C45.141,8.531 45.141,9.477 45.724,10.059 C46.307,10.641 47.25,10.641 47.831,10.059 L50.172,7.717" id="Fill-266"></path>
                <path d="M47.202,17.873 C47.202,12.756 43.053,8.605 37.933,8.605 C34.909,8.605 32.222,10.057 30.531,12.299 C28.627,11.622 26.804,11.672 25.96,11.898 C23.948,9.896 20.599,8.425 17.212,8.425 C10.495,8.425 4.993,13.617 4.497,20.208 C2.293,21.477 0.808,23.854 0.808,26.578 C0.808,30.639 4.099,33.929 8.157,33.929 L10.912,33.929 C11.609,33.929 12.144,33.238 12.144,32.521 C12.144,31.744 11.514,31.115 10.739,31.115 L8.794,31.115 C6.047,31.115 4.024,29.128 4.024,26.559 C4.024,24.459 5.356,22.618 7.439,21.989 C7.687,12.068 16.403,11.563 17.372,11.563 C20.25,11.563 23.107,12.974 24.944,15.065 C28.661,13.844 33.754,16.709 33.184,22.248 C34.635,21.66 36.087,21.707 36.502,21.707 C38.582,21.707 41.099,23.529 41.099,26.518 C41.099,29.057 39.04,31.115 36.502,31.115 L33.726,31.115 C32.949,31.115 32.32,31.746 32.32,32.523 C32.32,33.299 32.949,33.929 33.726,33.929 L36.497,33.929 C40.669,33.929 44.051,30.547 44.051,26.374 C44.051,26.374 44.054,25.803 43.892,24.973 C45.917,23.273 47.202,20.725 47.202,17.873 L47.202,17.873 Z M42.719,21.986 C41.639,20.326 39.685,18.828 36.148,18.828 C35.574,16.463 34.452,14.85 33.143,13.768 C34.299,12.418 36.017,11.565 37.933,11.565 C41.419,11.565 44.243,14.389 44.243,17.873 C44.243,19.445 43.669,20.882 42.719,21.986 L42.719,21.986 Z" id="Fill-267"></path>
                <path d="M20.335,33.053 L19.389,32.506 L20.335,31.961 C20.662,31.772 20.774,31.354 20.585,31.027 C20.397,30.701 19.979,30.59 19.653,30.777 L18.706,31.324 L18.706,30.23 C18.706,29.854 18.4,29.549 18.023,29.549 C17.647,29.549 17.341,29.854 17.341,30.23 L17.341,31.324 L16.395,30.777 C16.069,30.589 15.651,30.701 15.463,31.027 C15.274,31.354 15.385,31.772 15.711,31.961 L16.659,32.506 L15.711,33.053 C15.385,33.242 15.274,33.658 15.463,33.985 C15.651,34.312 16.069,34.424 16.395,34.235 L17.341,33.688 L17.341,34.781 C17.341,35.159 17.647,35.465 18.023,35.465 C18.4,35.465 18.706,35.159 18.706,34.781 L18.706,33.69 L19.653,34.235 C19.979,34.424 20.397,34.312 20.585,33.985 C20.774,33.659 20.662,33.242 20.335,33.053" id="Fill-268"></path>
                <path d="M28.81,33.053 L27.863,32.506 L28.81,31.961 C29.136,31.772 29.248,31.354 29.06,31.027 C28.871,30.701 28.454,30.59 28.127,30.777 L27.181,31.324 L27.181,30.23 C27.181,29.854 26.875,29.549 26.499,29.549 C26.122,29.549 25.815,29.854 25.815,30.23 L25.815,31.324 L24.872,30.777 C24.542,30.589 24.126,30.701 23.937,31.027 C23.748,31.354 23.861,31.772 24.187,31.961 L25.134,32.506 L24.187,33.053 C23.861,33.242 23.748,33.658 23.937,33.985 C24.126,34.312 24.542,34.424 24.87,34.235 L25.815,33.688 L25.815,34.781 C25.815,35.159 26.122,35.465 26.499,35.465 C26.875,35.465 27.181,35.159 27.181,34.781 L27.181,33.69 L28.127,34.235 C28.454,34.424 28.871,34.312 29.06,33.985 C29.248,33.659 29.136,33.242 28.81,33.053" id="Fill-269"></path>
                <path d="M24.756,40.422 L23.809,39.875 L24.756,39.329 C25.083,39.141 25.195,38.723 25.007,38.397 C24.818,38.069 24.401,37.958 24.075,38.147 L23.127,38.693 L23.127,37.6 C23.127,37.224 22.822,36.918 22.446,36.918 C22.068,36.918 21.763,37.224 21.763,37.6 L21.763,38.693 L20.817,38.147 C20.49,37.957 20.072,38.07 19.884,38.397 C19.696,38.723 19.806,39.141 20.133,39.329 L21.081,39.875 L20.133,40.422 C19.806,40.609 19.696,41.027 19.884,41.354 C20.072,41.682 20.49,41.792 20.816,41.603 L21.763,41.058 L21.763,42.15 C21.763,42.527 22.068,42.834 22.446,42.834 C22.822,42.834 23.127,42.527 23.127,42.15 L23.127,41.058 L24.075,41.603 C24.401,41.792 24.818,41.682 25.007,41.354 C25.195,41.027 25.083,40.609 24.756,40.422" id="Fill-270"></path>
            </g>
        </g>
    </g>
</svg>