<?xml version="1.0" encoding="UTF-8"?>
<svg width="55px" height="43px" viewBox="0 0 55 43" version="1.1" xmlns="http://www.w3.org/2000/svg" xmlns:xlink="http://www.w3.org/1999/xlink">
    <!-- Generator: Sketch 52.5 (67469) - http://www.bohemiancoding.com/sketch -->
    <title>sw-16</title>
    <desc>Created with Sketch.</desc>
    <g id="Page-1" stroke="none" stroke-width="1" fill="none" fill-rule="evenodd">
        <g id="Weather-Icons-by-Daniel-VIerich" transform="translate(-533.000000, -290.000000)" fill="#FFFFFF">
            <g id="sw-16" transform="translate(533.000000, 290.000000)">
                <path d="M38.639,2.018 C38.639,1.193 37.971,0.527 37.147,0.527 C36.324,0.527 35.656,1.194 35.656,2.018 L35.656,5.33 C35.656,6.153 36.324,6.82 37.147,6.82 C37.971,6.82 38.639,6.153 38.639,5.33 L38.639,2.018" id="Fill-240"></path>
                <path d="M27.008,5.588 C26.426,5.007 25.481,5.007 24.9,5.588 C24.318,6.171 24.318,7.115 24.9,7.697 L27.24,10.039 C27.822,10.621 28.768,10.621 29.35,10.039 C29.932,9.456 29.932,8.514 29.35,7.931 L27.008,5.588" id="Fill-241"></path>
                <path d="M47.26,30.096 C47.842,30.68 48.785,30.68 49.367,30.097 C49.951,29.514 49.951,28.57 49.367,27.988 L47.027,25.647 C46.443,25.064 45.5,25.064 44.916,25.647 C44.336,26.228 44.336,27.172 44.916,27.754 L47.26,30.096" id="Fill-242"></path>
                <path d="M49.387,7.717 C49.971,7.135 49.971,6.19 49.387,5.608 C48.805,5.025 47.861,5.025 47.277,5.608 L44.938,7.95 C44.354,8.531 44.354,9.477 44.938,10.059 C45.519,10.641 46.463,10.641 47.045,10.059 L49.387,7.717" id="Fill-244"></path>
                <path d="M46.416,17.875 C46.416,12.756 42.266,8.606 37.147,8.606 C34.123,8.606 31.435,10.057 29.744,12.299 C27.842,11.622 26.016,11.672 25.174,11.898 C23.162,9.896 19.812,8.426 16.426,8.426 C9.709,8.426 4.205,13.618 3.711,20.209 C1.506,21.477 0.022,23.854 0.022,26.578 C0.022,30.639 3.312,33.929 7.369,33.929 L8.396,33.929 C9.096,33.929 9.631,33.239 9.631,32.522 C9.631,31.744 9.002,31.115 8.225,31.115 L8.008,31.115 C5.262,31.115 3.236,29.129 3.236,26.559 C3.236,24.459 4.57,22.619 6.652,21.989 C6.9,12.068 15.617,11.563 16.584,11.563 C19.465,11.563 22.32,12.975 24.156,15.065 C27.873,13.844 32.967,16.709 32.398,22.248 C33.85,21.661 35.301,21.707 35.717,21.707 C37.797,21.707 40.312,23.529 40.312,26.518 C40.312,29.058 38.252,31.115 35.717,31.115 L35.502,31.115 C34.725,31.115 34.094,31.746 34.094,32.523 C34.094,33.3 34.725,33.929 35.502,33.929 L35.711,33.929 C39.883,33.929 43.264,30.547 43.264,26.374 C43.264,26.374 43.268,25.803 43.106,24.974 C45.129,23.273 46.416,20.725 46.416,17.875 L46.416,17.875 Z M41.934,21.986 C40.852,20.325 38.9,18.828 35.361,18.828 C34.787,16.464 33.664,14.85 32.357,13.768 C33.514,12.419 35.231,11.565 37.147,11.565 C40.631,11.565 43.457,14.391 43.457,17.875 C43.457,19.445 42.883,20.883 41.934,21.986 L41.934,21.986 Z" id="Fill-245"></path>
                <path d="M16.695,31.817 C17.107,31.103 16.863,30.19 16.15,29.777 C15.435,29.365 14.523,29.61 14.111,30.324 L12.451,33.196 C12.039,33.91 12.283,34.824 12.998,35.235 C13.713,35.648 14.625,35.404 15.039,34.689 L16.695,31.817" id="Fill-246"></path>
                <path d="M31.566,31.817 C31.979,31.103 31.734,30.19 31.019,29.777 C30.305,29.365 29.393,29.61 28.981,30.324 L27.324,33.196 C26.908,33.91 27.154,34.824 27.867,35.235 C28.582,35.648 29.496,35.404 29.908,34.689 L31.566,31.817" id="Fill-247"></path>
                <path d="M25.445,38.536 C25.859,37.821 25.615,36.909 24.9,36.496 C24.186,36.084 23.272,36.329 22.859,37.043 L21.203,39.915 C20.789,40.629 21.035,41.543 21.748,41.955 C22.463,42.367 23.377,42.122 23.787,41.408 L25.445,38.536" id="Fill-248"></path>
                <path d="M18.731,39.773 L17.785,39.227 L18.731,38.68 C19.057,38.49 19.17,38.072 18.982,37.747 C18.795,37.42 18.375,37.31 18.049,37.496 L17.102,38.043 L17.102,36.95 C17.102,36.573 16.797,36.27 16.42,36.27 C16.043,36.27 15.736,36.573 15.736,36.95 L15.736,38.043 L14.791,37.496 C14.467,37.309 14.047,37.42 13.857,37.747 C13.67,38.072 13.781,38.49 14.109,38.68 L15.055,39.227 L14.109,39.772 C13.781,39.961 13.67,40.377 13.857,40.705 C14.047,41.031 14.467,41.143 14.791,40.955 L15.736,40.408 L15.736,41.501 C15.736,41.879 16.043,42.183 16.42,42.183 C16.797,42.183 17.102,41.879 17.102,41.501 L17.102,40.407 L18.049,40.955 C18.375,41.143 18.795,41.031 18.982,40.705 C19.17,40.379 19.057,39.961 18.731,39.773" id="Fill-249"></path>
                <path d="M24.637,33.053 L23.69,32.506 L24.637,31.959 C24.961,31.772 25.074,31.354 24.887,31.027 C24.697,30.7 24.281,30.589 23.953,30.777 L23.006,31.324 L23.006,30.23 C23.006,29.854 22.701,29.549 22.324,29.549 C21.947,29.549 21.643,29.854 21.643,30.23 L21.643,31.324 L20.695,30.777 C20.369,30.588 19.953,30.701 19.766,31.027 C19.574,31.354 19.687,31.772 20.014,31.959 L20.959,32.506 L20.014,33.051 C19.687,33.24 19.574,33.658 19.766,33.984 C19.951,34.311 20.369,34.423 20.695,34.234 L21.643,33.689 L21.643,34.781 C21.643,35.16 21.947,35.464 22.324,35.464 C22.701,35.464 23.006,35.16 23.006,34.781 L23.006,33.689 L23.953,34.234 C24.281,34.423 24.697,34.311 24.887,33.984 C25.074,33.658 24.961,33.242 24.637,33.053" id="Fill-250"></path>
                <path d="M52.957,19.348 C53.783,19.348 54.449,18.68 54.449,17.856 C54.449,17.032 53.783,16.365 52.957,16.365 L49.646,16.365 C48.824,16.365 48.154,17.032 48.154,17.856 C48.154,18.68 48.824,19.348 49.646,19.347 L52.957,19.348" id="Fill-243"></path>
            </g>
        </g>
    </g>
</svg>