<?xml version="1.0" encoding="UTF-8"?>
<svg width="55px" height="47px" viewBox="0 0 55 47" version="1.1" xmlns="http://www.w3.org/2000/svg" xmlns:xlink="http://www.w3.org/1999/xlink">
    <!-- Generator: Sketch 52.5 (67469) - http://www.bohemiancoding.com/sketch -->
    <title>sw-19</title>
    <desc>Created with Sketch.</desc>
    <g id="Page-1" stroke="none" stroke-width="1" fill="none" fill-rule="evenodd">
        <g id="Weather-Icons-by-Daniel-VIerich" transform="translate(-816.000000, -290.000000)" fill="#FFFFFF">
            <g id="sw-19" transform="translate(816.000000, 290.000000)">
                <path d="M38.73,2.018 C38.73,1.193 38.062,0.527 37.238,0.527 C36.416,0.527 35.748,1.194 35.748,2.018 L35.748,5.33 C35.748,6.153 36.416,6.82 37.238,6.82 C38.062,6.82 38.73,6.153 38.73,5.33 L38.73,2.018" id="Fill-209"></path>
                <path d="M27.1,5.588 C26.518,5.006 25.574,5.006 24.992,5.588 C24.41,6.17 24.41,7.115 24.992,7.697 L27.334,10.038 C27.914,10.622 28.859,10.622 29.441,10.038 C30.023,9.455 30.023,8.513 29.441,7.93 L27.1,5.588" id="Fill-210"></path>
                <path d="M47.352,30.096 C47.934,30.679 48.877,30.679 49.461,30.097 C50.043,29.514 50.043,28.569 49.461,27.988 L47.119,25.647 C46.537,25.064 45.592,25.064 45.01,25.647 C44.428,26.228 44.428,27.172 45.01,27.754 L47.352,30.096" id="Fill-211"></path>
                <path d="M53.051,19.347 C53.875,19.347 54.541,18.68 54.541,17.856 C54.541,17.032 53.875,16.365 53.053,16.365 L49.74,16.365 C48.916,16.365 48.248,17.032 48.248,17.856 C48.248,18.68 48.916,19.347 49.74,19.347 L53.051,19.347" id="Fill-212"></path>
                <path d="M49.479,7.717 C50.06,7.135 50.062,6.19 49.479,5.608 C48.898,5.025 47.953,5.025 47.371,5.608 L45.029,7.95 C44.445,8.532 44.445,9.477 45.029,10.059 C45.613,10.641 46.557,10.641 47.137,10.059 L49.479,7.717" id="Fill-213"></path>
                <path d="M46.508,17.873 C46.508,12.756 42.359,8.605 37.238,8.605 C34.215,8.605 31.527,10.057 29.836,12.299 C27.934,11.622 26.109,11.672 25.266,11.898 C23.254,9.896 19.906,8.425 16.518,8.425 C9.801,8.425 4.297,13.617 3.801,20.208 C1.598,21.477 0.115,23.854 0.115,26.579 C0.115,30.639 3.404,33.93 7.461,33.93 L8.482,33.93 C9.182,33.93 9.719,33.238 9.719,32.521 C9.719,31.744 9.088,31.115 8.31,31.115 L8.098,31.115 C5.354,31.115 3.328,29.128 3.328,26.559 C3.328,24.459 4.662,22.619 6.744,21.99 C6.992,12.068 15.709,11.563 16.678,11.563 C19.555,11.563 22.412,12.975 24.25,15.065 C27.965,13.844 33.061,16.709 32.49,22.248 C33.941,21.66 35.393,21.707 35.809,21.707 C37.889,21.707 40.404,23.529 40.404,26.518 C40.404,29.057 38.346,31.115 35.809,31.115 L35.348,31.115 C34.57,31.115 33.94,31.746 33.94,32.523 C33.94,33.299 34.57,33.93 35.348,33.93 L35.803,33.93 C39.975,33.93 43.357,30.548 43.357,26.374 C43.357,26.374 43.359,25.803 43.197,24.973 C45.223,23.273 46.508,20.725 46.508,17.873 L46.508,17.873 Z M42.025,21.986 C40.945,20.326 38.992,18.828 35.453,18.828 C34.879,16.463 33.758,14.85 32.449,13.768 C33.606,12.419 35.322,11.565 37.238,11.565 C40.725,11.565 43.549,14.391 43.549,17.873 C43.549,19.445 42.975,20.882 42.025,21.986 L42.025,21.986 Z" id="Fill-214"></path>
                <path d="M26.139,44.822 C26.139,45.647 25.473,46.315 24.646,46.315 C23.822,46.315 23.152,45.647 23.152,44.822 C23.152,43.997 23.822,43.328 24.646,43.328 C25.473,43.328 26.139,43.997 26.139,44.822" id="Fill-215"></path>
                <path d="M20.516,41.754 C20.516,42.579 19.848,43.248 19.023,43.248 C18.199,43.248 17.529,42.579 17.529,41.754 C17.529,40.93 18.199,40.262 19.023,40.262 C19.848,40.262 20.516,40.93 20.516,41.754" id="Fill-216"></path>
                <path d="M31.764,41.754 C31.764,42.579 31.094,43.248 30.271,43.248 C29.445,43.248 28.779,42.579 28.779,41.754 C28.779,40.93 29.445,40.262 30.271,40.262 C31.094,40.262 31.764,40.93 31.764,41.754" id="Fill-217"></path>
                <path d="M19.514,30.382 C19.514,30.111 19.293,29.893 19.023,29.893 C18.754,29.893 18.535,30.111 18.535,30.382 L18.535,38.238 C18.535,38.508 18.754,38.727 19.023,38.727 C19.293,38.727 19.514,38.508 19.514,38.238 L19.514,30.382" id="Fill-218"></path>
                <path d="M14.893,44.822 C14.893,45.647 14.225,46.315 13.398,46.315 C12.576,46.315 11.906,45.647 11.906,44.822 C11.906,43.997 12.576,43.328 13.398,43.328 C14.225,43.328 14.893,43.997 14.893,44.822" id="Fill-219"></path>
                <path d="M13.889,30.382 C13.889,30.111 13.672,29.893 13.398,29.893 C13.129,29.893 12.908,30.111 12.908,30.382 L12.908,41.305 C12.908,41.575 13.129,41.796 13.398,41.796 C13.672,41.796 13.889,41.575 13.889,41.305 L13.889,30.382" id="Fill-220"></path>
                <path d="M25.137,30.382 C25.137,30.111 24.918,29.893 24.646,29.893 C24.377,29.893 24.156,30.111 24.156,30.382 L24.156,41.305 C24.156,41.575 24.377,41.796 24.646,41.796 C24.918,41.796 25.137,41.575 25.137,41.305 L25.137,30.382" id="Fill-221"></path>
                <path d="M30.76,30.382 C30.76,30.111 30.541,29.893 30.271,29.893 C30,29.893 29.781,30.111 29.781,30.382 L29.781,38.238 C29.781,38.508 30,38.727 30.271,38.727 C30.541,38.727 30.76,38.508 30.76,38.238 L30.76,30.382" id="Fill-222"></path>
            </g>
        </g>
    </g>
</svg>