<?xml version="1.0" encoding="UTF-8"?>
<svg width="55px" height="43px" viewBox="0 0 55 43" version="1.1" xmlns="http://www.w3.org/2000/svg" xmlns:xlink="http://www.w3.org/1999/xlink">
    <!-- Generator: Sketch 52.5 (67469) - http://www.bohemiancoding.com/sketch -->
    <title>sw-11</title>
    <desc>Created with Sketch.</desc>
    <g id="Page-1" stroke="none" stroke-width="1" fill="none" fill-rule="evenodd">
        <g id="Weather-Icons-by-Daniel-VIerich" transform="translate(-60.000000, -290.000000)" fill="#FFFFFF">
            <g id="sw-11" transform="translate(60.000000, 290.000000)">
                <path d="M38.617,2.018 C38.617,1.193 37.948,0.527 37.125,0.527 C36.302,0.527 35.635,1.193 35.634,2.018 L35.635,5.33 C35.635,6.153 36.302,6.82 37.125,6.82 C37.948,6.82 38.617,6.153 38.617,5.33 L38.617,2.018" id="Fill-297"></path>
                <path d="M26.985,5.588 C26.404,5.008 25.46,5.008 24.877,5.588 C24.295,6.171 24.295,7.115 24.877,7.697 L27.219,10.039 C27.801,10.622 28.746,10.622 29.328,10.039 C29.909,9.456 29.909,8.514 29.327,7.931 L26.985,5.588" id="Fill-298"></path>
                <path d="M47.239,30.096 C47.819,30.68 48.764,30.68 49.347,30.097 C49.929,29.514 49.929,28.57 49.347,27.988 L47.004,25.647 C46.422,25.065 45.478,25.065 44.896,25.647 C44.314,26.228 44.314,27.172 44.896,27.754 L47.239,30.096" id="Fill-299"></path>
                <path d="M52.936,19.348 C53.76,19.348 54.428,18.68 54.428,17.856 C54.428,17.033 53.76,16.365 52.936,16.365 L49.626,16.365 C48.802,16.365 48.133,17.033 48.133,17.856 C48.133,18.68 48.802,19.348 49.626,19.347 L52.936,19.348" id="Fill-300"></path>
                <path d="M49.365,7.717 C49.948,7.135 49.949,6.19 49.365,5.608 C48.785,5.025 47.839,5.025 47.257,5.608 L44.915,7.95 C44.332,8.532 44.332,9.477 44.915,10.059 C45.498,10.641 46.442,10.641 47.023,10.059 L49.365,7.717" id="Fill-301"></path>
                <path d="M46.394,17.875 C46.394,12.756 42.244,8.606 37.125,8.606 C34.1,8.606 31.414,10.057 29.723,12.299 C27.82,11.623 25.996,11.672 25.152,11.898 C23.14,9.896 19.79,8.426 16.404,8.426 C9.687,8.426 4.184,13.618 3.689,20.209 C1.485,21.478 0,23.854 0,26.579 C0,30.64 3.29,33.93 7.349,33.93 L8.34,33.93 C9.027,33.93 9.575,33.239 9.575,32.522 C9.575,31.744 8.944,31.115 8.168,31.115 L7.985,31.115 C5.24,31.115 3.214,29.129 3.214,26.559 C3.214,24.459 4.548,22.619 6.631,21.989 C6.88,12.068 15.594,11.563 16.563,11.563 C19.442,11.563 22.299,12.975 24.136,15.065 C27.852,13.844 32.946,16.709 32.376,22.249 C33.827,21.661 35.279,21.707 35.694,21.707 C37.774,21.707 40.291,23.529 40.291,26.518 C40.291,29.057 38.231,31.115 35.694,31.115 L35.491,31.115 C34.714,31.115 34.084,31.746 34.084,32.523 C34.084,33.3 34.714,33.93 35.491,33.93 L35.688,33.93 C39.861,33.93 43.243,30.547 43.243,26.375 C43.243,26.375 43.245,25.803 43.085,24.974 C45.108,23.273 46.394,20.725 46.394,17.875 L46.394,17.875 Z M41.911,21.986 C40.832,20.326 38.877,18.828 35.339,18.828 C34.766,16.464 33.644,14.85 32.335,13.768 C33.492,12.419 35.209,11.565 37.125,11.565 C40.61,11.565 43.436,14.39 43.436,17.875 C43.436,19.445 42.861,20.882 41.911,21.986 L41.911,21.986 Z" id="Fill-302"></path>
                <path d="M46.994,25.682 C46.411,25.1 45.466,25.1 44.881,25.682 C44.298,26.265 44.299,27.211 44.881,27.793 L47.227,30.138 C47.81,30.722 48.755,30.722 49.339,30.139 C49.92,29.556 49.92,28.609 49.339,28.027 L46.994,25.682" id="Fill-303"></path>
                <path d="M52.934,16.388 L49.617,16.388 C48.793,16.388 48.124,17.057 48.124,17.881 C48.124,18.706 48.793,19.373 49.617,19.373 L52.934,19.373 C53.76,19.373 54.428,18.706 54.428,17.881 C54.428,17.057 53.76,16.388 52.934,16.388" id="Fill-304"></path>
                <path d="M16.154,31.8 C16.566,31.085 16.321,30.172 15.607,29.76 C14.894,29.348 13.98,29.593 13.568,30.307 L11.91,33.179 C11.497,33.893 11.743,34.805 12.457,35.218 C13.171,35.631 14.083,35.385 14.496,34.672 L16.154,31.8" id="Fill-305"></path>
                <path d="M23.892,31.8 C24.304,31.085 24.06,30.172 23.345,29.76 C22.631,29.348 21.718,29.593 21.306,30.307 L19.648,33.179 C19.236,33.893 19.48,34.805 20.194,35.218 C20.909,35.631 21.822,35.385 22.234,34.672 L23.892,31.8" id="Fill-306"></path>
                <path d="M17.042,39.27 C17.455,38.555 17.21,37.643 16.496,37.228 C15.782,36.817 14.869,37.063 14.456,37.775 L12.798,40.647 C12.386,41.362 12.63,42.275 13.344,42.688 C14.059,43.1 14.972,42.856 15.384,42.142 L17.042,39.27" id="Fill-307"></path>
                <path d="M31.63,31.8 C32.042,31.085 31.798,30.172 31.084,29.76 C30.37,29.348 29.456,29.593 29.044,30.307 L27.386,33.179 C26.974,33.893 27.219,34.805 27.933,35.218 C28.647,35.631 29.56,35.385 29.972,34.672 L31.63,31.8" id="Fill-308"></path>
                <path d="M24.781,39.27 C25.193,38.555 24.948,37.643 24.234,37.228 C23.519,36.817 22.606,37.063 22.194,37.775 L20.536,40.647 C20.124,41.362 20.368,42.275 21.083,42.688 C21.797,43.1 22.71,42.856 23.122,42.142 L24.781,39.27" id="Fill-309"></path>
            </g>
        </g>
    </g>
</svg>