<?xml version="1.0" encoding="UTF-8"?>
<svg width="56px" height="48px" viewBox="0 0 56 48" version="1.1" xmlns="http://www.w3.org/2000/svg" xmlns:xlink="http://www.w3.org/1999/xlink">
    <!-- Generator: Sketch 52.5 (67469) - http://www.bohemiancoding.com/sketch -->
    <title>sw-17</title>
    <desc>Created with Sketch.</desc>
    <g id="Page-1" stroke="none" stroke-width="1" fill="none" fill-rule="evenodd">
        <g id="Weather-Icons-by-Daniel-VIerich" transform="translate(-627.000000, -290.000000)" fill="#FFFFFF">
            <g id="sw-17" transform="translate(627.000000, 290.000000)">
                <path d="M39.348,2.018 C39.348,1.193 38.682,0.527 37.856,0.527 C37.033,0.527 36.367,1.193 36.365,2.018 L36.367,5.329 C36.367,6.153 37.033,6.82 37.856,6.82 C38.682,6.82 39.348,6.153 39.348,5.329 L39.348,2.018" id="Fill-233"></path>
                <path d="M27.717,5.588 C27.135,5.006 26.19,5.006 25.609,5.588 C25.027,6.17 25.027,7.115 25.609,7.697 L27.951,10.038 C28.531,10.621 29.479,10.621 30.06,10.038 C30.641,9.455 30.641,8.513 30.059,7.93 L27.717,5.588" id="Fill-234"></path>
                <path d="M47.971,30.096 C48.551,30.679 49.496,30.679 50.078,30.097 C50.66,29.514 50.66,28.569 50.078,27.988 L47.736,25.647 C47.154,25.064 46.211,25.064 45.627,25.647 C45.047,26.228 45.047,27.172 45.627,27.754 L47.971,30.096" id="Fill-235"></path>
                <path d="M53.668,19.347 C54.492,19.347 55.16,18.68 55.16,17.856 C55.16,17.032 54.492,16.365 53.67,16.365 L50.357,16.365 C49.533,16.365 48.865,17.032 48.865,17.856 C48.865,18.68 49.533,19.347 50.357,19.346 L53.668,19.347" id="Fill-236"></path>
                <path d="M50.096,7.717 C50.68,7.135 50.68,6.19 50.096,5.607 C49.516,5.025 48.572,5.025 47.99,5.607 L45.646,7.95 C45.065,8.531 45.065,9.477 45.646,10.059 C46.231,10.641 47.174,10.641 47.754,10.059 L50.096,7.717" id="Fill-237"></path>
                <path d="M47.125,17.873 C47.125,12.756 42.979,8.605 37.856,8.605 C34.832,8.605 32.146,10.057 30.455,12.299 C28.551,11.622 26.729,11.672 25.883,11.898 C23.871,9.896 20.521,8.425 17.137,8.425 C10.418,8.425 4.916,13.617 4.42,20.208 C2.217,21.477 0.732,23.854 0.732,26.578 C0.732,30.639 4.021,33.929 8.08,33.929 L15.068,33.929 C15.768,33.929 16.303,33.238 16.303,32.521 C16.303,31.744 15.674,31.115 14.896,31.115 L8.717,31.115 C5.973,31.115 3.947,29.128 3.947,26.559 C3.947,24.459 5.279,22.618 7.363,21.989 C7.611,12.068 16.326,11.563 17.295,11.563 C20.174,11.563 23.031,12.974 24.867,15.065 C28.584,13.844 33.678,16.709 33.107,22.248 C34.559,21.66 36.01,21.707 36.426,21.707 C38.508,21.707 41.021,23.529 41.021,26.518 C41.021,29.057 38.963,31.115 36.426,31.115 L29.191,31.115 C28.414,31.115 27.783,31.746 27.783,32.523 C27.783,33.299 28.414,33.929 29.191,33.929 L36.42,33.929 C40.592,33.929 43.975,30.547 43.975,26.374 C43.975,26.374 43.979,25.803 43.816,24.973 C45.84,23.273 47.125,20.725 47.125,17.873 L47.125,17.873 Z M42.643,21.986 C41.563,20.325 39.609,18.828 36.07,18.828 C35.498,16.463 34.375,14.85 33.066,13.768 C34.223,12.418 35.941,11.565 37.856,11.565 C41.342,11.565 44.166,14.39 44.166,17.873 C44.166,19.445 43.594,20.882 42.643,21.986 L42.643,21.986 Z" id="Fill-238"></path>
                <path d="M20.166,40.022 C19.883,40.463 15.144,47.65 15.144,47.65 C15.144,47.65 23.752,40.17 24.068,39.897 C24.602,39.429 24.563,39.303 24.19,38.61 C23.924,38.115 23.027,36.449 22.805,36.049 C22.547,35.591 22.51,35.602 22.773,35.176 C23.033,34.75 28.266,25.975 28.266,25.975 C28.266,25.975 19.856,33.195 19.164,33.795 C18.176,34.648 18.191,34.81 18.703,35.924 C18.965,36.493 20.019,38.758 20.221,39.136 C20.432,39.537 20.488,39.52 20.166,40.022" id="Fill-239"></path>
            </g>
        </g>
    </g>
</svg>