<?xml version="1.0" encoding="UTF-8"?>
<svg width="55px" height="47px" viewBox="0 0 55 47" version="1.1" xmlns="http://www.w3.org/2000/svg" xmlns:xlink="http://www.w3.org/1999/xlink">
    <!-- Generator: Sketch 52.5 (67469) - http://www.bohemiancoding.com/sketch -->
    <title>sw-18</title>
    <desc>Created with Sketch.</desc>
    <g id="Page-1" stroke="none" stroke-width="1" fill="none" fill-rule="evenodd">
        <g id="Weather-Icons-by-Daniel-VIerich" transform="translate(-722.000000, -290.000000)" fill="#FFFFFF">
            <g id="sw-18" transform="translate(722.000000, 290.000000)">
                <path d="M38.979,2.018 C38.979,1.193 38.31,0.527 37.486,0.527 C36.664,0.527 35.998,1.193 35.998,2.018 L35.998,5.329 C35.998,6.153 36.664,6.82 37.486,6.82 C38.31,6.82 38.979,6.153 38.979,5.329 L38.979,2.018" id="Fill-223"></path>
                <path d="M27.348,5.588 C26.766,5.006 25.82,5.006 25.238,5.588 C24.656,6.17 24.656,7.115 25.238,7.697 L27.58,10.039 C28.164,10.621 29.109,10.621 29.69,10.039 C30.269,9.455 30.269,8.513 29.69,7.93 L27.348,5.588" id="Fill-224"></path>
                <path d="M47.6,30.096 C48.182,30.679 49.125,30.679 49.707,30.097 C50.289,29.514 50.289,28.569 49.707,27.988 L47.365,25.647 C46.785,25.064 45.84,25.064 45.258,25.647 C44.676,26.228 44.676,27.172 45.258,27.754 L47.6,30.096" id="Fill-225"></path>
                <path d="M53.297,19.347 C54.121,19.347 54.789,18.68 54.789,17.856 C54.789,17.032 54.121,16.365 53.297,16.365 L49.986,16.365 C49.164,16.365 48.496,17.032 48.496,17.856 C48.496,18.68 49.164,19.347 49.986,19.347 L53.297,19.347" id="Fill-226"></path>
                <path d="M49.727,7.717 C50.31,7.135 50.31,6.19 49.727,5.608 C49.144,5.025 48.201,5.025 47.617,5.608 L45.277,7.95 C44.695,8.532 44.695,9.477 45.277,10.059 C45.859,10.641 46.805,10.641 47.385,10.059 L49.727,7.717" id="Fill-227"></path>
                <path d="M46.754,17.873 C46.754,12.756 42.606,8.605 37.486,8.605 C34.461,8.605 31.775,10.057 30.084,12.299 C28.182,11.622 26.357,11.672 25.514,11.898 C23.5,9.896 20.152,8.425 16.766,8.425 C10.051,8.425 4.545,13.617 4.051,20.208 C1.846,21.477 0.361,23.854 0.361,26.578 C0.361,30.639 3.652,33.929 7.711,33.929 L14.346,33.929 C15.045,33.929 15.582,33.239 15.582,32.521 C15.582,31.744 14.951,31.115 14.176,31.115 L8.346,31.115 C5.602,31.115 3.576,29.128 3.576,26.559 C3.576,24.459 4.91,22.618 6.994,21.989 C7.242,12.068 15.955,11.563 16.924,11.563 C19.803,11.563 22.66,12.975 24.498,15.065 C28.213,13.844 33.307,16.709 32.738,22.248 C34.19,21.661 35.641,21.707 36.057,21.707 C38.137,21.707 40.652,23.529 40.652,26.518 C40.652,29.057 38.594,31.115 36.057,31.115 L29.996,31.115 C29.219,31.115 28.59,31.746 28.59,32.523 C28.59,33.299 29.219,33.929 29.996,33.929 L36.051,33.929 C40.223,33.929 43.606,30.547 43.606,26.374 C43.606,26.374 43.607,25.803 43.445,24.973 C45.469,23.273 46.754,20.725 46.754,17.873 L46.754,17.873 Z M42.273,21.986 C41.193,20.326 39.238,18.828 35.701,18.828 C35.127,16.464 34.006,14.85 32.695,13.768 C33.854,12.419 35.57,11.565 37.486,11.565 C40.971,11.565 43.797,14.39 43.797,17.873 C43.797,19.445 43.223,20.882 42.273,21.986 L42.273,21.986 Z" id="Fill-228"></path>
                <path d="M26.389,41.754 C26.389,42.578 25.721,43.248 24.896,43.248 C24.072,43.248 23.402,42.578 23.402,41.754 C23.402,40.93 24.072,40.261 24.896,40.261 C25.721,40.261 26.389,40.93 26.389,41.754" id="Fill-229"></path>
                <path d="M20.764,44.822 C20.764,45.647 20.098,46.315 19.271,46.315 C18.447,46.315 17.779,45.647 17.779,44.822 C17.779,43.997 18.447,43.328 19.271,43.328 C20.098,43.328 20.764,43.997 20.764,44.822" id="Fill-230"></path>
                <path d="M19.762,30.382 C19.762,30.111 19.541,29.892 19.271,29.892 C19,29.892 18.779,30.111 18.779,30.382 L18.779,41.305 C18.779,41.575 19,41.795 19.271,41.795 C19.541,41.795 19.762,41.575 19.762,41.305 L19.762,30.382" id="Fill-231"></path>
                <path d="M25.387,30.382 C25.387,30.111 25.166,29.892 24.896,29.892 C24.623,29.892 24.406,30.111 24.406,30.382 L24.406,38.238 C24.406,38.508 24.623,38.727 24.896,38.727 C25.166,38.727 25.387,38.508 25.387,38.238 L25.387,30.382" id="Fill-232"></path>
            </g>
        </g>
    </g>
</svg>