<?xml version="1.0" encoding="UTF-8"?>
<svg width="56px" height="51px" viewBox="0 0 56 51" version="1.1" xmlns="http://www.w3.org/2000/svg" xmlns:xlink="http://www.w3.org/1999/xlink">
    <!-- Generator: Sketch 52.5 (67469) - http://www.bohemiancoding.com/sketch -->
    <title>sw-13</title>
    <desc>Created with Sketch.</desc>
    <g id="Page-1" stroke="none" stroke-width="1" fill="none" fill-rule="evenodd">
        <g id="Weather-Icons-by-Daniel-VIerich" transform="translate(-247.000000, -290.000000)" fill="#FFFFFF">
            <g id="sw-13" transform="translate(247.000000, 290.000000)">
                <path d="M47.889,30.096 C48.471,30.679 49.417,30.679 49.998,30.097 C50.58,29.514 50.58,28.569 49.998,27.988 L47.657,25.647 C47.074,25.064 46.129,25.064 45.547,25.647 C44.965,26.228 44.965,27.172 45.547,27.753 L47.889,30.096" id="Fill-271"></path>
                <path d="M39.268,2.017 C39.268,1.193 38.6,0.527 37.777,0.527 C36.954,0.527 36.287,1.193 36.286,2.017 L36.287,5.328 C36.287,6.153 36.954,6.82 37.777,6.82 C38.6,6.82 39.268,6.153 39.268,5.328 L39.268,2.017" id="Fill-272"></path>
                <path d="M27.638,5.588 C27.055,5.006 26.111,5.006 25.528,5.588 C24.947,6.17 24.947,7.115 25.528,7.697 L27.87,10.038 C28.452,10.621 29.397,10.621 29.979,10.038 C30.562,9.455 30.562,8.513 29.979,7.93 L27.638,5.588" id="Fill-273"></path>
                <path d="M53.587,19.347 C54.413,19.347 55.08,18.68 55.08,17.856 C55.08,17.032 54.413,16.365 53.587,16.365 L50.276,16.365 C49.453,16.365 48.785,17.032 48.785,17.856 C48.785,18.68 49.453,19.347 50.276,19.346 L53.587,19.347" id="Fill-274"></path>
                <path d="M50.016,7.717 C50.601,7.135 50.601,6.19 50.016,5.607 C49.434,5.025 48.491,5.025 47.909,5.607 L45.567,7.95 C44.984,8.531 44.984,9.477 45.567,10.059 C46.15,10.641 47.093,10.641 47.674,10.059 L50.016,7.717" id="Fill-275"></path>
                <path d="M47.045,17.873 C47.045,12.756 42.896,8.605 37.777,8.605 C34.752,8.605 32.065,10.057 30.374,12.299 C28.472,11.622 26.647,11.672 25.803,11.898 C23.79,9.896 20.442,8.425 17.055,8.425 C10.339,8.425 4.835,13.617 4.34,20.208 C2.137,21.477 0.651,23.854 0.651,26.578 C0.651,30.639 3.942,33.929 7.999,33.929 L8.992,33.929 C9.677,33.929 10.227,33.238 10.227,32.521 C10.227,31.744 9.596,31.115 8.82,31.115 L8.637,31.115 C5.89,31.115 3.867,29.128 3.867,26.559 C3.867,24.459 5.2,22.617 7.283,21.988 C7.531,12.068 16.246,11.563 17.214,11.563 C20.093,11.563 22.951,12.974 24.788,15.065 C28.504,13.844 33.597,16.709 33.028,22.248 C34.478,21.66 35.931,21.707 36.345,21.707 C38.425,21.707 40.942,23.529 40.942,26.518 C40.942,29.057 38.883,31.115 36.345,31.115 L36.143,31.115 C35.366,31.115 34.735,31.746 34.735,32.523 C34.735,33.299 35.366,33.929 36.143,33.929 L36.339,33.929 C40.512,33.929 43.894,30.547 43.894,26.374 C43.894,26.374 43.898,25.803 43.736,24.973 C45.76,23.273 47.045,20.725 47.045,17.873 L47.045,17.873 Z M42.562,21.986 C41.483,20.325 39.531,18.828 35.992,18.828 C35.418,16.463 34.295,14.85 32.987,13.768 C34.143,12.418 35.86,11.565 37.777,11.565 C41.261,11.565 44.086,14.389 44.086,17.873 C44.086,19.445 43.511,20.882 42.562,21.986 L42.562,21.986 Z" id="Fill-276"></path>
                <path d="M47.645,25.682 C47.061,25.098 46.117,25.098 45.534,25.682 C44.951,26.264 44.952,27.211 45.535,27.792 L47.879,30.138 C48.461,30.722 49.408,30.722 49.991,30.138 C50.573,29.555 50.573,28.609 49.991,28.026 L47.645,25.682" id="Fill-277"></path>
                <path d="M53.585,16.387 L50.27,16.387 C49.445,16.387 48.775,17.055 48.775,17.881 C48.775,18.705 49.445,19.373 50.27,19.373 L53.585,19.373 C54.412,19.373 55.08,18.705 55.08,17.881 C55.08,17.055 54.412,16.387 53.585,16.387" id="Fill-278"></path>
                <path d="M17.45,31.799 C17.862,31.085 17.618,30.173 16.903,29.76 C16.19,29.348 15.276,29.592 14.864,30.307 L8.676,40.595 C8.264,41.309 8.509,42.221 9.224,42.636 C9.937,43.047 10.849,42.803 11.26,42.088 L17.45,31.799" id="Fill-279"></path>
                <path d="M24.483,31.799 C24.896,31.085 24.65,30.173 23.936,29.76 C23.222,29.348 22.308,29.592 21.896,30.307 L11.217,48.731 C10.804,49.445 11.048,50.359 11.763,50.771 C12.479,51.184 13.39,50.94 13.802,50.225 L24.483,31.799" id="Fill-280"></path>
                <path d="M31.516,31.799 C31.929,31.085 31.684,30.173 30.969,29.76 C30.255,29.348 29.342,29.592 28.93,30.307 L22.743,40.955 C22.331,41.669 22.575,42.582 23.288,42.995 C24.002,43.406 24.915,43.162 25.329,42.448 L31.516,31.799" id="Fill-281"></path>
            </g>
        </g>
    </g>
</svg>