<?xml version="1.0" encoding="UTF-8"?>
<svg width="56px" height="51px" viewBox="0 0 56 51" version="1.1" xmlns="http://www.w3.org/2000/svg" xmlns:xlink="http://www.w3.org/1999/xlink">
    <!-- Generator: Sketch 52.5 (67469) - http://www.bohemiancoding.com/sketch -->
    <title>sw-12</title>
    <desc>Created with Sketch.</desc>
    <g id="Page-1" stroke="none" stroke-width="1" fill="none" fill-rule="evenodd">
        <g id="Weather-Icons-by-Daniel-VIerich" transform="translate(-153.000000, -290.000000)" fill="#FFFFFF">
            <g id="sw-12" transform="translate(153.000000, 290.000000)">
                <path d="M48.022,30.097 C48.603,30.68 49.546,30.68 50.129,30.097 C50.711,29.514 50.711,28.57 50.129,27.988 L47.788,25.647 C47.206,25.065 46.261,25.065 45.678,25.647 C45.098,26.228 45.098,27.172 45.678,27.754 L48.022,30.097" id="Fill-282"></path>
                <path d="M39.399,2.018 C39.399,1.193 38.732,0.527 37.909,0.527 C37.085,0.527 36.417,1.194 36.417,2.018 L36.417,5.33 C36.417,6.153 37.085,6.821 37.909,6.821 C38.732,6.821 39.399,6.153 39.399,5.33 L39.399,2.018" id="Fill-283"></path>
                <path d="M27.77,5.59 C27.187,5.008 26.242,5.008 25.66,5.588 C25.08,6.172 25.08,7.115 25.66,7.697 L28,10.039 C28.585,10.622 29.529,10.622 30.112,10.039 C30.693,9.456 30.693,8.514 30.11,7.931 L27.77,5.59" id="Fill-284"></path>
                <path d="M53.719,19.348 C54.544,19.348 55.211,18.68 55.211,17.856 C55.211,17.033 54.544,16.365 53.719,16.365 L50.407,16.365 C49.585,16.365 48.917,17.033 48.917,17.856 C48.917,18.68 49.585,19.348 50.407,19.347 L53.719,19.348" id="Fill-285"></path>
                <path d="M50.147,7.717 C50.732,7.135 50.732,6.191 50.147,5.608 C49.567,5.025 48.622,5.025 48.04,5.608 L45.699,7.95 C45.116,8.532 45.116,9.477 45.699,10.059 C46.282,10.641 47.226,10.641 47.806,10.059 L50.147,7.717" id="Fill-286"></path>
                <path d="M47.176,17.875 C47.176,12.757 43.028,8.607 37.909,8.607 C34.883,8.607 32.198,10.057 30.505,12.299 C28.603,11.623 26.779,11.673 25.935,11.898 C23.922,9.896 20.574,8.426 17.187,8.426 C10.472,8.426 4.967,13.618 4.471,20.209 C2.269,21.478 0.782,23.855 0.782,26.579 C0.782,30.64 4.073,33.93 8.131,33.93 L9.124,33.93 C9.809,33.93 10.358,33.24 10.358,32.522 C10.358,31.745 9.728,31.115 8.951,31.115 L8.768,31.115 C6.023,31.115 3.998,29.129 3.998,26.559 C3.998,24.459 5.332,22.619 7.415,21.99 C7.663,12.068 16.378,11.563 17.345,11.563 C20.224,11.563 23.081,12.975 24.919,15.065 C28.634,13.844 33.73,16.709 33.159,22.249 C34.61,21.662 36.062,21.707 36.477,21.707 C38.56,21.707 41.074,23.529 41.074,26.518 C41.074,29.057 39.014,31.115 36.477,31.115 L36.275,31.115 C35.498,31.115 34.867,31.746 34.867,32.523 C34.867,33.3 35.498,33.93 36.275,33.93 L36.471,33.93 C40.644,33.93 44.026,30.548 44.026,26.375 C44.026,26.375 44.028,25.803 43.868,24.974 C45.891,23.273 47.176,20.725 47.176,17.875 L47.176,17.875 Z M42.695,21.986 C41.615,20.326 39.661,18.828 36.123,18.828 C35.548,16.465 34.426,14.85 33.118,13.768 C34.275,12.419 35.992,11.565 37.909,11.565 C41.393,11.565 44.218,14.391 44.218,17.875 C44.218,19.445 43.644,20.882 42.695,21.986 L42.695,21.986 Z" id="Fill-287"></path>
                <path d="M47.776,25.682 C47.193,25.1 46.249,25.1 45.664,25.682 C45.083,26.266 45.083,27.211 45.666,27.793 L48.01,30.139 C48.594,30.722 49.538,30.722 50.123,30.139 C50.705,29.556 50.705,28.609 50.123,28.027 L47.776,25.682" id="Fill-288"></path>
                <path d="M53.717,16.388 L50.401,16.388 C49.577,16.388 48.908,17.057 48.908,17.881 C48.908,18.706 49.577,19.373 50.401,19.373 L53.717,19.373 C54.543,19.373 55.211,18.706 55.211,17.881 C55.211,17.057 54.543,16.388 53.717,16.388" id="Fill-289"></path>
                <path d="M17.571,31.8 C17.985,31.087 17.74,30.174 17.026,29.76 C16.311,29.349 15.398,29.593 14.985,30.307 L13.329,33.179 C12.914,33.893 13.159,34.806 13.873,35.219 C14.589,35.631 15.501,35.386 15.913,34.672 L17.571,31.8" id="Fill-290"></path>
                <path d="M13.043,39.217 C13.455,38.503 13.21,37.59 12.496,37.178 C11.783,36.765 10.868,37.009 10.457,37.725 L8.797,40.596 C8.385,41.31 8.631,42.224 9.345,42.636 C10.059,43.047 10.971,42.803 11.384,42.088 L13.043,39.217" id="Fill-291"></path>
                <path d="M24.606,31.8 C25.016,31.087 24.772,30.174 24.058,29.76 C23.343,29.349 22.431,29.593 22.018,30.307 L20.361,33.179 C19.948,33.893 20.193,34.806 20.906,35.219 C21.622,35.631 22.535,35.386 22.948,34.672 L24.606,31.8" id="Fill-292"></path>
                <path d="M20.076,39.576 C20.488,38.862 20.244,37.949 19.529,37.537 C18.815,37.124 17.9,37.369 17.49,38.084 L15.831,40.955 C15.42,41.67 15.664,42.583 16.38,42.995 C17.091,43.408 18.006,43.162 18.417,42.448 L20.076,39.576" id="Fill-293"></path>
                <path d="M15.582,47.353 C15.995,46.639 15.751,45.725 15.035,45.313 C14.322,44.9 13.41,45.147 12.997,45.86 L11.339,48.732 C10.926,49.445 11.169,50.359 11.884,50.772 C12.599,51.185 13.511,50.94 13.924,50.225 L15.582,47.353" id="Fill-294"></path>
                <path d="M31.638,31.8 C32.05,31.087 31.806,30.174 31.091,29.76 C30.377,29.349 29.463,29.593 29.052,30.307 L27.394,33.179 C26.981,33.893 27.226,34.806 27.941,35.219 C28.655,35.631 29.568,35.386 29.981,34.672 L31.638,31.8" id="Fill-295"></path>
                <path d="M27.11,39.576 C27.521,38.862 27.277,37.949 26.563,37.537 C25.85,37.124 24.935,37.369 24.523,38.084 L22.863,40.955 C22.452,41.67 22.696,42.583 23.411,42.995 C24.124,43.408 25.04,43.162 25.45,42.448 L27.11,39.576" id="Fill-296"></path>
            </g>
        </g>
    </g>
</svg>