<?xml version="1.0" encoding="UTF-8"?>
<svg width="45px" height="44px" viewBox="0 0 45 44" version="1.1" xmlns="http://www.w3.org/2000/svg" xmlns:xlink="http://www.w3.org/1999/xlink">
    <!-- Generator: Sketch 52.5 (67469) - http://www.bohemiancoding.com/sketch -->
    <title>sw-22</title>
    <desc>Created with Sketch.</desc>
    <g id="Page-1" stroke="none" stroke-width="1" fill="none" fill-rule="evenodd">
        <g id="Weather-Icons-by-Daniel-VIerich" transform="translate(-153.000000, -379.000000)" fill="#FFFFFF">
            <g id="sw-22" transform="translate(153.000000, 379.000000)">
                <path d="M33.159,14.367 C34.611,13.779 36.062,13.826 36.477,13.826 C38.56,13.826 41.074,15.647 41.074,18.636 C41.074,21.176 39.014,23.233 36.477,23.233 L36.273,23.233 C35.496,23.233 34.866,23.864 34.866,24.643 C34.866,25.418 35.496,26.047 36.273,26.047 L36.472,26.047 C40.644,26.047 44.026,22.666 44.026,18.493 C44.026,18.493 44.065,10.946 36.124,10.946 C34.406,3.877 27.792,3.519 25.937,4.018 C23.924,2.016 20.575,0.544 17.187,0.544 C10.472,0.544 4.967,5.737 4.471,12.327 C2.269,13.596 0.782,15.973 0.782,18.697 C0.782,22.758 4.073,26.047 8.133,26.047 L9.124,26.047 C9.759,26.047 10.358,25.359 10.358,24.64 C10.358,23.863 9.726,23.233 8.951,23.233 L8.768,23.233 C6.023,23.233 3.998,21.247 3.998,18.677 C3.998,16.578 5.332,14.736 7.415,14.108 C7.663,4.188 16.378,3.681 17.345,3.681 C20.224,3.681 23.081,5.093 24.919,7.183 C28.634,5.963 33.73,8.827 33.159,14.367" id="Fill-186"></path>
                <path d="M17.571,23.918 C17.985,23.205 17.74,22.291 17.026,21.879 C16.311,21.467 15.398,21.711 14.985,22.425 L13.329,25.297 C12.914,26.012 13.159,26.925 13.873,27.336 C14.589,27.749 15.501,27.504 15.913,26.791 L17.571,23.918" id="Fill-187"></path>
                <path d="M13.043,31.335 C13.455,30.621 13.212,29.707 12.496,29.295 C11.783,28.883 10.87,29.127 10.457,29.842 L8.797,32.714 C8.385,33.428 8.631,34.342 9.346,34.754 C10.059,35.166 10.971,34.921 11.384,34.206 L13.043,31.335" id="Fill-188"></path>
                <path d="M24.606,23.918 C25.017,23.205 24.773,22.291 24.058,21.879 C23.345,21.467 22.431,21.711 22.021,22.425 L20.361,25.297 C19.949,26.012 20.193,26.925 20.907,27.336 C21.622,27.749 22.535,27.504 22.948,26.791 L24.606,23.918" id="Fill-189"></path>
                <path d="M20.076,31.695 C20.488,30.98 20.244,30.066 19.529,29.654 C18.815,29.242 17.902,29.487 17.49,30.201 L15.831,33.073 C15.42,33.787 15.664,34.701 16.38,35.113 C17.091,35.525 18.006,35.279 18.418,34.566 L20.076,31.695" id="Fill-190"></path>
                <path d="M15.585,39.472 C15.995,38.757 15.751,37.844 15.037,37.431 C14.322,37.02 13.41,37.265 12.997,37.978 L11.339,40.851 C10.926,41.565 11.171,42.478 11.884,42.89 C12.599,43.303 13.513,43.058 13.924,42.344 L15.585,39.472" id="Fill-191"></path>
                <path d="M31.638,23.918 C32.05,23.205 31.806,22.291 31.093,21.879 C30.378,21.467 29.463,21.711 29.052,22.425 L27.394,25.297 C26.983,26.012 27.226,26.925 27.941,27.336 C28.655,27.749 29.568,27.504 29.981,26.791 L31.638,23.918" id="Fill-192"></path>
                <path d="M27.11,31.695 C27.523,30.98 27.277,30.066 26.563,29.654 C25.85,29.242 24.935,29.487 24.523,30.201 L22.865,33.073 C22.453,33.787 22.696,34.701 23.411,35.113 C24.126,35.525 25.04,35.279 25.452,34.566 L27.11,31.695" id="Fill-193"></path>
            </g>
        </g>
    </g>
</svg>