<?xml version="1.0" encoding="UTF-8"?>
<svg width="56px" height="47px" viewBox="0 0 56 47" version="1.1" xmlns="http://www.w3.org/2000/svg" xmlns:xlink="http://www.w3.org/1999/xlink">
    <!-- Generator: Sketch 52.5 (67469) - http://www.bohemiancoding.com/sketch -->
    <title>sw-20</title>
    <desc>Created with Sketch.</desc>
    <g id="Page-1" stroke="none" stroke-width="1" fill="none" fill-rule="evenodd">
        <g id="Weather-Icons-by-Daniel-VIerich" transform="translate(-909.000000, -290.000000)" fill="#FFFFFF">
            <g id="sw-20" transform="translate(909.000000, 290.000000)">
                <path d="M39.531,2.017 C39.531,1.193 38.863,0.527 38.041,0.527 C37.217,0.527 36.549,1.193 36.549,2.017 L36.549,5.328 C36.549,6.153 37.217,6.82 38.041,6.82 C38.863,6.82 39.531,6.153 39.531,5.328 L39.531,2.017" id="Fill-200"></path>
                <path d="M27.9,5.588 C27.318,5.006 26.375,5.006 25.793,5.588 C25.211,6.17 25.211,7.115 25.793,7.697 L28.135,10.038 C28.717,10.621 29.662,10.621 30.242,10.038 C30.824,9.455 30.824,8.513 30.242,7.93 L27.9,5.588" id="Fill-201"></path>
                <path d="M48.152,30.096 C48.734,30.679 49.678,30.679 50.262,30.097 C50.844,29.514 50.844,28.569 50.262,27.988 L47.92,25.647 C47.338,25.064 46.394,25.064 45.811,25.647 C45.229,26.227 45.229,27.172 45.811,27.753 L48.152,30.096" id="Fill-202"></path>
                <path d="M53.852,19.347 C54.674,19.347 55.342,18.68 55.342,17.856 C55.342,17.032 54.674,16.365 53.852,16.365 L50.539,16.365 C49.717,16.365 49.049,17.032 49.049,17.856 C49.049,18.68 49.717,19.347 50.539,19.347 L53.852,19.347" id="Fill-203"></path>
                <path d="M50.279,7.717 C50.861,7.135 50.863,6.19 50.279,5.608 C49.699,5.025 48.754,5.025 48.17,5.608 L45.83,7.949 C45.248,8.532 45.248,9.477 45.83,10.059 C46.412,10.641 47.355,10.641 47.937,10.059 L50.279,7.717" id="Fill-204"></path>
                <path d="M47.309,17.873 C47.309,12.756 43.16,8.605 38.041,8.605 C35.016,8.605 32.328,10.057 30.637,12.297 C28.734,11.622 26.91,11.672 26.066,11.898 C24.055,9.896 20.705,8.425 17.318,8.425 C10.604,8.425 5.1,13.617 4.604,20.208 C2.398,21.477 0.916,23.854 0.916,26.578 C0.916,30.639 4.205,33.93 8.264,33.93 L13.514,33.93 C14.211,33.93 14.748,33.238 14.748,32.521 C14.748,31.744 14.117,31.115 13.342,31.115 L8.898,31.115 C6.154,31.115 4.129,29.128 4.129,26.559 C4.129,24.459 5.463,22.617 7.547,21.988 C7.793,12.068 16.51,11.563 17.479,11.563 C20.355,11.563 23.213,12.975 25.051,15.063 C28.766,13.844 33.859,16.709 33.291,22.248 C34.742,21.66 36.193,21.707 36.609,21.707 C38.689,21.707 41.205,23.529 41.205,26.518 C41.205,29.057 39.146,31.115 36.609,31.115 L31.422,31.115 C30.646,31.115 30.016,31.746 30.016,32.522 C30.016,33.299 30.646,33.93 31.422,33.93 L36.604,33.93 C40.775,33.93 44.158,30.547 44.158,26.374 C44.158,26.374 44.16,25.803 43.998,24.973 C46.023,23.273 47.309,20.725 47.309,17.873 L47.309,17.873 Z M42.826,21.986 C41.746,20.326 39.793,18.828 36.254,18.828 C35.682,16.463 34.557,14.85 33.248,13.768 C34.406,12.419 36.123,11.565 38.041,11.565 C41.525,11.565 44.35,14.389 44.35,17.873 C44.35,19.445 43.775,20.882 42.826,21.986 L42.826,21.986 Z" id="Fill-205"></path>
                <path d="M22.012,31.721 C22.408,31.035 22.174,30.158 21.49,29.764 C20.805,29.37 19.928,29.603 19.533,30.287 L14.322,39.054 L12.166,42.785 C11.625,43.729 11.092,43.99 10.248,43.99 C9.084,43.99 8.141,43.05 8.141,41.887 C8.141,40.83 8.924,39.965 9.938,39.814 L9.935,39.806 C10.682,39.707 11.139,38.855 10.955,38.097 C10.768,37.324 9.986,36.848 9.213,37.037 L9.215,37.039 C6.971,37.52 5.289,39.509 5.289,41.896 C5.289,44.639 7.512,46.861 10.254,46.861 C11.732,46.861 13.045,46.272 13.955,45.217 C15.006,46.815 17.133,47.342 18.816,46.375 C20.334,45.503 20.988,43.701 20.471,42.097 L20.475,42.094 C20.309,41.534 19.721,41.212 19.16,41.375 C18.611,41.535 18.234,42.14 18.445,42.648 L18.437,42.652 C18.713,43.354 18.447,44.166 17.775,44.555 C17.035,44.978 16.09,44.725 15.664,43.983 C15.396,43.516 15.34,43.123 15.596,42.574 C17.996,38.453 22.012,31.721 22.012,31.721" id="Fill-207"></path>
                <path d="M24.176,36.672 L24.176,36.672 C23.764,37.397 23.799,37.85 24.129,38.407 C24.58,39.172 25.568,39.427 26.332,38.972 C27.027,38.56 27.295,37.71 27,36.982 L27.006,36.981 C26.779,36.452 27.164,35.818 27.732,35.647 C28.315,35.469 28.932,35.796 29.109,36.379 L29.107,36.379 C29.666,38.042 29.01,39.926 27.439,40.853 C25.635,41.923 23.303,41.324 22.236,39.52 C21.537,38.338 21.494,36.974 22.154,35.803 C22.723,34.797 25.481,30.129 25.481,30.129 C25.777,29.603 26.445,29.416 26.973,29.714 C27.498,30.01 27.685,30.679 27.389,31.204 L24.176,36.672" id="Fill-208"></path>
            </g>
        </g>
    </g>
</svg>