<?xml version="1.0" encoding="UTF-8"?>
<svg width="44px" height="35px" viewBox="0 0 44 35" version="1.1" xmlns="http://www.w3.org/2000/svg" xmlns:xlink="http://www.w3.org/1999/xlink">
    <!-- Generator: Sketch 52.5 (67469) - http://www.bohemiancoding.com/sketch -->
    <title>sw-26</title>
    <desc>Created with Sketch.</desc>
    <g id="Page-1" stroke="none" stroke-width="1" fill="none" fill-rule="evenodd">
        <g id="Weather-Icons-by-Daniel-VIerich" transform="translate(-533.000000, -379.000000)" fill="#FFFFFF">
            <g id="sw-26" transform="translate(533.000000, 379.000000)">
                <path d="M16.695,23.935 C17.107,23.221 16.863,22.308 16.15,21.895 C15.435,21.483 14.521,21.728 14.111,22.442 L12.451,25.315 C12.039,26.028 12.283,26.941 12.998,27.354 C13.713,27.768 14.625,27.523 15.039,26.807 L16.695,23.935" id="Fill-166"></path>
                <path d="M31.566,23.935 C31.979,23.221 31.734,22.308 31.019,21.895 C30.305,21.483 29.393,21.728 28.981,22.442 L27.324,25.315 C26.908,26.028 27.154,26.941 27.867,27.354 C28.582,27.768 29.496,27.523 29.908,26.807 L31.566,23.935" id="Fill-167"></path>
                <path d="M25.445,30.654 C25.859,29.94 25.615,29.027 24.9,28.615 C24.186,28.202 23.272,28.447 22.859,29.161 L21.203,32.033 C20.789,32.747 21.035,33.661 21.748,34.073 C22.463,34.486 23.377,34.24 23.787,33.527 L25.445,30.654" id="Fill-168"></path>
                <path d="M18.731,31.891 L17.785,31.344 L18.731,30.798 C19.057,30.609 19.17,30.191 18.982,29.865 C18.793,29.539 18.375,29.428 18.049,29.615 L17.102,30.162 L17.102,29.069 C17.102,28.691 16.797,28.387 16.42,28.387 C16.043,28.387 15.736,28.691 15.736,29.069 L15.736,30.162 L14.789,29.615 C14.467,29.426 14.047,29.539 13.859,29.865 C13.672,30.191 13.781,30.609 14.109,30.798 L15.055,31.344 L14.109,31.891 C13.781,32.079 13.672,32.496 13.859,32.823 C14.047,33.15 14.467,33.262 14.789,33.072 L15.736,32.526 L15.736,33.619 C15.736,33.997 16.043,34.303 16.42,34.303 C16.797,34.303 17.102,33.997 17.102,33.619 L17.102,32.525 L18.049,33.072 C18.375,33.262 18.793,33.15 18.982,32.823 C19.17,32.496 19.057,32.08 18.731,31.891" id="Fill-169"></path>
                <path d="M24.637,25.172 L23.69,24.625 L24.637,24.078 C24.961,23.889 25.074,23.473 24.887,23.146 C24.697,22.818 24.281,22.709 23.953,22.895 L23.006,23.442 L23.006,22.351 C23.006,21.972 22.701,21.668 22.324,21.668 C21.947,21.668 21.643,21.972 21.643,22.351 L21.643,23.442 L20.695,22.895 C20.369,22.707 19.953,22.819 19.766,23.146 C19.574,23.473 19.686,23.889 20.014,24.078 L20.959,24.625 L20.014,25.171 C19.686,25.359 19.574,25.776 19.766,26.103 C19.951,26.43 20.369,26.542 20.695,26.354 L21.643,25.807 L21.643,26.9 C21.643,27.277 21.947,27.582 22.324,27.582 C22.701,27.582 23.006,27.277 23.006,26.9 L23.006,25.807 L23.953,26.354 C24.281,26.542 24.697,26.43 24.887,26.103 C25.074,25.777 24.961,25.36 24.637,25.172" id="Fill-170"></path>
                <path d="M32.398,14.367 C33.85,13.779 35.301,13.826 35.717,13.826 C37.797,13.826 40.312,15.647 40.312,18.635 C40.312,21.176 38.252,23.233 35.717,23.233 L35.504,23.233 C34.727,23.233 34.096,23.864 34.096,24.641 C34.096,25.418 34.727,26.047 35.504,26.047 L35.711,26.047 C39.883,26.047 43.264,22.666 43.264,18.492 C43.264,18.492 43.303,10.946 35.363,10.946 C33.644,3.877 27.029,3.519 25.174,4.018 C23.162,2.014 19.812,0.544 16.426,0.544 C9.709,0.544 4.205,5.736 3.711,12.327 C1.506,13.596 0.022,15.973 0.022,18.697 C0.022,22.757 3.312,26.047 7.369,26.047 L8.395,26.047 C9.033,26.047 9.629,25.357 9.629,24.64 C9.629,23.862 9,23.233 8.225,23.233 L8.006,23.233 C5.262,23.233 3.236,21.246 3.236,18.676 C3.236,16.578 4.57,14.736 6.652,14.107 C6.9,4.186 15.617,3.68 16.584,3.68 C19.465,3.68 22.32,5.093 24.156,7.182 C27.873,5.962 32.967,8.827 32.398,14.367" id="Fill-171"></path>
            </g>
        </g>
    </g>
</svg>