<?xml version="1.0" encoding="UTF-8"?>
<svg width="51px" height="43px" viewBox="0 0 51 43" version="1.1" xmlns="http://www.w3.org/2000/svg" xmlns:xlink="http://www.w3.org/1999/xlink">
    <!-- Generator: Sketch 52.5 (67469) - http://www.bohemiancoding.com/sketch -->
    <title>sw-36</title>
    <desc>Created with Sketch.</desc>
    <g id="Page-1" stroke="none" stroke-width="1" fill="none" fill-rule="evenodd">
        <g id="Weather-Icons-by-Daniel-VIerich" transform="translate(-533.000000, -461.000000)" fill="#FFFFFF">
            <g id="sw-36" transform="translate(533.000000, 461.000000)">
                <path d="M28.508,11.816 C27.096,11.523 25.85,11.593 25.195,11.769 C23.18,9.763 19.83,8.292 16.44,8.292 C9.717,8.292 4.209,13.489 3.713,20.085 C1.508,21.354 0.022,23.733 0.022,26.461 C0.022,30.524 3.315,33.816 7.377,33.816 L8.404,33.816 C9.098,33.816 9.641,33.126 9.641,32.407 C9.641,31.63 9.01,30.999 8.234,30.999 L8.014,30.999 C5.266,30.999 3.24,29.012 3.24,26.44 C3.24,24.339 4.574,22.495 6.658,21.868 C6.906,11.939 15.629,11.431 16.598,11.431 C19.481,11.431 22.338,12.845 24.18,14.937 C27.896,13.715 32.996,16.582 32.426,22.128 C33.877,21.539 35.33,21.585 35.746,21.585 C37.828,21.585 40.346,23.408 40.346,26.399 C40.346,28.94 38.287,30.999 35.746,30.999 L35.531,30.999 C34.752,30.999 34.123,31.632 34.123,32.41 C34.123,33.186 34.752,33.816 35.531,33.816 L35.74,33.816 C39.916,33.816 43.303,30.432 43.303,26.255 C43.303,26.255 43.307,25.282 42.945,24.036 C45.725,23.511 48.203,22.028 50.016,19.936 C52.367,17.234 49.685,17.292 48.771,17.149 C43.381,16.485 36.098,10.868 38.773,1.977 C39.354,0.069 38.25,0.048 37.443,0.28 C37.443,0.28 29.031,2.146 28.508,11.816 L28.508,11.816 Z M35.594,4.12 C34.355,10.527 39.492,18.458 46.672,19.212 C45.293,20.265 43.463,21.097 41.59,21.335 C40.449,19.897 38.551,18.703 35.391,18.703 C34.674,15.749 33.102,13.966 31.379,12.927 C30.945,7.94 34.051,5.065 35.594,4.12 L35.594,4.12 Z" id="Fill-112"></path>
                <path d="M16.711,31.704 C17.123,30.989 16.879,30.074 16.164,29.661 C15.449,29.251 14.535,29.495 14.121,30.21 L12.463,33.085 C12.049,33.8 12.295,34.713 13.01,35.126 C13.725,35.538 14.639,35.294 15.051,34.578 L16.711,31.704" id="Fill-113"></path>
                <path d="M31.592,31.704 C32.008,30.989 31.76,30.074 31.045,29.661 C30.332,29.251 29.416,29.495 29.006,30.21 L27.346,33.085 C26.932,33.8 27.178,34.713 27.893,35.126 C28.607,35.538 29.521,35.294 29.934,34.578 L31.592,31.704" id="Fill-114"></path>
                <path d="M25.467,38.429 C25.881,37.714 25.637,36.8 24.92,36.388 C24.207,35.974 23.293,36.22 22.879,36.935 L21.221,39.81 C20.807,40.523 21.053,41.437 21.766,41.851 C22.482,42.263 23.396,42.018 23.807,41.304 L25.467,38.429" id="Fill-115"></path>
                <path d="M18.748,39.666 L17.801,39.118 L18.748,38.571 C19.072,38.384 19.188,37.966 18.998,37.638 C18.809,37.311 18.393,37.2 18.063,37.389 L17.117,37.935 L17.117,36.842 C17.117,36.464 16.812,36.159 16.434,36.159 C16.057,36.159 15.75,36.464 15.75,36.842 L15.75,37.935 L14.803,37.389 C14.479,37.2 14.059,37.311 13.871,37.638 C13.682,37.966 13.793,38.384 14.119,38.571 L15.066,39.118 L14.119,39.665 C13.793,39.854 13.682,40.272 13.871,40.599 C14.059,40.927 14.479,41.038 14.803,40.85 L15.75,40.302 L15.75,41.396 C15.75,41.773 16.057,42.079 16.434,42.079 C16.812,42.079 17.117,41.773 17.117,41.396 L17.117,40.302 L18.063,40.85 C18.393,41.038 18.809,40.927 18.998,40.599 C19.188,40.272 19.072,39.854 18.748,39.666" id="Fill-116"></path>
                <path d="M24.656,32.941 L23.709,32.394 L24.656,31.847 C24.984,31.657 25.096,31.241 24.906,30.913 C24.719,30.586 24.301,30.476 23.975,30.663 L23.027,31.21 L23.027,30.116 C23.027,29.739 22.721,29.434 22.344,29.434 C21.967,29.434 21.662,29.739 21.662,30.116 L21.662,31.21 L20.713,30.663 C20.387,30.474 19.971,30.587 19.781,30.913 C19.592,31.241 19.703,31.657 20.031,31.847 L20.977,32.394 L20.031,32.94 C19.703,33.129 19.592,33.547 19.781,33.874 C19.969,34.201 20.387,34.311 20.713,34.124 L21.662,33.577 L21.662,34.671 C21.662,35.048 21.967,35.354 22.344,35.354 C22.721,35.354 23.027,35.048 23.027,34.671 L23.027,33.577 L23.975,34.124 C24.301,34.311 24.719,34.201 24.906,33.874 C25.096,33.548 24.984,33.13 24.656,32.941" id="Fill-117"></path>
            </g>
        </g>
    </g>
</svg>