<?xml version="1.0" encoding="UTF-8"?>
<svg width="52px" height="47px" viewBox="0 0 52 47" version="1.1" xmlns="http://www.w3.org/2000/svg" xmlns:xlink="http://www.w3.org/1999/xlink">
    <!-- Generator: Sketch 52.5 (67469) - http://www.bohemiancoding.com/sketch -->
    <title>sw-39</title>
    <desc>Created with Sketch.</desc>
    <g id="Page-1" stroke="none" stroke-width="1" fill="none" fill-rule="evenodd">
        <g id="Weather-Icons-by-Daniel-VIerich" transform="translate(-816.000000, -461.000000)" fill="#FFFFFF">
            <g id="sw-39" transform="translate(816.000000, 461.000000)">
                <path d="M28.6,11.817 C27.187,11.523 25.941,11.592 25.287,11.768 C23.273,9.765 19.922,8.292 16.533,8.292 C9.81,8.292 4.301,13.489 3.805,20.085 C1.6,21.355 0.115,23.733 0.115,26.461 C0.115,30.524 3.408,33.815 7.469,33.815 L8.492,33.815 C9.185,33.815 9.731,33.127 9.731,32.408 C9.731,31.631 9.098,31.001 8.32,31.001 L8.106,31.001 C5.359,31.001 3.332,29.013 3.332,26.44 C3.332,24.339 4.666,22.495 6.75,21.868 C7,11.939 15.723,11.431 16.69,11.431 C19.572,11.431 22.43,12.845 24.271,14.937 C27.99,13.714 33.088,16.583 32.518,22.127 C33.969,21.538 35.424,21.585 35.838,21.585 C37.922,21.585 40.438,23.407 40.438,26.399 C40.438,28.94 38.379,31.001 35.838,31.001 L35.379,31.001 C34.602,31.001 33.971,31.632 33.971,32.409 C33.971,33.187 34.602,33.815 35.379,33.815 L35.832,33.815 C40.008,33.815 43.394,30.433 43.394,26.255 C43.394,26.255 43.398,25.282 43.037,24.036 C45.816,23.512 48.297,22.028 50.107,19.936 C52.461,17.235 49.775,17.292 48.863,17.148 C43.473,16.485 36.19,10.868 38.867,1.977 C39.447,0.069 38.342,0.049 37.535,0.28 C37.535,0.28 29.125,2.146 28.6,11.817 L28.6,11.817 Z M35.686,4.12 C34.449,10.528 39.586,18.458 46.764,19.213 C45.385,20.265 43.555,21.098 41.68,21.335 C40.541,19.897 38.645,18.704 35.484,18.704 C34.768,15.748 33.193,13.965 31.471,12.927 C31.039,7.94 34.143,5.065 35.686,4.12 L35.686,4.12 Z" id="Fill-96"></path>
                <path d="M26.162,44.72 C26.162,45.545 25.494,46.214 24.668,46.214 C23.844,46.214 23.174,45.545 23.174,44.72 C23.174,43.894 23.844,43.225 24.668,43.225 C25.494,43.225 26.162,43.894 26.162,44.72" id="Fill-97"></path>
                <path d="M20.535,41.647 C20.535,42.476 19.865,43.144 19.039,43.144 C18.215,43.144 17.545,42.476 17.545,41.647 C17.545,40.823 18.215,40.154 19.039,40.154 C19.865,40.154 20.535,40.823 20.535,41.647" id="Fill-98"></path>
                <path d="M31.793,41.647 C31.793,42.476 31.123,43.144 30.295,43.144 C29.471,43.144 28.803,42.476 28.803,41.647 C28.803,40.823 29.471,40.154 30.295,40.154 C31.123,40.154 31.793,40.823 31.793,41.647" id="Fill-99"></path>
                <path d="M19.529,30.268 C19.529,29.995 19.31,29.776 19.039,29.776 C18.769,29.776 18.549,29.995 18.549,30.268 L18.549,38.13 C18.549,38.4 18.769,38.619 19.039,38.619 C19.31,38.619 19.529,38.4 19.529,38.13 L19.529,30.268" id="Fill-100"></path>
                <path d="M14.906,44.72 C14.906,45.545 14.236,46.214 13.41,46.214 C12.586,46.214 11.918,45.545 11.918,44.72 C11.918,43.894 12.586,43.225 13.41,43.225 C14.236,43.225 14.906,43.894 14.906,44.72" id="Fill-101"></path>
                <path d="M13.9,30.268 C13.9,29.995 13.682,29.776 13.41,29.776 C13.141,29.776 12.92,29.995 12.92,30.268 L12.92,41.2 C12.92,41.47 13.141,41.69 13.41,41.69 C13.682,41.69 13.9,41.47 13.9,41.2 L13.9,30.268" id="Fill-102"></path>
                <path d="M25.16,30.268 C25.16,29.995 24.937,29.776 24.668,29.776 C24.398,29.776 24.178,29.995 24.178,30.268 L24.178,41.2 C24.178,41.47 24.398,41.69 24.668,41.69 C24.937,41.69 25.16,41.47 25.16,41.2 L25.16,30.268" id="Fill-103"></path>
                <path d="M30.787,30.268 C30.787,29.995 30.566,29.776 30.295,29.776 C30.025,29.776 29.807,29.995 29.807,30.268 L29.807,38.13 C29.807,38.4 30.025,38.619 30.295,38.619 C30.566,38.619 30.787,38.4 30.787,38.13 L30.787,30.268" id="Fill-104"></path>
            </g>
        </g>
    </g>
</svg>