<?xml version="1.0" encoding="UTF-8"?>
<svg width="52px" height="48px" viewBox="0 0 52 48" version="1.1" xmlns="http://www.w3.org/2000/svg" xmlns:xlink="http://www.w3.org/1999/xlink">
    <!-- Generator: Sketch 52.5 (67469) - http://www.bohemiancoding.com/sketch -->
    <title>sw-37</title>
    <desc>Created with Sketch.</desc>
    <g id="Page-1" stroke="none" stroke-width="1" fill="none" fill-rule="evenodd">
        <g id="Weather-Icons-by-Daniel-VIerich" transform="translate(-627.000000, -461.000000)" fill="#FFFFFF">
            <g id="sw-37" transform="translate(627.000000, 461.000000)">
                <path d="M20.182,39.913 C19.9,40.356 15.156,47.548 15.156,47.548 C15.156,47.548 23.771,40.063 24.086,39.79 C24.623,39.32 24.584,39.194 24.209,38.501 C23.941,38.006 23.047,36.337 22.824,35.938 C22.565,35.48 22.527,35.491 22.791,35.064 C23.053,34.638 28.289,25.854 28.289,25.854 C28.289,25.854 19.871,33.081 19.178,33.682 C18.191,34.536 18.205,34.698 18.719,35.814 C18.981,36.382 20.035,38.649 20.236,39.026 C20.445,39.428 20.504,39.411 20.182,39.913" id="Fill-110"></path>
                <path d="M29.219,11.815 C27.805,11.523 26.559,11.592 25.906,11.768 C23.891,9.765 20.539,8.291 17.15,8.291 C10.426,8.291 4.92,13.489 4.422,20.085 C2.217,21.353 0.732,23.732 0.732,26.461 C0.732,30.523 4.025,33.815 8.086,33.815 L15.082,33.815 C15.775,33.815 16.316,33.126 16.316,32.407 C16.316,31.63 15.688,30.999 14.91,30.999 L8.725,30.999 C5.977,30.999 3.949,29.011 3.949,26.44 C3.949,24.339 5.283,22.495 7.367,21.866 C7.617,11.939 16.34,11.43 17.309,11.43 C20.19,11.43 23.049,12.844 24.887,14.937 C28.607,13.714 33.705,16.581 33.135,22.127 C34.586,21.538 36.039,21.585 36.457,21.585 C38.539,21.585 41.057,23.407 41.057,26.399 C41.057,28.94 38.996,30.999 36.457,30.999 L29.219,30.999 C28.44,30.999 27.809,31.632 27.809,32.409 C27.809,33.186 28.44,33.815 29.219,33.815 L36.449,33.815 C40.627,33.815 44.01,30.431 44.01,26.255 C44.01,26.255 44.018,25.282 43.654,24.034 C46.434,23.511 48.914,22.027 50.725,19.935 C53.078,17.233 50.394,17.292 49.482,17.148 C44.09,16.485 36.807,10.868 39.484,1.977 C40.065,0.069 38.961,0.049 38.152,0.28 C38.152,0.28 29.742,2.146 29.219,11.815 L29.219,11.815 Z M36.305,4.12 C35.065,10.526 40.203,18.457 47.381,19.212 C46.002,20.265 44.172,21.097 42.299,21.334 C41.158,19.897 39.262,18.702 36.102,18.702 C35.383,15.748 33.81,13.965 32.088,12.927 C31.656,7.94 34.76,5.065 36.305,4.12 L36.305,4.12 Z" id="Fill-111"></path>
            </g>
        </g>
    </g>
</svg>