<?xml version="1.0" encoding="UTF-8"?>
<svg width="52px" height="51px" viewBox="0 0 52 51" version="1.1" xmlns="http://www.w3.org/2000/svg" xmlns:xlink="http://www.w3.org/1999/xlink">
    <!-- Generator: Sketch 52.5 (67469) - http://www.bohemiancoding.com/sketch -->
    <title>sw-32</title>
    <desc>Created with Sketch.</desc>
    <g id="Page-1" stroke="none" stroke-width="1" fill="none" fill-rule="evenodd">
        <g id="Weather-Icons-by-Daniel-VIerich" transform="translate(-153.000000, -461.000000)" fill="#FFFFFF">
            <g id="sw-32" transform="translate(153.000000, 461.000000)">
                <path d="M29.269,11.816 C27.855,11.523 26.612,11.593 25.958,11.768 C23.943,9.763 20.592,8.292 17.201,8.292 C10.479,8.292 4.971,13.489 4.475,20.085 C2.269,21.354 0.782,23.733 0.782,26.46 C0.782,30.524 4.077,33.815 8.139,33.815 L9.272,33.815 C9.966,33.815 10.507,33.126 10.507,32.407 C10.507,31.63 9.877,30.999 9.1,30.999 L8.775,30.999 C6.029,30.999 4.001,29.012 4.001,26.44 C4.001,24.339 5.335,22.495 7.42,21.868 C7.669,11.937 16.391,11.431 17.361,11.431 C20.242,11.431 23.101,12.845 24.94,14.937 C28.66,13.715 33.756,16.582 33.188,22.127 C34.639,21.538 36.091,21.585 36.506,21.585 C38.589,21.585 41.107,23.407 41.107,26.399 C41.107,28.94 39.047,30.999 36.506,30.999 L36.275,30.999 C35.498,30.999 34.867,31.632 34.867,32.409 C34.867,33.186 35.498,33.815 36.275,33.815 L36.502,33.815 C40.677,33.815 44.062,30.432 44.062,26.255 C44.062,26.255 44.068,25.282 43.707,24.036 C46.487,23.511 48.965,22.028 50.777,19.936 C53.13,17.234 50.447,17.29 49.534,17.148 C44.142,16.485 36.858,10.868 39.536,1.977 C40.118,0.069 39.012,0.048 38.206,0.28 C38.206,0.28 29.794,2.144 29.269,11.816 L29.269,11.816 Z M36.356,4.12 C35.117,10.527 40.254,18.458 47.432,19.212 C46.055,20.264 44.224,21.097 42.35,21.335 C41.21,19.897 39.312,18.703 36.153,18.703 C35.434,15.749 33.863,13.965 32.138,12.927 C31.707,7.94 34.812,5.065 36.356,4.12 L36.356,4.12 Z" id="Fill-132"></path>
                <path d="M17.586,31.686 C17.999,30.972 17.753,30.058 17.04,29.645 C16.325,29.231 15.411,29.476 14.998,30.19 L13.337,33.065 C12.925,33.78 13.169,34.694 13.884,35.106 C14.6,35.52 15.515,35.274 15.926,34.56 L17.586,31.686" id="Fill-133"></path>
                <path d="M13.053,39.108 C13.466,38.394 13.221,37.479 12.507,37.067 C11.79,36.654 10.876,36.899 10.464,37.614 L8.804,40.488 C8.391,41.204 8.639,42.118 9.353,42.53 C10.068,42.942 10.981,42.698 11.393,41.981 L13.053,39.108" id="Fill-134"></path>
                <path d="M24.625,31.686 C25.038,30.972 24.793,30.058 24.08,29.645 C23.365,29.231 22.452,29.476 22.038,30.19 L20.377,33.065 C19.963,33.78 20.21,34.694 20.924,35.106 C21.64,35.52 22.553,35.274 22.966,34.56 L24.625,31.686" id="Fill-135"></path>
                <path d="M20.093,39.468 C20.505,38.753 20.26,37.84 19.543,37.427 C18.83,37.015 17.917,37.259 17.504,37.976 L15.844,40.849 C15.433,41.563 15.676,42.478 16.391,42.89 C17.106,43.302 18.02,43.058 18.432,42.344 L20.093,39.468" id="Fill-136"></path>
                <path d="M15.596,47.252 C16.009,46.536 15.763,45.622 15.048,45.21 C14.333,44.798 13.42,45.044 13.008,45.757 L11.349,48.632 C10.935,49.347 11.179,50.261 11.894,50.673 C12.61,51.087 13.524,50.841 13.936,50.126 L15.596,47.252" id="Fill-137"></path>
                <path d="M31.665,31.686 C32.078,30.972 31.832,30.058 31.117,29.645 C30.402,29.231 29.489,29.476 29.074,30.19 L27.415,33.065 C27.003,33.78 27.248,34.694 27.964,35.106 C28.679,35.52 29.592,35.274 30.004,34.56 L31.665,31.686" id="Fill-138"></path>
                <path d="M27.131,39.468 C27.545,38.753 27.299,37.84 26.585,37.427 C25.871,37.015 24.955,37.259 24.544,37.976 L22.883,40.849 C22.469,41.563 22.715,42.478 23.431,42.89 C24.145,43.302 25.059,43.058 25.471,42.344 L27.131,39.468" id="Fill-139"></path>
            </g>
        </g>
    </g>
</svg>