<?xml version="1.0" encoding="UTF-8"?>
<svg width="51px" height="43px" viewBox="0 0 51 43" version="1.1" xmlns="http://www.w3.org/2000/svg" xmlns:xlink="http://www.w3.org/1999/xlink">
    <!-- Generator: Sketch 52.5 (67469) - http://www.bohemiancoding.com/sketch -->
    <title>sw-31</title>
    <desc>Created with Sketch.</desc>
    <g id="Page-1" stroke="none" stroke-width="1" fill="none" fill-rule="evenodd">
        <g id="Weather-Icons-by-Daniel-VIerich" transform="translate(-60.000000, -461.000000)" fill="#FFFFFF">
            <g id="sw-31" transform="translate(60.000000, 461.000000)">
                <path d="M28.486,11.815 C27.073,11.523 25.828,11.592 25.174,11.768 C23.159,9.763 19.808,8.291 16.418,8.291 C9.696,8.291 4.187,13.489 3.692,20.085 C1.486,21.353 0,23.732 0,26.46 C0,30.523 3.293,33.815 7.355,33.815 L8.354,33.815 C9.048,33.815 9.59,33.126 9.59,32.407 C9.59,31.63 8.959,30.999 8.182,30.999 L7.992,30.999 C5.246,30.999 3.218,29.011 3.218,26.44 C3.218,24.339 4.552,22.495 6.638,21.866 C6.885,11.939 15.608,11.43 16.577,11.43 C19.459,11.43 22.317,12.844 24.156,14.937 C27.876,13.714 32.974,16.581 32.404,22.127 C33.855,21.538 35.309,21.585 35.725,21.585 C37.807,21.585 40.324,23.407 40.324,26.399 C40.324,28.94 38.265,30.999 35.725,30.999 L35.517,30.999 C34.739,30.999 34.109,31.632 34.109,32.409 C34.109,33.186 34.739,33.815 35.517,33.815 L35.718,33.815 C39.895,33.815 43.279,30.431 43.279,26.255 C43.279,26.255 43.286,25.282 42.923,24.034 C45.703,23.511 48.182,22.027 49.994,19.935 C52.346,17.233 49.663,17.29 48.75,17.148 C43.359,16.485 36.074,10.868 38.753,1.977 C39.333,0.069 38.229,0.048 37.421,0.28 C37.421,0.28 29.012,2.146 28.486,11.815 L28.486,11.815 Z M35.572,4.12 C34.335,10.526 39.471,18.457 46.649,19.212 C45.271,20.264 43.441,21.097 41.567,21.334 C40.427,19.897 38.529,18.702 35.37,18.702 C34.652,15.748 33.08,13.965 31.356,12.927 C30.924,7.94 34.029,5.065 35.572,4.12 L35.572,4.12 Z" id="Fill-140"></path>
                <path d="M16.168,31.685 C16.581,30.972 16.335,30.057 15.621,29.645 C14.907,29.231 13.993,29.477 13.58,30.19 L11.92,33.065 C11.508,33.78 11.753,34.694 12.467,35.106 C13.183,35.521 14.095,35.274 14.509,34.56 L16.168,31.685" id="Fill-141"></path>
                <path d="M23.913,31.685 C24.325,30.972 24.081,30.057 23.365,29.645 C22.651,29.231 21.736,29.477 21.324,30.19 L19.665,33.065 C19.252,33.78 19.497,34.694 20.211,35.106 C20.927,35.521 21.841,35.274 22.253,34.56 L23.913,31.685" id="Fill-142"></path>
                <path d="M17.057,39.161 C17.47,38.446 17.225,37.532 16.511,37.12 C15.796,36.707 14.88,36.952 14.468,37.668 L12.809,40.542 C12.397,41.256 12.642,42.171 13.356,42.582 C14.071,42.995 14.986,42.751 15.398,42.036 L17.057,39.161" id="Fill-143"></path>
                <path d="M31.657,31.685 C32.07,30.972 31.825,30.057 31.11,29.645 C30.396,29.231 29.481,29.477 29.068,30.19 L27.41,33.065 C26.997,33.78 27.242,34.694 27.956,35.106 C28.671,35.521 29.585,35.274 29.998,34.56 L31.657,31.685" id="Fill-144"></path>
                <path d="M24.802,39.161 C25.214,38.446 24.97,37.532 24.256,37.12 C23.54,36.707 22.626,36.952 22.213,37.668 L20.554,40.542 C20.14,41.256 20.386,42.171 21.102,42.582 C21.815,42.995 22.73,42.751 23.142,42.036 L24.802,39.161" id="Fill-145"></path>
            </g>
        </g>
    </g>
</svg>