<?xml version="1.0" encoding="UTF-8"?>
<svg width="52px" height="51px" viewBox="0 0 52 51" version="1.1" xmlns="http://www.w3.org/2000/svg" xmlns:xlink="http://www.w3.org/1999/xlink">
    <!-- Generator: Sketch 52.5 (67469) - http://www.bohemiancoding.com/sketch -->
    <title>sw-33</title>
    <desc>Created with Sketch.</desc>
    <g id="Page-1" stroke="none" stroke-width="1" fill="none" fill-rule="evenodd">
        <g id="Weather-Icons-by-Daniel-VIerich" transform="translate(-247.000000, -461.000000)" fill="#FFFFFF">
            <g id="sw-33" transform="translate(247.000000, 461.000000)">
                <path d="M29.137,11.815 C27.724,11.523 26.479,11.592 25.827,11.768 C23.811,9.765 20.46,8.291 17.07,8.291 C10.347,8.291 4.84,13.489 4.343,20.085 C2.138,21.355 0.651,23.733 0.651,26.461 C0.651,30.523 3.946,33.815 8.007,33.815 L8.999,33.815 C9.692,33.815 10.235,33.126 10.235,32.407 C10.235,31.63 9.604,30.999 8.826,30.999 L8.644,30.999 C5.897,30.999 3.871,29.011 3.871,26.44 C3.871,24.339 5.203,22.495 7.289,21.866 C7.537,11.939 16.258,11.43 17.229,11.43 C20.11,11.43 22.968,12.844 24.808,14.937 C28.527,13.714 33.625,16.581 33.056,22.127 C34.507,21.538 35.96,21.585 36.376,21.585 C38.46,21.585 40.975,23.407 40.975,26.399 C40.975,28.94 38.916,30.999 36.376,30.999 L36.172,30.999 C35.395,30.999 34.764,31.632 34.764,32.409 C34.764,33.186 35.395,33.815 36.172,33.815 L36.37,33.815 C40.545,33.815 43.931,30.431 43.931,26.255 C43.931,26.255 43.936,25.282 43.576,24.036 C46.355,23.511 48.834,22.027 50.645,19.935 C52.999,17.233 50.314,17.292 49.402,17.148 C44.01,16.485 36.726,10.868 39.405,1.977 C39.985,0.069 38.88,0.049 38.073,0.28 C38.073,0.28 29.663,2.146 29.137,11.815 L29.137,11.815 Z M36.223,4.12 C34.986,10.526 40.123,18.457 47.302,19.212 C45.922,20.265 44.092,21.097 42.218,21.335 C41.079,19.897 39.18,18.702 36.022,18.702 C35.304,15.748 33.731,13.965 32.008,12.927 C31.577,7.94 34.679,5.065 36.223,4.12 L36.223,4.12 Z" id="Fill-128"></path>
                <path d="M17.464,31.685 C17.877,30.972 17.631,30.057 16.917,29.645 C16.203,29.231 15.289,29.476 14.876,30.191 L8.683,40.489 C8.271,41.204 8.515,42.116 9.23,42.53 C9.946,42.942 10.859,42.698 11.271,41.983 L17.464,31.685" id="Fill-129"></path>
                <path d="M24.503,31.685 C24.915,30.972 24.671,30.057 23.956,29.645 C23.241,29.231 22.327,29.476 21.914,30.191 L11.226,48.632 C10.814,49.347 11.058,50.261 11.773,50.672 C12.489,51.086 13.401,50.84 13.814,50.126 L24.503,31.685" id="Fill-130"></path>
                <path d="M31.543,31.685 C31.955,30.972 31.71,30.057 30.996,29.645 C30.281,29.231 29.366,29.476 28.953,30.191 L22.761,40.849 C22.348,41.563 22.593,42.478 23.308,42.89 C24.022,43.302 24.936,43.058 25.35,42.343 L31.543,31.685" id="Fill-131"></path>
            </g>
        </g>
    </g>
</svg>