<?xml version="1.0" encoding="UTF-8"?>
<svg width="52px" height="42px" viewBox="0 0 52 42" version="1.1" xmlns="http://www.w3.org/2000/svg" xmlns:xlink="http://www.w3.org/1999/xlink">
    <!-- Generator: Sketch 52.5 (67469) - http://www.bohemiancoding.com/sketch -->
    <title>sw-35</title>
    <desc>Created with Sketch.</desc>
    <g id="Page-1" stroke="none" stroke-width="1" fill="none" fill-rule="evenodd">
        <g id="Weather-Icons-by-Daniel-VIerich" transform="translate(-437.000000, -461.000000)" fill="#FFFFFF">
            <g id="sw-35" transform="translate(437.000000, 461.000000)">
                <path d="M24.867,32.94 L23.919,32.393 L24.867,31.846 C25.193,31.657 25.304,31.239 25.116,30.913 C24.928,30.585 24.508,30.475 24.184,30.663 L23.236,31.21 L23.236,30.116 C23.236,29.739 22.931,29.433 22.552,29.433 C22.176,29.433 21.871,29.739 21.871,30.116 L21.871,31.21 L20.923,30.663 C20.594,30.474 20.178,30.586 19.991,30.913 C19.801,31.239 19.913,31.657 20.24,31.846 L21.186,32.393 L20.24,32.94 C19.913,33.128 19.801,33.547 19.991,33.873 C20.178,34.2 20.594,34.311 20.923,34.123 L21.871,33.577 L21.871,34.67 C21.871,35.048 22.176,35.354 22.552,35.354 C22.931,35.354 23.236,35.048 23.236,34.67 L23.236,33.577 L24.184,34.123 C24.508,34.311 24.928,34.2 25.116,33.873 C25.304,33.547 25.193,33.129 24.867,32.94" id="Fill-118"></path>
                <path d="M32.29,32.94 L31.343,32.393 L32.29,31.846 C32.618,31.657 32.728,31.239 32.542,30.913 C32.352,30.585 31.932,30.475 31.607,30.663 L30.66,31.21 L30.66,30.116 C30.66,29.739 30.354,29.433 29.978,29.433 C29.6,29.433 29.293,29.739 29.293,30.116 L29.293,31.21 L28.344,30.663 C28.02,30.474 27.603,30.586 27.412,30.913 C27.224,31.239 27.338,31.657 27.663,31.846 L28.611,32.393 L27.663,32.94 C27.338,33.128 27.224,33.547 27.412,33.873 C27.601,34.2 28.02,34.311 28.344,34.123 L29.293,33.577 L29.293,34.67 C29.293,35.048 29.6,35.354 29.978,35.354 C30.354,35.354 30.66,35.048 30.66,34.67 L30.66,33.577 L31.607,34.123 C31.932,34.311 32.352,34.2 32.542,33.873 C32.728,33.547 32.618,33.129 32.29,32.94" id="Fill-119"></path>
                <path d="M17.443,32.94 L16.496,32.393 L17.443,31.846 C17.769,31.657 17.882,31.239 17.693,30.913 C17.504,30.585 17.086,30.475 16.759,30.663 L15.811,31.21 L15.811,30.116 C15.811,29.739 15.508,29.433 15.128,29.433 C14.75,29.433 14.446,29.739 14.446,30.116 L14.446,31.21 L13.499,30.663 C13.171,30.474 12.755,30.586 12.566,30.913 C12.376,31.239 12.49,31.657 12.816,31.846 L13.764,32.393 L12.816,32.94 C12.49,33.128 12.376,33.547 12.566,33.873 C12.755,34.2 13.171,34.311 13.499,34.123 L14.446,33.577 L14.446,34.67 C14.446,35.048 14.75,35.354 15.128,35.354 C15.508,35.354 15.811,35.048 15.811,34.67 L15.811,33.577 L16.759,34.123 C17.086,34.311 17.504,34.2 17.693,33.873 C17.882,33.547 17.769,33.129 17.443,32.94" id="Fill-120"></path>
                <path d="M21.018,39.611 L20.069,39.064 L21.018,38.517 C21.344,38.327 21.457,37.911 21.267,37.583 C21.079,37.257 20.661,37.146 20.335,37.333 L19.387,37.88 L19.387,36.786 C19.387,36.409 19.081,36.104 18.704,36.104 C18.326,36.104 18.021,36.409 18.021,36.786 L18.021,37.88 L17.075,37.333 C16.746,37.145 16.329,37.257 16.139,37.583 C15.95,37.911 16.064,38.327 16.389,38.517 L17.336,39.064 L16.389,39.61 C16.064,39.799 15.95,40.216 16.139,40.543 C16.329,40.87 16.746,40.983 17.075,40.793 L18.021,40.246 L18.021,41.341 C18.021,41.718 18.326,42.024 18.704,42.024 C19.081,42.024 19.387,41.718 19.387,41.341 L19.387,40.246 L20.335,40.793 C20.661,40.983 21.079,40.87 21.267,40.543 C21.457,40.216 21.344,39.8 21.018,39.611" id="Fill-121"></path>
                <path d="M28.122,39.611 L27.172,39.064 L28.122,38.517 C28.447,38.327 28.56,37.911 28.37,37.583 C28.183,37.257 27.764,37.146 27.437,37.333 L26.491,37.88 L26.491,36.786 C26.491,36.409 26.185,36.104 25.807,36.104 C25.43,36.104 25.124,36.409 25.124,36.786 L25.124,37.88 L24.177,37.333 C23.849,37.145 23.432,37.257 23.242,37.583 C23.053,37.911 23.167,38.327 23.493,38.517 L24.44,39.064 L23.493,39.61 C23.167,39.799 23.053,40.216 23.242,40.543 C23.432,40.87 23.849,40.983 24.175,40.793 L25.124,40.246 L25.124,41.341 C25.124,41.718 25.43,42.024 25.807,42.024 C26.185,42.024 26.491,41.718 26.491,41.341 L26.491,40.246 L27.437,40.793 C27.764,40.983 28.183,40.87 28.37,40.543 C28.56,40.216 28.447,39.8 28.122,39.611" id="Fill-122"></path>
                <path d="M29.279,11.817 C27.866,11.523 26.622,11.593 25.967,11.769 C23.952,9.765 20.6,8.292 17.211,8.292 C10.489,8.292 4.98,13.489 4.485,20.085 C2.28,21.355 0.793,23.733 0.793,26.461 C0.793,30.524 4.086,33.815 8.147,33.815 L9.175,33.815 C9.869,33.815 10.411,33.127 10.411,32.408 C10.411,31.63 9.781,31.001 9.003,31.001 L8.785,31.001 C6.038,31.001 4.009,29.012 4.009,26.44 C4.009,24.339 5.345,22.495 7.43,21.868 C7.677,11.939 16.4,11.431 17.371,11.431 C20.251,11.431 23.11,12.845 24.95,14.937 C28.668,13.715 33.768,16.583 33.197,22.128 C34.648,21.539 36.101,21.585 36.517,21.585 C38.6,21.585 41.118,23.407 41.118,26.399 C41.118,28.94 39.057,31.001 36.517,31.001 L36.302,31.001 C35.525,31.001 34.894,31.632 34.894,32.409 C34.894,33.186 35.525,33.815 36.302,33.815 L36.51,33.815 C40.686,33.815 44.073,30.433 44.073,26.255 C44.073,26.255 44.078,25.282 43.716,24.036 C46.497,23.511 48.975,22.028 50.787,19.936 C53.139,17.235 50.455,17.292 49.543,17.149 C44.152,16.485 36.867,10.868 39.545,1.977 C40.126,0.069 39.021,0.049 38.214,0.28 C38.214,0.28 29.804,2.146 29.279,11.817 L29.279,11.817 Z M36.364,4.12 C35.128,10.528 40.264,18.458 47.443,19.213 C46.065,20.265 44.235,21.098 42.359,21.335 C41.219,19.897 39.321,18.704 36.162,18.704 C35.445,15.749 33.873,13.966 32.15,12.927 C31.716,7.94 34.823,5.065 36.364,4.12 L36.364,4.12 Z" id="Fill-123"></path>
            </g>
        </g>
    </g>
</svg>