<?xml version="1.0" encoding="UTF-8"?>
<svg width="52px" height="47px" viewBox="0 0 52 47" version="1.1" xmlns="http://www.w3.org/2000/svg" xmlns:xlink="http://www.w3.org/1999/xlink">
    <!-- Generator: Sketch 52.5 (67469) - http://www.bohemiancoding.com/sketch -->
    <title>sw-38</title>
    <desc>Created with Sketch.</desc>
    <g id="Page-1" stroke="none" stroke-width="1" fill="none" fill-rule="evenodd">
        <g id="Weather-Icons-by-Daniel-VIerich" transform="translate(-722.000000, -461.000000)" fill="#FFFFFF">
            <g id="sw-38" transform="translate(722.000000, 461.000000)">
                <path d="M26.412,41.647 C26.412,42.474 25.744,43.144 24.916,43.144 C24.092,43.144 23.422,42.474 23.422,41.647 C23.422,40.823 24.092,40.154 24.916,40.154 C25.744,40.154 26.412,40.823 26.412,41.647" id="Fill-105"></path>
                <path d="M20.781,44.72 C20.781,45.545 20.113,46.214 19.289,46.214 C18.463,46.214 17.795,45.545 17.795,44.72 C17.795,43.894 18.463,43.224 19.289,43.224 C20.113,43.224 20.781,43.894 20.781,44.72" id="Fill-106"></path>
                <path d="M19.779,30.268 C19.779,29.995 19.559,29.776 19.289,29.776 C19.018,29.776 18.799,29.995 18.799,30.268 L18.799,41.198 C18.799,41.47 19.018,41.69 19.289,41.69 C19.559,41.69 19.779,41.47 19.779,41.198 L19.779,30.268" id="Fill-107"></path>
                <path d="M25.406,30.268 C25.406,29.995 25.187,29.776 24.916,29.776 C24.646,29.776 24.426,29.995 24.426,30.268 L24.426,38.13 C24.426,38.399 24.646,38.619 24.916,38.619 C25.187,38.619 25.406,38.399 25.406,38.13 L25.406,30.268" id="Fill-108"></path>
                <path d="M28.848,11.815 C27.435,11.523 26.191,11.592 25.537,11.768 C23.521,9.765 20.17,8.292 16.781,8.292 C10.059,8.292 4.551,13.489 4.055,20.085 C1.848,21.355 0.361,23.733 0.361,26.461 C0.361,30.523 3.656,33.815 7.717,33.815 L14.352,33.815 C15.047,33.815 15.59,33.126 15.59,32.408 C15.59,31.63 14.957,31.001 14.18,31.001 L8.354,31.001 C5.607,31.001 3.58,29.011 3.58,26.44 C3.58,24.339 4.916,22.495 6.998,21.868 C7.246,11.939 15.969,11.431 16.94,11.431 C19.822,11.431 22.68,12.844 24.519,14.937 C28.238,13.714 33.336,16.581 32.768,22.127 C34.217,21.538 35.672,21.585 36.086,21.585 C38.17,21.585 40.685,23.407 40.685,26.399 C40.685,28.94 38.627,31.001 36.086,31.001 L30.021,31.001 C29.244,31.001 28.613,31.632 28.613,32.409 C28.613,33.186 29.244,33.815 30.021,33.815 L36.08,33.815 C40.256,33.815 43.643,30.433 43.643,26.255 C43.643,26.255 43.646,25.282 43.285,24.036 C46.066,23.511 48.545,22.027 50.357,19.936 C52.709,17.235 50.023,17.292 49.111,17.148 C43.721,16.485 36.435,10.868 39.115,1.977 C39.695,0.069 38.59,0.049 37.783,0.28 C37.783,0.28 29.373,2.146 28.848,11.815 L28.848,11.815 Z M35.934,4.12 C34.697,10.528 39.834,18.458 47.014,19.213 C45.635,20.265 43.803,21.098 41.928,21.335 C40.789,19.897 38.891,18.704 35.732,18.704 C35.014,15.748 33.441,13.965 31.719,12.927 C31.285,7.94 34.391,5.065 35.934,4.12 L35.934,4.12 Z" id="Fill-109"></path>
            </g>
        </g>
    </g>
</svg>