<?xml version="1.0" encoding="UTF-8"?>
<svg width="52px" height="43px" viewBox="0 0 52 43" version="1.1" xmlns="http://www.w3.org/2000/svg" xmlns:xlink="http://www.w3.org/1999/xlink">
    <!-- Generator: Sketch 52.5 (67469) - http://www.bohemiancoding.com/sketch -->
    <title>sw-34</title>
    <desc>Created with Sketch.</desc>
    <g id="Page-1" stroke="none" stroke-width="1" fill="none" fill-rule="evenodd">
        <g id="Weather-Icons-by-Daniel-VIerich" transform="translate(-342.000000, -461.000000)" fill="#FFFFFF">
            <g id="sw-34" transform="translate(342.000000, 461.000000)">
                <path d="M20.352,32.94 L19.405,32.393 L20.352,31.846 C20.678,31.657 20.79,31.239 20.602,30.912 C20.415,30.585 19.995,30.475 19.669,30.663 L18.721,31.209 L18.721,30.116 C18.721,29.738 18.415,29.433 18.037,29.433 C17.66,29.433 17.355,29.738 17.355,30.116 L17.355,31.209 L16.407,30.663 C16.082,30.474 15.663,30.585 15.474,30.912 C15.286,31.239 15.398,31.657 15.724,31.846 L16.671,32.393 L15.724,32.94 C15.398,33.128 15.286,33.546 15.474,33.873 C15.663,34.2 16.082,34.311 16.407,34.123 L17.355,33.575 L17.355,34.669 C17.355,35.048 17.66,35.353 18.037,35.353 C18.415,35.353 18.721,35.048 18.721,34.669 L18.721,33.577 L19.669,34.123 C19.995,34.311 20.415,34.2 20.602,33.873 C20.79,33.547 20.678,33.128 20.352,32.94" id="Fill-124"></path>
                <path d="M28.832,32.94 L27.887,32.393 L28.832,31.846 C29.161,31.657 29.274,31.239 29.083,30.912 C28.894,30.585 28.476,30.475 28.151,30.663 L27.203,31.209 L27.203,30.116 C27.203,29.738 26.897,29.433 26.519,29.433 C26.143,29.433 25.838,29.738 25.838,30.116 L25.838,31.209 L24.889,30.663 C24.562,30.474 24.144,30.585 23.957,30.912 C23.768,31.239 23.879,31.657 24.207,31.846 L25.154,32.393 L24.207,32.94 C23.879,33.128 23.768,33.546 23.957,33.873 C24.144,34.2 24.562,34.311 24.888,34.123 L25.838,33.575 L25.838,34.669 C25.838,35.048 26.143,35.353 26.519,35.353 C26.897,35.353 27.203,35.048 27.203,34.669 L27.203,33.577 L28.151,34.123 C28.476,34.311 28.894,34.2 29.083,33.873 C29.274,33.547 29.161,33.128 28.832,32.94" id="Fill-125"></path>
                <path d="M24.777,40.315 L23.829,39.769 L24.777,39.221 C25.104,39.032 25.215,38.614 25.028,38.288 C24.839,37.96 24.421,37.849 24.093,38.038 L23.147,38.585 L23.147,37.49 C23.147,37.113 22.841,36.809 22.462,36.809 C22.086,36.809 21.782,37.113 21.782,37.49 L21.782,38.585 L20.832,38.038 C20.507,37.849 20.088,37.961 19.9,38.288 C19.712,38.614 19.823,39.032 20.151,39.221 L21.096,39.769 L20.151,40.314 C19.823,40.503 19.712,40.921 19.9,41.247 C20.088,41.574 20.507,41.686 20.831,41.497 L21.782,40.95 L21.782,42.045 C21.782,42.423 22.086,42.728 22.462,42.728 C22.841,42.728 23.147,42.423 23.147,42.045 L23.147,40.952 L24.093,41.497 C24.421,41.686 24.839,41.574 25.028,41.247 C25.215,40.922 25.104,40.503 24.777,40.315" id="Fill-126"></path>
                <path d="M29.294,11.816 C27.881,11.523 26.635,11.593 25.982,11.768 C23.966,9.765 20.616,8.292 17.226,8.292 C10.503,8.292 4.996,13.489 4.5,20.085 C2.293,21.355 0.808,23.733 0.808,26.461 C0.808,30.524 4.102,33.815 8.164,33.815 L10.915,33.815 C11.609,33.815 12.152,33.126 12.152,32.408 C12.152,31.63 11.52,31.001 10.745,31.001 L8.799,31.001 C6.053,31.001 4.027,29.012 4.027,26.44 C4.027,24.339 5.359,22.495 7.445,21.868 C7.694,11.939 16.417,11.431 17.383,11.431 C20.266,11.431 23.125,12.845 24.964,14.937 C28.683,13.715 33.781,16.582 33.212,22.127 C34.664,21.538 36.117,21.585 36.533,21.585 C38.616,21.585 41.131,23.407 41.131,26.399 C41.131,28.94 39.072,31.001 36.533,31.001 L33.754,31.001 C32.976,31.001 32.347,31.632 32.347,32.409 C32.347,33.186 32.976,33.815 33.754,33.815 L36.527,33.815 C40.702,33.815 44.087,30.433 44.087,26.255 C44.087,26.255 44.093,25.282 43.731,24.036 C46.51,23.511 48.991,22.028 50.801,19.936 C53.155,17.234 50.469,17.292 49.559,17.148 C44.168,16.485 36.883,10.868 39.56,1.977 C40.14,0.069 39.037,0.049 38.228,0.28 C38.228,0.28 29.819,2.146 29.294,11.816 L29.294,11.816 Z M36.379,4.12 C35.141,10.528 40.279,18.458 47.457,19.213 C46.079,20.265 44.248,21.097 42.375,21.335 C41.234,19.897 39.337,18.703 36.178,18.703 C35.46,15.749 33.888,13.965 32.164,12.927 C31.733,7.94 34.835,5.065 36.379,4.12 L36.379,4.12 Z" id="Fill-127"></path>
            </g>
        </g>
    </g>
</svg>