<?xml version="1.0" encoding="UTF-8"?>
<svg width="52px" height="47px" viewBox="0 0 52 47" version="1.1" xmlns="http://www.w3.org/2000/svg" xmlns:xlink="http://www.w3.org/1999/xlink">
    <!-- Generator: Sketch 52.5 (67469) - http://www.bohemiancoding.com/sketch -->
    <title>sw-40</title>
    <desc>Created with Sketch.</desc>
    <g id="Page-1" stroke="none" stroke-width="1" fill="none" fill-rule="evenodd">
        <g id="Weather-Icons-by-Daniel-VIerich" transform="translate(-911.000000, -461.000000)" fill="#FFFFFF">
            <g id="sw-40" transform="translate(911.000000, 461.000000)">
                <path d="M29.146,11.816 C27.734,11.523 26.488,11.593 25.834,11.769 C23.818,9.765 20.469,8.292 17.078,8.292 C10.356,8.292 4.848,13.489 4.352,20.085 C2.146,21.355 0.66,23.733 0.66,26.461 C0.66,30.524 3.953,33.815 8.016,33.815 L13.277,33.815 C13.971,33.815 14.512,33.126 14.512,32.407 C14.512,31.63 13.881,30.999 13.105,30.999 L8.652,30.999 C5.904,30.999 3.879,29.012 3.879,26.44 C3.879,24.339 5.213,22.495 7.297,21.868 C7.545,11.939 16.269,11.431 17.238,11.431 C20.119,11.431 22.977,12.845 24.816,14.937 C28.535,13.715 33.635,16.582 33.065,22.128 C34.516,21.539 35.969,21.585 36.385,21.585 C38.469,21.585 40.984,23.407 40.984,26.399 C40.984,28.94 38.924,30.999 36.385,30.999 L31.193,30.999 C30.416,30.999 29.785,31.632 29.785,32.409 C29.785,33.186 30.416,33.815 31.193,33.815 L36.379,33.815 C40.555,33.815 43.94,30.432 43.94,26.255 C43.94,26.255 43.945,25.282 43.584,24.036 C46.363,23.511 48.842,22.028 50.654,19.936 C53.008,17.234 50.322,17.292 49.412,17.149 C44.019,16.485 36.736,10.868 39.412,1.977 C39.992,0.069 38.889,0.049 38.082,0.28 C38.082,0.28 29.672,2.146 29.146,11.816 L29.146,11.816 Z M36.232,4.12 C34.994,10.527 40.131,18.458 47.31,19.212 C45.932,20.265 44.102,21.097 42.227,21.335 C41.086,19.897 39.19,18.703 36.029,18.703 C35.315,15.749 33.74,13.966 32.018,12.927 C31.584,7.94 34.69,5.065 36.232,4.12 L36.232,4.12 Z" id="Fill-92"></path>
                <path d="M21.777,31.606 C22.172,30.92 21.937,30.044 21.252,29.649 C20.568,29.255 19.691,29.489 19.295,30.173 L14.08,38.946 L11.922,42.682 C11.381,43.626 10.846,43.888 10,43.888 C8.836,43.888 7.893,42.946 7.893,41.782 C7.893,40.726 8.678,39.858 9.691,39.708 L9.689,39.699 C10.434,39.602 10.893,38.747 10.709,37.989 C10.521,37.216 9.74,36.739 8.967,36.928 L8.967,36.931 C6.723,37.411 5.037,39.402 5.037,41.79 C5.037,44.536 7.262,46.76 10.008,46.76 C11.486,46.76 12.801,46.172 13.711,45.114 C14.764,46.715 16.893,47.241 18.576,46.274 C20.096,45.401 20.75,43.599 20.232,41.991 L20.238,41.99 C20.072,41.429 19.484,41.106 18.922,41.271 C18.373,41.429 17.996,42.035 18.207,42.544 L18.199,42.549 C18.475,43.249 18.209,44.065 17.535,44.452 C16.795,44.876 15.85,44.622 15.422,43.88 C15.154,43.412 15.098,43.019 15.354,42.472 C17.758,38.346 21.777,31.606 21.777,31.606" id="Fill-94"></path>
                <path d="M23.941,36.564 L23.941,36.564 C23.529,37.288 23.564,37.741 23.895,38.299 C24.348,39.065 25.334,39.319 26.1,38.864 C26.797,38.453 27.063,37.603 26.766,36.875 L26.771,36.872 C26.547,36.344 26.932,35.709 27.502,35.535 C28.084,35.358 28.701,35.686 28.879,36.271 L28.877,36.271 C29.435,37.935 28.779,39.819 27.207,40.748 C25.398,41.819 23.068,41.22 22,39.411 C21.299,38.229 21.256,36.866 21.92,35.692 C22.488,34.686 25.246,30.016 25.246,30.016 C25.543,29.489 26.213,29.302 26.74,29.599 C27.268,29.896 27.453,30.565 27.158,31.091 L23.941,36.564" id="Fill-95"></path>
            </g>
        </g>
    </g>
</svg>