<?xml version="1.0" encoding="UTF-8"?>
<svg width="44px" height="40px" viewBox="0 0 44 40" version="1.1" xmlns="http://www.w3.org/2000/svg" xmlns:xlink="http://www.w3.org/1999/xlink">
    <!-- Generator: Sketch 52.5 (67469) - http://www.bohemiancoding.com/sketch -->
    <title>sw-27</title>
    <desc>Created with Sketch.</desc>
    <g id="Page-1" stroke="none" stroke-width="1" fill="none" fill-rule="evenodd">
        <g id="Weather-Icons-by-Daniel-VIerich" transform="translate(-627.000000, -379.000000)" fill="#FFFFFF">
            <g id="sw-27" transform="translate(627.000000, 379.000000)">
                <path d="M20.164,32.141 C19.883,32.582 15.144,39.768 15.144,39.768 C15.144,39.768 23.752,32.289 24.066,32.015 C24.602,31.547 24.563,31.42 24.188,30.728 C23.924,30.233 23.027,28.566 22.805,28.167 C22.547,27.709 22.51,27.72 22.773,27.294 C23.033,26.867 28.266,18.092 28.266,18.092 C28.266,18.092 19.856,25.314 19.164,25.912 C18.176,26.766 18.191,26.928 18.703,28.043 C18.965,28.611 20.019,30.876 20.219,31.254 C20.432,31.655 20.488,31.637 20.164,32.141" id="Fill-164"></path>
                <path d="M33.107,14.367 C34.559,13.779 36.01,13.826 36.426,13.826 C38.508,13.826 41.021,15.647 41.021,18.636 C41.021,21.176 38.963,23.233 36.426,23.233 L29.191,23.233 C28.414,23.233 27.785,23.864 27.785,24.643 C27.785,25.418 28.414,26.047 29.191,26.047 L36.42,26.047 C40.592,26.047 43.975,22.666 43.975,18.492 C43.975,18.492 44.012,10.946 36.072,10.946 C34.356,3.877 27.738,3.519 25.883,4.018 C23.871,2.014 20.521,0.544 17.137,0.544 C10.418,0.544 4.916,5.736 4.42,12.327 C2.217,13.596 0.732,15.973 0.732,18.697 C0.732,22.757 4.021,26.047 8.08,26.047 L15.07,26.047 C15.709,26.047 16.307,25.359 16.307,24.64 C16.307,23.862 15.676,23.233 14.9,23.233 L8.715,23.233 C5.973,23.233 3.947,21.246 3.947,18.677 C3.947,16.578 5.279,14.736 7.363,14.108 C7.611,4.186 16.326,3.68 17.295,3.68 C20.174,3.68 23.029,5.093 24.867,7.183 C28.582,5.962 33.678,8.827 33.107,14.367" id="Fill-165"></path>
            </g>
        </g>
    </g>
</svg>