<?xml version="1.0" encoding="UTF-8"?>
<svg width="20px" height="18px" viewBox="0 0 20 18" version="1.1" xmlns="http://www.w3.org/2000/svg" xmlns:xlink="http://www.w3.org/1999/xlink">
    <!-- Generator: Sketch 41.2 (35397) - http://www.bohemiancoding.com/sketch -->
    <title>icon-shape</title>
    <desc>Created with Sketch.</desc>
    <defs></defs>
    <g id="Page-1" stroke="none" stroke-width="1" fill="none" fill-rule="evenodd">
        <g id="icon-shape" fill="#FFFFFF">
            <g id="Page-1">
                <g id="Uproar">
                    <g id="topbar">
                        <g id="coins">
                            <path d="M18.1624994,5.51694279 C17.8159482,5.32034057 17.4377614,5.18295588 17.0456743,5.09815636 C17.0559798,5.06096775 17.0689215,5.02188417 17.0792271,4.98540616 C17.2172723,4.47518785 17.6366809,2.92534642 16.6581409,1.64198392 C15.9487414,0.7103736 14.8707417,0.425418795 14.2933958,0.273821895 C13.8131132,0.14662263 13.1775295,0 12.5110295,0 C11.5092423,0 10.651492,0.342514245 10.00057,0.94700688 C9.34964785,0.342514245 8.49189754,0 7.49011031,0 C6.82361031,0 6.18730769,0.14662263 5.71038028,0.27287442 C5.13063788,0.426366285 4.05167951,0.71108421 3.34227995,1.64269454 C2.36445895,2.92605704 2.78386748,4.47589847 2.92191278,4.98706426 C2.9312596,5.02259478 2.94420135,5.06167836 2.95450682,5.09815636 C2.56241977,5.18366649 2.18351414,5.32034057 1.83528523,5.51789028 C-0.0987871846,6.62241585 -0.564690138,9.0316221 0.727088092,11.2451738 C1.55727731,12.6701847 3.37223771,13.5060995 4.99331154,13.7138346 C5.27539372,15.7407324 7.46686308,17.9983419 9.99889231,18 L9.99985092,18 C12.5318802,18 14.7240685,15.7416799 15.0063903,13.7138346 C16.6265055,13.5060995 18.4424246,12.6701847 19.2726138,11.2461213 C20.5648714,9.0306747 20.099208,6.62241585 18.1624994,5.51694279 Z M10.9671268,3.36710927 C11.3815025,1.8421392 12.6207946,2.02358174 13.7366611,2.32014318 C14.8518083,2.61504652 15.4202866,2.91184482 15.0078283,4.43776236 C14.5934526,5.96367992 13.3532018,8.1424116 12.2382942,7.84656075 C11.1224278,7.5514206 10.5537098,4.8930268 10.9671268,3.36710927 Z M6.26328046,2.31943257 C7.37914692,2.02263426 8.61867877,1.8421392 9.03281477,3.36639865 C9.44527308,4.8923162 8.87751369,7.55165745 7.76164738,7.8458502 C6.64650015,8.14170105 5.40720783,5.96225869 4.99211323,4.43705175 C4.57869626,2.91184482 5.14741422,2.61433591 6.26328046,2.31943257 Z M6.66567308,11.465463 C5.77868395,11.9707071 3.29147162,11.3993763 2.58470834,10.1863641 C1.87794508,8.9747733 2.01934566,7.85911485 2.90705374,7.3522128 C3.79404285,6.8469687 5.08390378,7.14447765 5.79066705,8.35843725 C6.50006662,9.5690805 7.55170354,10.961877 6.66567308,11.465463 Z M9.99961123,15.8804859 C8.400826,15.8795384 7.10473385,14.1951548 7.10473385,13.2829677 C7.10473385,12.3700701 8.400826,12.5742522 9.99961123,12.5742522 C11.5983966,12.5759103 12.8944888,12.3698333 12.8944888,13.2829677 C12.8942491,14.1942072 11.5983966,15.8804859 9.99961123,15.8804859 Z M17.4145142,10.1870748 C16.7077509,11.4000868 14.2202989,11.9707071 13.3335495,11.4661737 C12.4484777,10.961877 13.4998749,9.5697912 14.2083158,8.35938465 C14.9150791,7.14542505 16.2058988,6.8486268 17.0919291,7.3531602 C17.9796372,7.8600624 18.1212775,8.97572085 17.4145142,10.1870748 Z" id="icon-shape"></path>
                        </g>
                    </g>
                </g>
            </g>
        </g>
    </g>
</svg>