<?xml version="1.0" encoding="UTF-8"?>
<svg width="14px" height="14px" viewBox="0 0 14 14" version="1.1" xmlns="http://www.w3.org/2000/svg" xmlns:xlink="http://www.w3.org/1999/xlink">
    <!-- Generator: sketchtool 53 (72520) - https://sketchapp.com -->
    <title>5DF5E435-3DED-43F8-B33E-3B6950D383B9</title>
    <desc>Created with sketchtool.</desc>
    <g id="Page-1" stroke="none" stroke-width="1" fill="none" fill-rule="evenodd">
        <g id="Uproar" transform="translate(-30.000000, -593.000000)" fill="#FFFFFF" fill-rule="nonzero">
            <g id="leftbar">
                <g id="my-games" transform="translate(30.000000, 591.000000)">
                    <path d="M0.538461538,2 L4.84615385,2 C5.14353794,2 5.38461538,2.24107744 5.38461538,2.53846154 L5.38461538,6.84615385 C5.38461538,7.14353794 5.14353794,7.38461538 4.84615385,7.38461538 L0.538461538,7.38461538 C0.241077442,7.38461538 3.64190481e-17,7.14353794 0,6.84615385 L0,2.53846154 C-3.64190481e-17,2.24107744 0.241077442,2 0.538461538,2 Z M9.15384615,2 L13.4615385,2 C13.7589226,2 14,2.24107744 14,2.53846154 L14,6.84615385 C14,7.14353794 13.7589226,7.38461538 13.4615385,7.38461538 L9.15384615,7.38461538 C8.85646206,7.38461538 8.61538462,7.14353794 8.61538462,6.84615385 L8.61538462,2.53846154 C8.61538462,2.24107744 8.85646206,2 9.15384615,2 Z M0.538461538,10.6153846 L4.84615385,10.6153846 C5.14353794,10.6153846 5.38461538,10.8564621 5.38461538,11.1538462 L5.38461538,15.4615385 C5.38461538,15.7589226 5.14353794,16 4.84615385,16 L0.538461538,16 C0.241077442,16 3.64190481e-17,15.7589226 0,15.4615385 L0,11.1538462 C-3.64190481e-17,10.8564621 0.241077442,10.6153846 0.538461538,10.6153846 Z M9.15384615,10.6153846 L13.4615385,10.6153846 C13.7589226,10.6153846 14,10.8564621 14,11.1538462 L14,15.4615385 C14,15.7589226 13.7589226,16 13.4615385,16 L9.15384615,16 C8.85646206,16 8.61538462,15.7589226 8.61538462,15.4615385 L8.61538462,11.1538462 C8.61538462,10.8564621 8.85646206,10.6153846 9.15384615,10.6153846 Z" id="icon-grid"></path>
                </g>
            </g>
        </g>
    </g>
</svg>