<?xml version="1.0" encoding="UTF-8"?>
<svg width="7px" height="12px" viewBox="0 0 7 12" version="1.1" xmlns="http://www.w3.org/2000/svg" xmlns:xlink="http://www.w3.org/1999/xlink">
    <!-- Generator: sketchtool 53 (72520) - https://sketchapp.com -->
    <title>B7A052CF-5DAE-4437-981B-ED9C74A809B4</title>
    <desc>Created with sketchtool.</desc>
    <g id="Page-1" stroke="none" stroke-width="1" fill="none" fill-rule="evenodd">
        <g id="Uproar" transform="translate(-1068.000000, -30.000000)" fill="#FFFFFF" fill-rule="nonzero">
            <g id="topbar" transform="translate(280.000000, 14.000000)">
                <g id="energy" transform="translate(779.000000, 10.000000)">
                    <path d="M15.9807217,10.1156096 C15.9469684,10.0452032 15.8742743,10.0000156 15.7941975,10.0000156 L13.3544959,10.0000156 L15.7622777,6.30700841 C15.8024247,6.24541454 15.8048857,6.16741439 15.7686713,6.10361739 C15.7324329,6.03960945 15.6632372,6 15.5882994,6 L12.2941957,6 C12.2161696,6 12.1449232,6.04279696 12.1099393,6.11060178 L9.0217095,12.1106135 C8.98978975,12.1724183 8.99328814,12.2460122 9.03075705,12.3050045 C9.06844311,12.3639968 9.1345264,12.3999969 9.20596584,12.3999969 L11.3230439,12.3999969 L9.01613621,17.7224057 C8.97680954,17.8134137 9.01181752,17.9189998 9.09848097,17.9706093 C9.1318242,17.990414 9.16888295,18 9.2057487,18 C9.26483522,18 9.32310143,17.9753906 9.36346556,17.9290077 L15.9516972,10.328985 C16.0033527,10.2694068 16.0144751,10.1862035 15.9807217,10.1156096 Z" id="icon-energy"></path>
                </g>
            </g>
        </g>
    </g>
</svg>